<svg xmlns="http://www.w3.org/2000/svg" viewBox="0 0 54.85 42.93"><defs><style>.cls-1{fill:#b34f5b;}</style></defs><g id="Camada_2" data-name="Camada 2"><g id="Layer_1" data-name="Layer 1"><path class="cls-1" d="M5.56,42.93A5.58,5.58,0,0,1,0,37.37V5.56A5.57,5.57,0,0,1,5.56,0H49.29a5.57,5.57,0,0,1,5.56,5.56V37.37a5.58,5.58,0,0,1-5.56,5.56H5.56ZM3.18,21.06V37.37a2.39,2.39,0,0,0,2.38,2.38H49.29a2.39,2.39,0,0,0,2.39-2.38V21.06Zm0-9.87v6.7h48.5V11.18Zm2.38-8A2.4,2.4,0,0,0,3.18,5.56V8h48.5V5.56a2.4,2.4,0,0,0-2.39-2.39Z"/><path class="cls-1" d="M9.54,35a1.59,1.59,0,0,1,0-3.18h4a1.59,1.59,0,0,1,0,3.18Z"/><path class="cls-1" d="M19.48,35a1.59,1.59,0,0,1,0-3.18h4a1.59,1.59,0,1,1,0,3.18Z"/></g></g></svg>