<svg id="Aumenta_a_elasticidade" data-name="Aumenta a elasticidade" xmlns="http://www.w3.org/2000/svg" xmlns:xlink="http://www.w3.org/1999/xlink" width="78" height="78" viewBox="0 0 78 78">
  <defs>
    <clipPath id="clip-path">
      <rect id="Retângulo_662" data-name="Retângulo 662" width="78" height="78" fill="none" stroke="#f38599" stroke-width="3"/>
    </clipPath>
  </defs>
  <g id="Grupo_922" data-name="Grupo 922" transform="translate(0 0)" clip-path="url(#clip-path)">
    <path id="Caminho_1387" data-name="Caminho 1387" d="M100.431,198.085V199.1a38.492,38.492,0,0,1-1.15,9.338" transform="translate(-67.755 -143.561)" fill="none" stroke="#f38599" stroke-linecap="round" stroke-linejoin="round" stroke-width="3"/>
    <path id="Caminho_1388" data-name="Caminho 1388" d="M64.7,188.66a26.916,26.916,0,0,1,1.495-8.854" transform="translate(-41.222 -129.537)" fill="none" stroke="#f38599" stroke-linecap="round" stroke-linejoin="round" stroke-width="3"/>
    <line id="Linha_31" data-name="Linha 31" y1="4.6" transform="translate(23.476 61.423)" fill="none" stroke="#f38599" stroke-linecap="round" stroke-linejoin="round" stroke-width="3"/>
    <path id="Caminho_1389" data-name="Caminho 1389" d="M82.544,50.943v-16.1a19.548,19.548,0,0,0-39.1,0v8.573a27.092,27.092,0,0,1-1.725,9.512A27.094,27.094,0,0,0,40,62.442v6.9" transform="translate(-22.271 -3.318)" fill="none" stroke="#f38599" stroke-linecap="round" stroke-linejoin="round" stroke-width="3"/>
    <path id="Caminho_1390" data-name="Caminho 1390" d="M153.623,123.981a5.75,5.75,0,0,0,6.9,0" transform="translate(-109.448 -86.706)" fill="none" stroke="#f38599" stroke-linecap="round" stroke-linejoin="round" stroke-width="3"/>
    <path id="Caminho_1391" data-name="Caminho 1391" d="M94.34,123.981a5.75,5.75,0,0,0,6.9,0" transform="translate(-63.964 -86.706)" fill="none" stroke="#f38599" stroke-linecap="round" stroke-linejoin="round" stroke-width="3"/>
    <path id="Caminho_1392" data-name="Caminho 1392" d="M119.041,173.384a9.775,9.775,0,0,0,9.2,0" transform="translate(-82.916 -124.61)" fill="none" stroke="#f38599" stroke-linecap="round" stroke-linejoin="round" stroke-width="3"/>
    <path id="Caminho_1393" data-name="Caminho 1393" d="M204.226,188.205a23.9,23.9,0,0,1-4.132,5.768" transform="translate(-145.103 -135.981)" fill="none" stroke="#f38599" stroke-linecap="round" stroke-linejoin="round" stroke-width="3"/>
    <path id="Caminho_1394" data-name="Caminho 1394" d="M153.069,212.986c-3.77,3.926-8.967,6.881-14.266,6.881" transform="translate(-98.078 -154.994)" fill="none" stroke="#f38599" stroke-linecap="round" stroke-linejoin="round" stroke-width="3"/>
    <path id="Caminho_1395" data-name="Caminho 1395" d="M95.277,40V41.16a10.349,10.349,0,0,0,4.864,8.776,9.223,9.223,0,0,1,4.335,7.821V58.4c0,3.45,0,8.049-2.3,12.649s-8.049,9.2-12.649,9.2-10.349-4.6-12.649-9.2-2.3-9.2-2.3-12.649a7.564,7.564,0,0,1,5.54-7.288l9.685-2.69a7.474,7.474,0,0,0,5.474-7.2V40" transform="translate(-48.803 -22.27)" fill="none" stroke="#f38599" stroke-linecap="round" stroke-linejoin="round" stroke-width="3"/>
    <path id="Caminho_1396" data-name="Caminho 1396" d="M74.579,50.814V47.228a9.2,9.2,0,0,1,6.455-8.78L86.643,36.7a5.75,5.75,0,0,0,4.035-5.488V30.116" transform="translate(-48.803 -14.689)" fill="none" stroke="#f38599" stroke-linecap="round" stroke-linejoin="round" stroke-width="3"/>
  </g>
</svg>
