<svg xmlns="http://www.w3.org/2000/svg" xmlns:xlink="http://www.w3.org/1999/xlink" width="78" height="78" viewBox="0 0 78 78">
  <defs>
    <clipPath id="clip-path">
      <rect id="Retângulo_657" data-name="Retângulo 657" width="78" height="78" fill="none"/>
    </clipPath>
  </defs>
  <g id="Ação_firmadora" data-name="Ação firmadora" clip-path="url(#clip-path)">
    <path id="Caminho_1331" data-name="Caminho 1331" d="M63.675,67.992V53.7c0-10.722,7.742-25.019,23.828-25.019S111.33,42.973,111.33,53.7V69.034" transform="translate(-48.503 -21.843)" fill="none" stroke="#f38599" stroke-linecap="round" stroke-linejoin="round" stroke-width="3"/>
    <line id="Linha_10" data-name="Linha 10" y1="11.914" transform="translate(15.172 55.679)" fill="none" stroke="#f38599" stroke-linecap="round" stroke-linejoin="round" stroke-width="3"/>
    <line id="Linha_11" data-name="Linha 11" y1="11.914" transform="translate(62.828 55.679)" fill="none" stroke="#f38599" stroke-linecap="round" stroke-linejoin="round" stroke-width="3"/>
    <path id="Caminho_1332" data-name="Caminho 1332" d="M93.675,92.016a20.849,20.849,0,0,1,33.359,0" transform="translate(-71.354 -63.738)" fill="none" stroke="#f38599" stroke-linecap="round" stroke-linejoin="round" stroke-width="3"/>
    <path id="Caminho_1333" data-name="Caminho 1333" d="M225.545,211.9a27.367,27.367,0,0,1-6.655,9.49" transform="translate(-166.734 -161.408)" fill="none" stroke="#f38599" stroke-linecap="round" stroke-linejoin="round" stroke-width="3"/>
    <path id="Caminho_1334" data-name="Caminho 1334" d="M80.531,211.9a27.367,27.367,0,0,0,6.655,9.49" transform="translate(-61.342 -161.408)" fill="none" stroke="#f38599" stroke-linecap="round" stroke-linejoin="round" stroke-width="3"/>
    <path id="Caminho_1335" data-name="Caminho 1335" d="M114.417,84.652c0,3.2-4.914,15.488-15.488,15.488S83.442,87.854,83.442,84.652A7.877,7.877,0,0,1,78.676,77.5a3.265,3.265,0,0,1,3.574-3.574V67.085A10.1,10.1,0,0,1,84.3,60.977c3.423-4.529,7.461-7.3,14.633-7.3a18.359,18.359,0,0,1,14.633,7.3,10.1,10.1,0,0,1,2.047,6.108v6.844a3.265,3.265,0,0,1,3.574,3.574A7.877,7.877,0,0,1,114.417,84.652Z" transform="translate(-59.929 -40.886)" fill="none" stroke="#f38599" stroke-linecap="round" stroke-linejoin="round" stroke-width="3"/>
    <path id="Caminho_1336" data-name="Caminho 1336" d="M143.676,208.31a7.16,7.16,0,0,0,9.531-.05" transform="translate(-109.441 -158.637)" fill="none" stroke="#f38599" stroke-linecap="round" stroke-linejoin="round" stroke-width="3"/>
    <path id="Caminho_1337" data-name="Caminho 1337" d="M198.69,236.087c0,5.432,3.422,14.913,15.485,14.913" transform="translate(-151.347 -179.833)" fill="none" stroke="#f38599" stroke-linecap="round" stroke-linejoin="round" stroke-width="3"/>
    <path id="Caminho_1338" data-name="Caminho 1338" d="M79.16,236.087c0,5.432-3.422,14.913-15.484,14.913" transform="translate(-48.504 -179.833)" fill="none" stroke="#f38599" stroke-linecap="round" stroke-linejoin="round" stroke-width="3"/>
    <path id="Caminho_1339" data-name="Caminho 1339" d="M183.676,156.067a4.51,4.51,0,0,0,7.148-.1" transform="translate(-139.91 -118.805)" fill="none" stroke="#f38599" stroke-linecap="round" stroke-linejoin="round" stroke-width="3"/>
    <path id="Caminho_1340" data-name="Caminho 1340" d="M120.824,156.067a4.51,4.51,0,0,1-7.148-.1" transform="translate(-86.59 -118.805)" fill="none" stroke="#f38599" stroke-linecap="round" stroke-linejoin="round" stroke-width="3"/>
    <path id="Caminho_1341" data-name="Caminho 1341" d="M183.676,125.907c1.241-1.191,3.673-1.589,7.148-.447" transform="translate(-139.91 -95.048)" fill="none" stroke="#f38599" stroke-linecap="round" stroke-linejoin="round" stroke-width="3"/>
    <path id="Caminho_1342" data-name="Caminho 1342" d="M120.824,125.907c-1.242-1.191-3.673-1.589-7.148-.447" transform="translate(-86.59 -95.048)" fill="none" stroke="#f38599" stroke-linecap="round" stroke-linejoin="round" stroke-width="3"/>
    <path id="Caminho_1343" data-name="Caminho 1343" d="M232.855,202.568l4.068-4.518.944,6.057Z" transform="translate(-177.371 -150.86)" fill="#3c3c3e" stroke="#f38599" stroke-width="3"/>
    <path id="Caminho_1344" data-name="Caminho 1344" d="M232.855,202.568l4.068-4.518.944,6.057-2.509-.77Z" transform="translate(-177.371 -150.86)" fill="#f38599" stroke="#f38599" stroke-linejoin="round" stroke-width="3"/>
    <path id="Caminho_1345" data-name="Caminho 1345" d="M78.476,202.568l-4.067-4.518-.944,6.057Z" transform="translate(-55.96 -150.86)" fill="#f38599" stroke="#f38599" stroke-width="3"/>
    <path id="Caminho_1346" data-name="Caminho 1346" d="M78.476,202.568l-4.067-4.518-.944,6.057Z" transform="translate(-55.96 -150.86)" fill="none" stroke="#f38599" stroke-linejoin="round" stroke-width="3"/>
    <path id="Caminho_1347" data-name="Caminho 1347" d="M178.445,55.145a3.807,3.807,0,0,1-.038,7.11" transform="translate(-135.897 -42.005)" fill="none" stroke="#f38599" stroke-linecap="round" stroke-linejoin="round" stroke-width="3"/>
  </g>
</svg>
