<svg xmlns="http://www.w3.org/2000/svg" xmlns:xlink="http://www.w3.org/1999/xlink" width="78" height="78" viewBox="0 0 78 78">
  <defs>
    <clipPath id="clip-path">
      <rect id="Retângulo_658" data-name="Retângulo 658" width="78" height="78" fill="none" stroke="#f38599" stroke-width="3"/>
    </clipPath>
  </defs>
  <g id="Hidrata_profundamente_" data-name="Hidrata profundamente " clip-path="url(#clip-path)">
    <path id="Caminho_1348" data-name="Caminho 1348" d="M25.873,128.694a25.872,25.872,0,0,0,8.12,1.11c4.205,0,7.178-2.32,11.6-2.32s7.25,2.32,11.6,2.32,7.177-2.32,11.6-2.32,7.395,2.32,11.6,2.32a25.872,25.872,0,0,0,8.12-1.11" transform="translate(-18.193 -89.644)" fill="none" stroke="#f38599" stroke-linecap="round" stroke-linejoin="round" stroke-width="3"/>
    <path id="Caminho_1349" data-name="Caminho 1349" d="M25.873,148.234a25.872,25.872,0,0,0,8.12,1.11c4.205,0,7.178-2.32,11.6-2.32s7.25,2.32,11.6,2.32,7.177-2.32,11.6-2.32,7.395,2.32,11.6,2.32a25.872,25.872,0,0,0,8.12-1.11" transform="translate(-18.193 -103.384)" fill="none" stroke="#f38599" stroke-linecap="round" stroke-linejoin="round" stroke-width="3"/>
    <path id="Caminho_1350" data-name="Caminho 1350" d="M120.275,47.1a8.121,8.121,0,1,1-16.24,0A8.267,8.267,0,0,1,105,43.216l7.156-13.435,7.155,13.435A8.254,8.254,0,0,1,120.275,47.1Z" transform="translate(-73.155 -20.941)" fill="none" stroke="#f38599" stroke-linecap="round" stroke-linejoin="round" stroke-width="3"/>
    <path id="Caminho_1351" data-name="Caminho 1351" d="M123.148,91.687a3.526,3.526,0,0,1-3.48-3.563" transform="translate(-84.148 -61.967)" fill="none" stroke="#f38599" stroke-linecap="round" stroke-linejoin="round" stroke-width="3"/>
    <path id="Caminho_1352" data-name="Caminho 1352" d="M119.668,181.965a3.516,3.516,0,1,0,6.96,0,4.532,4.532,0,0,0-.413-1.9l-3.067-5.685-3.064,5.685A4.5,4.5,0,0,0,119.668,181.965Z" transform="translate(-84.148 -122.621)" fill="none" stroke="#f38599" stroke-linecap="round" stroke-linejoin="round" stroke-width="3"/>
    <path id="Caminho_1353" data-name="Caminho 1353" d="M213.463,181.965a3.516,3.516,0,1,0,6.96,0,4.532,4.532,0,0,0-.413-1.9l-3.067-5.685-3.064,5.685A4.5,4.5,0,0,0,213.463,181.965Z" transform="translate(-150.103 -122.621)" fill="none" stroke="#f38599" stroke-linecap="round" stroke-linejoin="round" stroke-width="3"/>
    <path id="Caminho_1354" data-name="Caminho 1354" d="M32.832,181.965a3.778,3.778,0,0,1-3.48,4.016,3.778,3.778,0,0,1-3.48-4.016,4.532,4.532,0,0,1,.413-1.9l3.067-5.685,3.064,5.685A4.5,4.5,0,0,1,32.832,181.965Z" transform="translate(-18.193 -122.621)" fill="none" stroke="#f38599" stroke-linecap="round" stroke-linejoin="round" stroke-width="3"/>
    <path id="Caminho_1355" data-name="Caminho 1355" d="M166.565,201.506a3.516,3.516,0,1,0,6.96,0,4.532,4.532,0,0,0-.413-1.9l-3.067-5.685-3.064,5.685A4.5,4.5,0,0,0,166.565,201.506Z" transform="translate(-117.125 -136.362)" fill="none" stroke="#f38599" stroke-linecap="round" stroke-linejoin="round" stroke-width="3"/>
    <path id="Caminho_1356" data-name="Caminho 1356" d="M79.73,201.506a3.516,3.516,0,1,1-6.96,0,4.532,4.532,0,0,1,.413-1.9l3.067-5.685,3.064,5.685A4.5,4.5,0,0,1,79.73,201.506Z" transform="translate(-51.17 -136.362)" fill="none" stroke="#f38599" stroke-linecap="round" stroke-linejoin="round" stroke-width="3"/>
    <path id="Caminho_1357" data-name="Caminho 1357" d="M203.2,88.4l-4.64,4.64-4.64-4.64" transform="translate(-136.362 -62.162)" fill="none" stroke="#f38599" stroke-linecap="round" stroke-linejoin="round" stroke-width="3"/>
    <line id="Linha_12" data-name="Linha 12" y1="16.24" transform="translate(62.2 14.64)" fill="none" stroke="#f38599" stroke-linecap="round" stroke-linejoin="round" stroke-width="3"/>
    <path id="Caminho_1358" data-name="Caminho 1358" d="M46.877,88.4l-4.64,4.64L37.6,88.4" transform="translate(-26.437 -62.162)" fill="none" stroke="#f38599" stroke-linecap="round" stroke-linejoin="round" stroke-width="3"/>
    <line id="Linha_13" data-name="Linha 13" y1="16.24" transform="translate(15.8 14.64)" fill="none" stroke="#f38599" stroke-linecap="round" stroke-linejoin="round" stroke-width="3"/>
  </g>
</svg>
