<svg xmlns="http://www.w3.org/2000/svg" xmlns:xlink="http://www.w3.org/1999/xlink" width="78" height="78" viewBox="0 0 78 78">
  <defs>
    <clipPath id="clip-path">
      <rect id="Retângulo_656" data-name="Retângulo 656" width="78" height="78" transform="translate(0 0)" fill="none"/>
    </clipPath>
  </defs>
  <g id="reduz_a_oleosidade" data-name="reduz a oleosidade" transform="translate(0 0.001)">
    <g id="reduz_a_oleosidade-2" data-name="reduz a oleosidade" transform="translate(0 -0.001)" clip-path="url(#clip-path)">
      <path id="Caminho_1328" data-name="Caminho 1328" d="M117.36,42.268c4,14.778,15.676,23.188,15.676,37.231a15.676,15.676,0,1,1-31.353,0C101.684,65.456,113.359,57.046,117.36,42.268Z" transform="translate(-71.502 -29.722)" fill="none" stroke="#f38599" stroke-linecap="round" stroke-linejoin="round" stroke-width="3"/>
      <path id="Caminho_1329" data-name="Caminho 1329" d="M75.7,56c-2.523-4.126-5.082-8.471-6.513-13.731-3.5,12.865-13.717,20.184-13.717,32.4A13.679,13.679,0,0,0,69.189,88.316" transform="translate(-39.007 -29.721)" fill="none" stroke="#f38599" stroke-linejoin="round" stroke-width="3"/>
      <path id="Caminho_1330" data-name="Caminho 1330" d="M72.7,157.093a9.7,9.7,0,0,1-4.023-7.852q0-.469.024-.929" transform="translate(-48.291 -104.29)" fill="none" stroke="#f38599" stroke-linecap="round" stroke-linejoin="round" stroke-width="3"/>
    </g>
  </g>
</svg>
