<svg xmlns="http://www.w3.org/2000/svg" xmlns:xlink="http://www.w3.org/1999/xlink" width="25.136" height="23.152" viewBox="0 0 25.136 23.152">
  <defs>
    <clipPath id="clip-path">
      <rect id="Retângulo_4" data-name="Retângulo 4" width="25.136" height="23.152" fill="#202020"/>
    </clipPath>
  </defs>
  <g id="CARRINHO" transform="translate(-14 -8.447)">
    <g id="Grupo_5" data-name="Grupo 5" transform="translate(14 8.447)" clip-path="url(#clip-path)">
      <path id="Caminho_21" data-name="Caminho 21" d="M22.83,7.4H10.283a1.043,1.043,0,0,1-1.14-.935,1.066,1.066,0,0,1,.881-1.227c.069-.006.138-.005.207-.005H24.037a1.013,1.013,0,0,1,1.089.923,1.593,1.593,0,0,1-.043.551q-.98,4.263-1.972,8.523A3.083,3.083,0,0,1,20,17.843q-4.736,0-9.472,0a3.091,3.091,0,0,1-3.118-2.565Q5.851,9.214,4.293,3.149c-.182-.707-.491-.962-1.178-.964s-1.4.012-2.1-.005A1.058,1.058,0,0,1,.032.827.955.955,0,0,1,.822.041,19.009,19.009,0,0,1,3.75.074a2.908,2.908,0,0,1,2.457,2.4q1.588,6.129,3.16,12.262a1.046,1.046,0,0,0,1.127.927q4.775,0,9.55,0a1.043,1.043,0,0,0,1.106-.921q.822-3.542,1.638-7.085c.016-.07.024-.143.042-.255" transform="translate(0 0)" fill="#202020"/>
      <path id="Caminho_22" data-name="Caminho 22" d="M251.067,264.32a1.626,1.626,0,1,1-1.6-1.761,1.7,1.7,0,0,1,1.6,1.761" transform="translate(-230.645 -242.906)" fill="#202020"/>
      <path id="Caminho_23" data-name="Caminho 23" d="M149.551,264.318a1.62,1.62,0,1,1-1.6-1.757,1.685,1.685,0,0,1,1.6,1.757" transform="translate(-136.178 -242.907)" fill="#202020"/>
    </g>
  </g>
</svg>
