<svg xmlns="http://www.w3.org/2000/svg" width="58" height="58" viewBox="0 0 58 58">
  <g id="ICONE-PIX" transform="translate(-675 -807)">
    <g id="Elipse_7" data-name="Elipse 7" transform="translate(675 807)" fill="none" stroke="#f38599" stroke-width="2">
      <circle cx="29" cy="29" r="29" stroke="none"/>
      <circle cx="29" cy="29" r="28" fill="none"/>
    </g>
    <g id="Camada_1" data-name="Camada 1" transform="translate(692.151 815.239)">
      <g id="Grupo_343" data-name="Grupo 343" transform="translate(0 -0.004)">
        <g id="Grupo_341" data-name="Grupo 341" transform="translate(0 25.165)">
          <path id="Caminho_1117" data-name="Caminho 1117" d="M.335,267.671A.335.335,0,0,1,0,267.335v-8.619a3.21,3.21,0,0,1,3.206-3.206l2.545,0a3.208,3.208,0,0,1,3.2,3.2v1.834a3.212,3.212,0,0,1-3.206,3.207h-3.6a.335.335,0,1,1,0-.671h3.6a2.539,2.539,0,0,0,2.536-2.537v-1.834a2.536,2.536,0,0,0-2.527-2.532l-2.544,0A2.539,2.539,0,0,0,.67,258.716v8.619a.335.335,0,0,1-.335.335Z" transform="translate(0 -253.303)" fill="#f38599"/>
          <path id="Caminho_1118" data-name="Caminho 1118" d="M86.527,263.787a.335.335,0,0,1-.335-.335v-6.438a.844.844,0,0,0-.843-.843h-1.1a.335.335,0,1,1,0-.671h1.1a1.516,1.516,0,0,1,1.514,1.514v6.438A.335.335,0,0,1,86.527,263.787Z" transform="translate(-74.921 -253.294)" fill="#f38599"/>
          <path id="Caminho_1119" data-name="Caminho 1119" d="M101.183,236.454l-.5-.5a.317.317,0,0,1,0-.449h0l.5-.5a.318.318,0,0,1,.45,0l.5.5a.317.317,0,0,1,0,.449h0l-.5.5a.318.318,0,0,1-.45,0h0" transform="translate(-89.815 -234.91)" fill="#f38599"/>
          <path id="Caminho_1120" data-name="Caminho 1120" d="M131.082,259.551h0a1.173,1.173,0,0,1-.837-.347l-2.56-2.56a1.775,1.775,0,0,0-1.264-.523h-1.1a.335.335,0,0,1,0-.671h1.1a2.44,2.44,0,0,1,1.738.719l2.56,2.56a.51.51,0,0,0,.363.151h0a.513.513,0,0,0,.361-.148l0,0L134,256.178a2.44,2.44,0,0,1,1.736-.719h.891a.335.335,0,1,1,0,.671h-.891a1.774,1.774,0,0,0-1.263.523l-2.548,2.547,0,0a1.178,1.178,0,0,1-.837.346Z" transform="translate(-111.601 -253.25)" fill="#f38599"/>
          <path id="Caminho_1121" data-name="Caminho 1121" d="M126.42,298.157h-1.095a.335.335,0,1,1,0-.671h1.095a1.775,1.775,0,0,0,1.264-.523l2.56-2.56a1.186,1.186,0,0,1,1.675,0l2.552,2.552a1.775,1.775,0,0,0,1.263.523h.891a.335.335,0,1,1,0,.671h-.891A2.444,2.444,0,0,1,134,297.43l-2.552-2.552a.515.515,0,0,0-.727,0l-2.56,2.56a2.445,2.445,0,0,1-1.738.72Z" transform="translate(-111.601 -287.721)" fill="#f38599"/>
        </g>
        <g id="Grupo_342" data-name="Grupo 342" transform="translate(1.303)">
          <path id="Caminho_1122" data-name="Caminho 1122" d="M68.371,124.382a3.32,3.32,0,0,1-2.363-.976l-3.414-3.416a.648.648,0,0,0-.9,0l-3.426,3.426a3.321,3.321,0,0,1-2.363.978H55.24l4.326,4.326a3.462,3.462,0,0,0,4.889,0l4.334-4.335-.418,0Z" transform="translate(-50.626 -106.975)" fill="#f38599"/>
          <path id="Caminho_1123" data-name="Caminho 1123" d="M55.91,5.331a3.325,3.325,0,0,1,2.363.978L61.7,9.735a.634.634,0,0,0,.9,0l3.413-3.413a3.317,3.317,0,0,1,2.363-.979h.411L64.447,1.009a3.455,3.455,0,0,0-4.888,0h0L55.24,5.331Z" transform="translate(-50.626 0.004)" fill="#f38599"/>
          <path id="Caminho_1124" data-name="Caminho 1124" d="M33.907,61.461l-2.619-2.619a.5.5,0,0,1-.186.037H29.91a2.348,2.348,0,0,0-1.653.685l-3.413,3.411a1.64,1.64,0,0,1-2.316,0L19.1,59.551a2.356,2.356,0,0,0-1.653-.686H15.988a.494.494,0,0,1-.176-.035l-2.636,2.631a3.462,3.462,0,0,0,0,4.889l2.63,2.63a.494.494,0,0,1,.176-.035h1.468a2.354,2.354,0,0,0,1.653-.686l3.426-3.426a1.679,1.679,0,0,1,2.317,0l3.413,3.412a2.35,2.35,0,0,0,1.653.685H31.1a.483.483,0,0,1,.186.037l2.619-2.619a3.455,3.455,0,0,0,0-4.888h0" transform="translate(-12.165 -52.528)" fill="#f38599"/>
        </g>
      </g>
    </g>
  </g>
</svg>
