<svg xmlns="http://www.w3.org/2000/svg" width="58" height="58" viewBox="0 0 58 58">
  <g id="ICONE-FRETE" transform="translate(-1275 -807)">
    <g id="Elipse_9" data-name="Elipse 9" transform="translate(1275 807)" fill="none" stroke="#f38599" stroke-width="2">
      <circle cx="29" cy="29" r="29" stroke="none"/>
      <circle cx="29" cy="29" r="28" fill="none"/>
    </g>
    <g id="TRUCK" transform="translate(1285.898 823.316)">
      <path id="TRUCK-2" data-name="TRUCK" d="M36.239,19.242a2.078,2.078,0,0,1-1.09,1.4,6.478,6.478,0,0,1-1.332.256,4.71,4.71,0,0,1-.645,0A4.223,4.223,0,0,1,31.25,24.6a4.084,4.084,0,0,1-2.764.65,4.238,4.238,0,0,1-3.73-4.307H10.877a4.2,4.2,0,0,1-1.8,3.586,4.152,4.152,0,0,1-2.81.735c-2.068-.15-3.427-1.682-3.795-4.31-.214-.02-.434-.034-.652-.064a2.008,2.008,0,0,1-1.773-1.9C.037,18.9.036,18.822.036,18.74q0-7.673,0-15.345A3.208,3.208,0,0,1,1.9.274,3.87,3.87,0,0,1,3.5-.073q8.449-.038,16.9-.012a3.316,3.316,0,0,1,3.479,3.5v.856h.441c1.178.012,2.358-.02,3.534.049A2.913,2.913,0,0,1,30.315,5.87c.725,1.3,1.375,2.651,2.08,3.97a1.09,1.09,0,0,0,.461.432,18.063,18.063,0,0,0,1.714.747,2.422,2.422,0,0,1,1.669,1.717ZM1.657,13.07h20.6V3.475A1.726,1.726,0,0,0,20.32,1.536q-8.378,0-16.755,0A2.655,2.655,0,0,0,2.9,1.6,1.7,1.7,0,0,0,1.659,3.362q-.005,4.72,0,9.44Zm0,1.659v3.925c0,.279-.012.561.338.648a.916.916,0,0,0,1.073-.292,3.976,3.976,0,0,1,3.6-2.095,3.969,3.969,0,0,1,3.632,2.1.516.516,0,0,0,.517.306q5.53-.014,11.059-.007c.115,0,.229-.01.355-.015V14.729Zm22.238,4.587c.33,0,.647-.019.959.006a.487.487,0,0,0,.517-.308,4.111,4.111,0,0,1,6.883-.469,1.559,1.559,0,0,0,1.654.771.83.83,0,0,1,.106,0c.489,0,.608-.115.608-.6,0-1.814,0-3.629.006-5.444a.641.641,0,0,0-.449-.671c-.7-.3-1.4-.62-2.1-.915a1.64,1.64,0,0,0-.61-.127c-2.391-.009-4.783-.006-7.174-.006h-.4Zm0-9.411h6.743c-.6-1.128-1.16-2.213-1.758-3.275a1.347,1.347,0,0,0-1.165-.693c-.987-.033-1.975-.033-2.963-.045-.279,0-.558,0-.855,0Zm5.094,8.632A2.569,2.569,0,1,0,31.55,21.1a2.581,2.581,0,0,0-2.562-2.566ZM9.251,21.1a2.561,2.561,0,1,0-2.562,2.57A2.561,2.561,0,0,0,9.251,21.1Z" transform="translate(-0.035 0.095)" fill="#f38599"/>
    </g>
  </g>
</svg>
