<svg id="PASSO_2" data-name="PASSO  2" xmlns="http://www.w3.org/2000/svg" xmlns:xlink="http://www.w3.org/1999/xlink" width="126" height="126" viewBox="0 0 126 126">
  <defs>
    <clipPath id="clip-path">
      <rect id="Retângulo_708" data-name="Retângulo 708" width="126" height="126" fill="none"/>
    </clipPath>
  </defs>
  <g id="Grupo_933" data-name="Grupo 933" clip-path="url(#clip-path)">
    <path id="Caminho_1630" data-name="Caminho 1630" d="M110.27,173.051a9.425,9.425,0,0,0,10.154,0" transform="translate(-53.336 -83.702)" fill="none" stroke="#fef8f9" stroke-width="2"/>
    <path id="Caminho_1631" data-name="Caminho 1631" d="M143.266,132.516c-2.012-2.173-7.195-3.056-10.794.829" transform="translate(-64.075 -63.198)" fill="none" stroke="#fef8f9" stroke-width="2"/>
    <path id="Caminho_1632" data-name="Caminho 1632" d="M140.992,134.618a.989.989,0,1,0,.989-1.019A1,1,0,0,0,140.992,134.618Z" transform="translate(-68.196 -64.62)" fill="none" stroke="#fef8f9" stroke-width="2"/>
    <path id="Caminho_1633" data-name="Caminho 1633" d="M86.829,132.516c2.012-2.173,7.195-3.056,10.794.829" transform="translate(-41.998 -63.198)" fill="none" stroke="#fef8f9" stroke-width="2"/>
    <path id="Caminho_1634" data-name="Caminho 1634" d="M97.362,134.618a.989.989,0,1,1-.989-1.019A1,1,0,0,1,97.362,134.618Z" transform="translate(-46.136 -64.62)" fill="none" stroke="#fef8f9" stroke-width="2"/>
    <path id="Caminho_1635" data-name="Caminho 1635" d="M134.78,120.438a18.756,18.756,0,0,1,7.515,0" transform="translate(-65.191 -58.068)" fill="none" stroke="#fef8f9" stroke-width="2"/>
    <path id="Caminho_1636" data-name="Caminho 1636" d="M98.561,120.438a18.756,18.756,0,0,0-7.515,0" transform="translate(-44.038 -58.068)" fill="none" stroke="#fef8f9" stroke-width="2"/>
    <path id="Caminho_1637" data-name="Caminho 1637" d="M67.419,130.872c-8.673,1.459-11.185-19.4-1.668-17.087" transform="translate(-28.864 -54.949)" fill="none" stroke="#fef8f9" stroke-width="2"/>
    <path id="Caminho_1638" data-name="Caminho 1638" d="M115.865,156.544a4.454,4.454,0,0,0,4.551,0" transform="translate(-56.042 -75.718)" fill="none" stroke="#fef8f9" stroke-width="2"/>
    <path id="Caminho_1639" data-name="Caminho 1639" d="M101.366,187.269a48.286,48.286,0,0,1,0,8.216" transform="translate(-49.029 -90.579)" fill="none" stroke="#fef8f9" stroke-width="2"/>
    <path id="Caminho_1640" data-name="Caminho 1640" d="M165.947,130.868c8.673,1.459,11.185-19.4,1.668-17.087" transform="translate(-80.266 -54.947)" fill="none" stroke="#fef8f9" stroke-width="2"/>
    <path id="Caminho_1641" data-name="Caminho 1641" d="M96.58,142.854c5.4,0,13.571-6.342,17.508-11.931a41.093,41.093,0,0,0,6.032-12.961c.072-.215.12-.431.179-.646.072-.263.144-.526.2-.789,1.03-4.2,1.7-14.718,1.286-15.651C120.1,97.058,113.9,86.92,96.58,86.92l-.048,0c-17.316,0-23.52,10.138-25.208,13.955-.419.934.256,11.451,1.286,15.652.06.263.132.527.2.79.06.215.107.431.179.646a41.09,41.09,0,0,0,6.032,12.96c3.937,5.589,12.111,11.932,17.508,11.932" transform="translate(-34.438 -42.042)" fill="none" stroke="#fef8f9" stroke-width="2"/>
    <path id="Caminho_1642" data-name="Caminho 1642" d="M95.2,55.1c25.822,0,29.672,22.38,25.208,30.386-.012-.024-.607-19.2-25.208-19.993l-.048,0c-24.6.8-25.2,19.968-25.208,19.992C65.485,77.478,69.335,55.1,95.156,55.1Z" transform="translate(-33.062 -26.649)" fill="none" stroke="#fef8f9" stroke-width="2"/>
    <path id="Caminho_1643" data-name="Caminho 1643" d="M90.545,49a4.36,4.36,0,0,1-.574-2.338c0-5.888,7.18-10.435,15.641-10.435l.048,0c8.46,0,15.641,4.548,15.641,10.435a4.385,4.385,0,0,1-.657,2.483" transform="translate(-43.518 -17.523)" fill="none" stroke="#fef8f9" stroke-width="2"/>
    <path id="Caminho_1644" data-name="Caminho 1644" d="M139.086,187.264a48.287,48.287,0,0,0,0,8.216" transform="translate(-67.187 -90.577)" fill="none" stroke="#fef8f9" stroke-width="2"/>
    <line id="Linha_41" data-name="Linha 41" y1="12.007" transform="translate(62.056 50.404)" fill="none" stroke="#fef8f9" stroke-width="2"/>
    <line id="Linha_42" data-name="Linha 42" x1="4.013" y1="3.817" transform="translate(62.056 50.404)" fill="none" stroke="#fef8f9" stroke-width="2"/>
    <line id="Linha_43" data-name="Linha 43" y1="3.817" x2="4.013" transform="translate(58.043 50.404)" fill="none" stroke="#fef8f9" stroke-width="2"/>
    <path id="Caminho_1645" data-name="Caminho 1645" d="M61.92,161.593c-6.89-2.575-12.783-12.1-15.1-19.548" transform="translate(-22.645 -68.705)" fill="none" stroke="#fef8f9" stroke-width="2"/>
    <line id="Linha_44" data-name="Linha 44" x1="5.044" y1="2.287" transform="translate(24.172 73.34)" fill="none" stroke="#fef8f9" stroke-width="2"/>
    <line id="Linha_45" data-name="Linha 45" y1="4.923" x2="2.537" transform="translate(21.636 73.34)" fill="none" stroke="#fef8f9" stroke-width="2"/>
    <path id="Caminho_1646" data-name="Caminho 1646" d="M164.713,161.745c6.89-2.575,12.783-12.1,15.1-19.548" transform="translate(-79.669 -68.779)" fill="none" stroke="#fef8f9" stroke-width="2"/>
    <line id="Linha_46" data-name="Linha 46" y1="2.287" x2="5.044" transform="translate(95.102 73.419)" fill="none" stroke="#fef8f9" stroke-width="2"/>
    <line id="Linha_47" data-name="Linha 47" x1="2.537" y1="4.923" transform="translate(100.147 73.419)" fill="none" stroke="#fef8f9" stroke-width="2"/>
    <line id="Linha_48" data-name="Linha 48" x1="7.266" y2="7.266" transform="translate(47.982 76.586)" fill="none" stroke="#fef8f9" stroke-width="2"/>
    <line id="Linha_49" data-name="Linha 49" x2="0.119" y2="4.738" transform="translate(47.863 79.114)" fill="none" stroke="#fef8f9" stroke-width="2"/>
    <line id="Linha_50" data-name="Linha 50" x1="4.738" y1="0.119" transform="translate(47.982 83.852)" fill="none" stroke="#fef8f9" stroke-width="2"/>
    <line id="Linha_51" data-name="Linha 51" x2="7.266" y2="7.266" transform="translate(68.948 76.527)" fill="none" stroke="#fef8f9" stroke-width="2"/>
    <line id="Linha_52" data-name="Linha 52" x1="0.119" y2="4.738" transform="translate(76.214 79.055)" fill="none" stroke="#fef8f9" stroke-width="2"/>
    <line id="Linha_53" data-name="Linha 53" y1="0.119" x2="4.738" transform="translate(71.477 83.793)" fill="none" stroke="#fef8f9" stroke-width="2"/>
    <path id="Caminho_1647" data-name="Caminho 1647" d="M63,0a63,63,0,1,0,63,63A63,63,0,0,0,63,0m0,123.408A60.407,60.407,0,1,1,123.407,63,60.407,60.407,0,0,1,63,123.408" fill="#fef8f9"/>
  </g>
</svg>
