<svg id="PASSO_3" data-name="PASSO 3" xmlns="http://www.w3.org/2000/svg" xmlns:xlink="http://www.w3.org/1999/xlink" width="126" height="126" viewBox="0 0 126 126">
  <defs>
    <clipPath id="clip-path">
      <rect id="Retângulo_713" data-name="Retângulo 713" width="126" height="126" fill="none"/>
    </clipPath>
  </defs>
  <g id="Grupo_934" data-name="Grupo 934" clip-path="url(#clip-path)">
    <path id="Caminho_1648" data-name="Caminho 1648" d="M63,0a63,63,0,1,0,63,63A63,63,0,0,0,63,0m0,123.408A60.407,60.407,0,1,1,123.407,63,60.407,60.407,0,0,1,63,123.408" fill="#fef8f9"/>
    <path id="Caminho_1649" data-name="Caminho 1649" d="M113.176,124.5H87.033v-.912c0-4.247-.007-8.493.008-12.741a1.509,1.509,0,0,0-.524-1.258A13.308,13.308,0,0,1,83.34,104.2a64.793,64.793,0,0,1-2.929-11.5,178.5,178.5,0,0,1-2.444-20.58c-.5-8.392-.863-16.792-1.281-25.188-.017-.343,0-.688,0-1.073h46.808c0,.386.013.757,0,1.127-.249,6.187-.41,12.379-.775,18.559a234.977,234.977,0,0,1-2.91,26.97,61.815,61.815,0,0,1-3.167,12.192,12.632,12.632,0,0,1-3.242,5.164,1.187,1.187,0,0,0-.212.8q-.019,6.451-.009,12.9ZM79.313,53.793c0,.3-.01.534,0,.769.145,2.97.256,5.942.448,8.909.244,3.775.492,7.552.854,11.316.4,4.111.894,8.213,1.4,12.312a95.555,95.555,0,0,0,2.623,13.734,20.011,20.011,0,0,0,2.531,6.1,2.814,2.814,0,0,0,2.556,1.372c6.732-.052,13.468-.108,20.2.027a3.7,3.7,0,0,0,3.711-2.251c.19-.357.371-.72.53-1.091a52.255,52.255,0,0,0,3.226-12.328c.6-3.619,1.088-7.258,1.52-10.9s.784-7.3,1.076-10.965c.313-3.933.549-7.872.753-11.812.089-1.712.015-3.433.015-5.238h-4.443V51.468c1.411,0,2.761.021,4.11-.021.228-.007.631-.274.641-.441.062-.96.03-1.926.03-2.884H79.134V51.5H112.81v2.3ZM110.8,110.752H89.39v7.987c1.521,0,2.98-.038,4.436.015a2.739,2.739,0,0,0,2.144-.7,2.581,2.581,0,0,1,1.992-.661c1.647.051,3.3-.012,4.943.035a3.117,3.117,0,0,1,1.251.4c.5.254.939.824,1.43.854,1.716.108,3.443.042,5.214.042ZM89.36,122.207h21.426v-1.1c-1.843,0-3.625.013-5.407-.012a1.545,1.545,0,0,1-.968-.275,4.547,4.547,0,0,0-3.8-1.13c-.723.067-1.465-.044-2.187.031a2.748,2.748,0,0,0-1.389.468,4.1,4.1,0,0,1-2.977.94c-1.554-.086-3.115-.021-4.695-.021Z" transform="translate(-37.088 -22.18)" fill="#fef8f9"/>
    <path id="Caminho_1650" data-name="Caminho 1650" d="M113.032,95.992a9.6,9.6,0,1,1-9.628,9.562,9.622,9.622,0,0,1,9.628-9.562m-7.287,9.6a7.27,7.27,0,1,0,7.249-7.283,7.327,7.327,0,0,0-7.249,7.283" transform="translate(-50.015 -46.43)" fill="#fef8f9"/>
    <rect id="Retângulo_709" data-name="Retângulo 709" width="2.227" height="3.516" transform="translate(61.944 44.389)" fill="#fef8f9"/>
    <rect id="Retângulo_710" data-name="Retângulo 710" width="2.25" height="3.488" transform="translate(61.924 70.432)" fill="#fef8f9"/>
    <path id="Caminho_1651" data-name="Caminho 1651" d="M102.877,128.568l1.365,1.455-2.457,2.48-1.445-1.452,2.538-2.484" transform="translate(-48.532 -62.186)" fill="#fef8f9"/>
    <rect id="Retângulo_711" data-name="Retângulo 711" width="3.537" height="2.173" transform="translate(74.26 58.113)" fill="#fef8f9"/>
    <path id="Caminho_1652" data-name="Caminho 1652" d="M137.622,96.961l-1.47-1.442,2.55-2.48,1.421,1.425-2.5,2.5" transform="translate(-65.855 -45.002)" fill="#fef8f9"/>
    <path id="Caminho_1653" data-name="Caminho 1653" d="M100.541,94.469l1.421-1.437,2.41,2.431-1.486,1.5-2.345-2.49" transform="translate(-48.63 -44.998)" fill="#fef8f9"/>
    <path id="Caminho_1654" data-name="Caminho 1654" d="M137.442,128.54l2.459,2.382-1.5,1.469L136,129.981l1.446-1.441" transform="translate(-65.779 -62.173)" fill="#fef8f9"/>
    <rect id="Retângulo_712" data-name="Retângulo 712" width="3.5" height="2.165" transform="translate(48.209 58.125)" fill="#fef8f9"/>
  </g>
</svg>
