<svg id="SCOOP" xmlns="http://www.w3.org/2000/svg" xmlns:xlink="http://www.w3.org/1999/xlink" width="72.999" height="63.244" viewBox="0 0 72.999 63.244">
  <defs>
    <clipPath id="clip-path">
      <rect id="Retângulo_695" data-name="Retângulo 695" width="72.999" height="63.244" fill="#f38599"/>
    </clipPath>
  </defs>
  <g id="Grupo_871" data-name="Grupo 871" clip-path="url(#clip-path)">
    <path id="Caminho_1326" data-name="Caminho 1326" d="M0,140.984A1.708,1.708,0,0,1,1.938,140a2.146,2.146,0,0,0,2.149-.974c3.068-3.75,6.214-7.437,9.312-11.162a7.053,7.053,0,0,1,11.226-.081q4.925,5.821,9.789,11.694a1.308,1.308,0,0,0,1.137.527q17.749-.02,35.5-.01c1.52,0,1.948.426,1.948,1.935q0,3.849,0,7.7c0,1.16-.519,1.707-1.691,1.709q-5.667.01-11.333-.02c-1.1-.006-1.713-.576-1.691-1.488.022-.9.66-1.41,1.77-1.41q4.633,0,9.267,0h.795v-5.513H3.039L4.7,158.5h29.68q.207-1.893.414-3.792c.179-1.627.341-3.256.545-4.88a1.406,1.406,0,0,1,1.505-1.394q4.954-.033,9.908-.008a1.4,1.4,0,0,1,1.468,1.42,1.413,1.413,0,0,1-1.566,1.466c-2.518.032-5.037.024-7.555.031H38.076c-.149,1.333-.29,2.643-.442,3.952-.276,2.378-.407,4.786-.87,7.128a9.8,9.8,0,0,1-9.431,7.929c-5.3.1-10.6.091-15.894-.014A10.061,10.061,0,0,1,2.149,161.7C1.56,156.271,1,150.844.412,145.42.3,144.413.139,143.413,0,142.41v-1.426m30.963-1.009c-.031-.122-.029-.176-.055-.207-2.911-3.474-5.8-6.964-8.757-10.4a4.466,4.466,0,0,0-1.808-1.19c-1.774-.647-3.394-.047-4.821,1.653q-4.029,4.8-8.048,9.6c-.125.149-.225.319-.379.541Zm-25.872,21.5a5.414,5.414,0,0,0,.064.575A7.289,7.289,0,0,0,12,167.5q7.553.032,15.106,0a6.8,6.8,0,0,0,4.435-1.68,6.946,6.946,0,0,0,2.49-4.35Z" transform="translate(0 -107.176)" fill="#f38599"/>
    <path id="Caminho_1327" data-name="Caminho 1327" d="M226.507,83.472a1.425,1.425,0,0,1,.866-1.354c1.185-.646,2.379-1.28,3.547-1.955a2.074,2.074,0,0,0,.728-.722c.665-1.147,1.288-2.319,1.919-3.485A1.526,1.526,0,0,1,234.945,75a1.505,1.505,0,0,1,1.39.938,16.607,16.607,0,0,1,.871,1.628,6.128,6.128,0,0,0,3.628,3.628,12.677,12.677,0,0,1,1.682.918,1.446,1.446,0,0,1,.023,2.687c-1.132.644-2.3,1.231-3.416,1.9a2.752,2.752,0,0,0-.921.909c-.622,1.034-1.189,2.1-1.751,3.172-.326.619-.719,1.15-1.48,1.157-.8.008-1.192-.553-1.528-1.195-.56-1.07-1.131-2.136-1.751-3.172a2.587,2.587,0,0,0-.874-.867c-1.122-.66-2.279-1.262-3.423-1.885a1.443,1.443,0,0,1-.888-1.342m8.447-3.976a6.436,6.436,0,0,1-3.991,3.975,6.419,6.419,0,0,1,4.01,3.974,6.25,6.25,0,0,1,3.985-3.977,6.429,6.429,0,0,1-4-3.972" transform="translate(-194.149 -64.286)" fill="#f38599"/>
    <path id="Caminho_1328" data-name="Caminho 1328" d="M140.65,0a5.554,5.554,0,0,1,1.15,1c.569.87,1,1.83,1.535,2.724a2.343,2.343,0,0,0,.778.769c.852.512,1.732.982,2.614,1.442a1.52,1.52,0,0,1,.947,1.39,1.536,1.536,0,0,1-.964,1.382c-.818.429-1.65.841-2.425,1.34a3.627,3.627,0,0,0-1.063,1.07c-.508.8-.907,1.664-1.379,2.486a1.418,1.418,0,0,1-2.665-.035,8.88,8.88,0,0,0-4.951-4.938A1.383,1.383,0,0,1,134.25,6a8.624,8.624,0,0,0,4.924-4.959A1.748,1.748,0,0,1,140.65,0M140.5,4.662a4.721,4.721,0,0,1-2.654,2.687A4.477,4.477,0,0,1,140.529,10a4.25,4.25,0,0,1,2.821-2.694A4.336,4.336,0,0,1,140.5,4.662" transform="translate(-114.237 0.001)" fill="#f38599"/>
    <path id="Caminho_1329" data-name="Caminho 1329" d="M365.3,290.15a1.42,1.42,0,0,1-1.459,1.419,1.453,1.453,0,0,1-1.418-1.4,1.5,1.5,0,0,1,1.441-1.473,1.45,1.45,0,0,1,1.436,1.457" transform="translate(-310.651 -247.451)" fill="#f38599"/>
  </g>
</svg>
