<svg xmlns="http://www.w3.org/2000/svg" xmlns:xlink="http://www.w3.org/1999/xlink" width="29.272" height="29.267" viewBox="0 0 29.272 29.267">
  <defs>
    <clipPath id="clip-path">
      <rect id="Retângulo_706" data-name="Retângulo 706" width="29.272" height="29.267" fill="#f9b5c3"/>
    </clipPath>
  </defs>
  <g id="SOL" clip-path="url(#clip-path)">
    <path id="Caminho_1590" data-name="Caminho 1590" d="M0,72.068A.845.845,0,0,1,.879,71.6c.855.023,1.711,0,2.566.008.486,0,.768.258.767.685a.682.682,0,0,1-.767.692c-.855,0-1.711-.014-2.566.007A.817.817,0,0,1,0,72.469Z" transform="translate(0 -57.667)" fill="#f9b5c3"/>
    <path id="Caminho_1591" data-name="Caminho 1591" d="M72.165,132.945a.858.858,0,0,1-.531-.932c.027-.866,0-1.734.013-2.6a.67.67,0,0,1,.953-.634.615.615,0,0,1,.416.594c.008.962,0,1.925,0,2.887,0,.353-.245.529-.511.686Z" transform="translate(-57.697 -103.678)" fill="#f9b5c3"/>
    <path id="Caminho_1592" data-name="Caminho 1592" d="M47.248,38.328a8.892,8.892,0,1,1-8.869-8.907,8.873,8.873,0,0,1,8.869,8.907m-16.382-.016a7.5,7.5,0,1,0,7.506-7.49,7.495,7.495,0,0,0-7.506,7.49" transform="translate(-23.732 -23.697)" fill="#f9b5c3"/>
    <path id="Caminho_1593" data-name="Caminho 1593" d="M103.033,124.13a.746.746,0,0,1-.488.744.7.7,0,0,1-.812-.326c-.268-.448-.518-.906-.776-1.36-.206-.363-.418-.723-.618-1.09a.639.639,0,0,1,.233-.932.653.653,0,0,1,.956.247c.484.816.954,1.642,1.423,2.467a1,1,0,0,1,.081.251" transform="translate(-80.731 -97.501)" fill="#f9b5c3"/>
    <path id="Caminho_1594" data-name="Caminho 1594" d="M124.94,102.218a.67.67,0,0,1-.963.675c-.878-.47-1.737-.977-2.59-1.492a.682.682,0,0,1,.717-1.155c.838.465,1.67.941,2.5,1.42a.61.61,0,0,1,.335.552" transform="translate(-97.54 -80.671)" fill="#f9b5c3"/>
    <path id="Caminho_1595" data-name="Caminho 1595" d="M121.868,38.553a.677.677,0,0,1-.69-.479.62.62,0,0,1,.226-.759q1.3-.771,2.617-1.5a.682.682,0,0,1,.679,1.17c-.871.521-1.757,1.02-2.639,1.522a.6.6,0,0,1-.193.05" transform="translate(-97.568 -28.784)" fill="#f9b5c3"/>
    <path id="Caminho_1596" data-name="Caminho 1596" d="M12.729,100.161a.691.691,0,0,1,.664.42.609.609,0,0,1-.078.694.826.826,0,0,1-.214.187q-1.206.706-2.418,1.4a.669.669,0,0,1-.754-.015.615.615,0,0,1-.276-.7.849.849,0,0,1,.319-.472c.813-.493,1.643-.957,2.471-1.424a1.29,1.29,0,0,1,.287-.1" transform="translate(-7.755 -80.675)" fill="#f9b5c3"/>
    <path id="Caminho_1597" data-name="Caminho 1597" d="M100.249,12.64a1.1,1.1,0,0,1,.086-.255c.467-.827.935-1.654,1.417-2.472a.665.665,0,0,1,.962-.235.639.639,0,0,1,.263.885q-.705,1.255-1.444,2.49a.658.658,0,0,1-.785.311.707.707,0,0,1-.5-.723" transform="translate(-80.746 -7.703)" fill="#f9b5c3"/>
    <path id="Caminho_1598" data-name="Caminho 1598" d="M36.534,124.96a.741.741,0,0,1-.659-1.03c.476-.877.982-1.739,1.5-2.6a.611.611,0,0,1,.881-.174.621.621,0,0,1,.293.851c-.483.874-.979,1.742-1.5,2.594-.1.162-.337.238-.511.354" transform="translate(-28.836 -97.501)" fill="#f9b5c3"/>
    <path id="Caminho_1599" data-name="Caminho 1599" d="M12.635,38.626a2.243,2.243,0,0,1-.34-.14q-1.161-.664-2.315-1.342a.692.692,0,0,1-.333-.959.7.7,0,0,1,1.01-.24q1.2.685,2.388,1.386a.647.647,0,0,1,.334.772.7.7,0,0,1-.745.524" transform="translate(-7.701 -28.857)" fill="#f9b5c3"/>
    <path id="Caminho_1600" data-name="Caminho 1600" d="M36.58,9.281c.165.124.386.213.487.376.507.825.991,1.665,1.467,2.508a.685.685,0,0,1-1.189.679c-.5-.831-.989-1.666-1.457-2.514a.743.743,0,0,1,.692-1.049" transform="translate(-28.839 -7.475)" fill="#f9b5c3"/>
    <path id="Caminho_1601" data-name="Caminho 1601" d="M130.89,71.633c.466,0,.932-.005,1.4,0a.655.655,0,0,1,.713.68.668.668,0,0,1-.706.694q-1.4.008-2.8,0a.672.672,0,0,1-.715-.687.657.657,0,0,1,.708-.686c.466-.008.932,0,1.4,0" transform="translate(-103.73 -57.695)" fill="#f9b5c3"/>
    <path id="Caminho_1602" data-name="Caminho 1602" d="M71.674,2.1c0-.467-.007-.933,0-1.4a.656.656,0,0,1,.7-.7.667.667,0,0,1,.678.723q.006,1.371,0,2.742a.7.7,0,0,1-.689.753.693.693,0,0,1-.687-.75c-.006-.457,0-.914,0-1.371Z" transform="translate(-57.728 0)" fill="#f9b5c3"/>
    <path id="Caminho_1603" data-name="Caminho 1603" d="M46.672,77.864a1.056,1.056,0,0,1-.275-.092A6.107,6.107,0,0,1,43.3,73.038a5.343,5.343,0,0,1-.047-.654.658.658,0,0,1,.645-.7.642.642,0,0,1,.727.631,5.661,5.661,0,0,0,.4,1.944,4.9,4.9,0,0,0,2,2.285.708.708,0,0,1,.411.636.683.683,0,0,1-.763.68" transform="translate(-34.84 -57.74)" fill="#f9b5c3"/>
  </g>
</svg>
