<svg id="passo_2" data-name="passo 2" xmlns="http://www.w3.org/2000/svg" xmlns:xlink="http://www.w3.org/1999/xlink" width="136" height="136" viewBox="0 0 136 136">
  <defs>
    <clipPath id="clip-path">
      <rect id="Retângulo_702" data-name="Retângulo 702" width="136" height="136" fill="none"/>
    </clipPath>
  </defs>
  <g id="passo_2-2" data-name="passo 2" clip-path="url(#clip-path)">
    <path id="Caminho_1514" data-name="Caminho 1514" d="M68,0a68,68,0,1,0,68,68A68,68,0,0,0,68,0m0,133.2A65.2,65.2,0,1,1,133.2,68,65.2,65.2,0,0,1,68,133.2" fill="#b84955"/>
    <path id="Caminho_1515" data-name="Caminho 1515" d="M65.237,132.364a.291.291,0,0,1,0,.1,10.231,10.231,0,0,0,1.858,6.013,3.706,3.706,0,0,0,3.142,1.543,1.929,1.929,0,0,0,.968-.3.042.042,0,0,0,.034-.011" transform="translate(-28.881 -58.599)" fill="none" stroke="#b84955" stroke-width="3"/>
    <path id="Caminho_1516" data-name="Caminho 1516" d="M161.737,132.4v.022a10.108,10.108,0,0,1-1.869,6.07,3.694,3.694,0,0,1-3.142,1.543,2.69,2.69,0,0,1-1.126-.417" transform="translate(-68.885 -58.616)" fill="none" stroke="#b84955" stroke-width="3"/>
    <path id="Caminho_1517" data-name="Caminho 1517" d="M111.893,153.849a4.2,4.2,0,0,0,4.287,0" transform="translate(-49.536 -68.11)" fill="none" stroke="#b84955" stroke-width="3"/>
    <path id="Caminho_1518" data-name="Caminho 1518" d="M107.167,168.146a8.87,8.87,0,0,0,9.555,0" transform="translate(-47.444 -74.439)" fill="none" stroke="#b84955" stroke-width="3"/>
    <path id="Caminho_1519" data-name="Caminho 1519" d="M157.333,121.069v.833a52.847,52.847,0,0,1-1.408,11.464c-.056.248-.124.5-.191.743-.045.169-.09.338-.135.5" transform="translate(-68.885 -53.598)" fill="none" stroke="#b84955" stroke-width="3"/>
    <path id="Caminho_1520" data-name="Caminho 1520" d="M72.753,117.633v1.205a53.536,53.536,0,0,0,1.419,13.006c.056.248.124.5.191.743A38.909,38.909,0,0,0,80.208,145.4c3.716,5.258,11.407,11.238,16.5,11.238,2.669,0,6.047-1.645,9.2-3.953" transform="translate(-32.208 -52.077)" fill="none" stroke="#b84955" stroke-width="3"/>
    <path id="Caminho_1521" data-name="Caminho 1521" d="M102.115,79c2.222,11.163,6.315,12.279,12.686,15.628v.012c3.128,1.641,4.95,5.09,5.973,8.071a.181.181,0,0,0,.022.072,30.232,30.232,0,0,0-8.5-30.666c-7.686-7.3-25.768-10.208-37.758-1.062-8.884,6.777-13.9,18.381-10.255,31.727a.258.258,0,0,0,0-.1c1.189-4.583,1.94-7.923,5.954-9.619,10.994-4.647,24.336.7,29.9-9.284a22.571,22.571,0,0,0,1.945-4.647.578.578,0,0,0,.035-.135" transform="translate(-27.928 -28.923)" fill="none" stroke="#b84955" stroke-width="3"/>
    <path id="Caminho_1522" data-name="Caminho 1522" d="M90.03,61.217a4.233,4.233,0,0,1-.727-2.528c0-5.548,6.768-9.837,14.745-9.837s15.07,4.217,14.742,9.837a8.43,8.43,0,0,1-.512,1.973" transform="translate(-39.535 -21.627)" fill="none" stroke="#b84955" stroke-width="3"/>
    <path id="Caminho_1523" data-name="Caminho 1523" d="M99.241,180.661a45.493,45.493,0,0,1,0,7.739" transform="translate(-43.935 -79.98)" fill="none" stroke="#b84955" stroke-width="3"/>
    <path id="Caminho_1524" data-name="Caminho 1524" d="M132.105,180.529a46.5,46.5,0,0,0,0,7.812" transform="translate(-58.409 -79.922)" fill="none" stroke="#b84955" stroke-width="3"/>
    <path id="Caminho_1525" data-name="Caminho 1525" d="M136.679,132.937c-1.894-2.045-6.77-2.876-10.157.78" transform="translate(-56.012 -58.078)" fill="none" stroke="#b84955" stroke-width="3"/>
    <path id="Caminho_1526" data-name="Caminho 1526" d="M86.731,132.937c1.894-2.045,6.77-2.876,10.157.78" transform="translate(-38.396 -58.078)" fill="none" stroke="#b84955" stroke-width="3"/>
    <ellipse id="Elipse_22" data-name="Elipse 22" cx="0.931" cy="0.959" rx="0.931" ry="0.959" transform="translate(52.491 74.539)" fill="none" stroke="#b84955" stroke-width="3"/>
    <path id="Caminho_1527" data-name="Caminho 1527" d="M128.534,122.3a17.663,17.663,0,0,1,7.072,0" transform="translate(-56.903 -53.985)" fill="none" stroke="#b84955" stroke-width="3"/>
    <path id="Caminho_1528" data-name="Caminho 1528" d="M97.479,122.3a17.663,17.663,0,0,0-7.072,0" transform="translate(-40.024 -53.985)" fill="none" stroke="#b84955" stroke-width="3"/>
    <path id="Caminho_1529" data-name="Caminho 1529" d="M132.632,157.416s-4-3.234-3.771-7.055a4.732,4.732,0,0,1,1.579-3.04c2.773-2.685.9-6,4.259-6.516,3.66-.563,4.809,3.8,4.809,3.8" transform="translate(-57.043 -62.313)" fill="none" stroke="#b84955" stroke-width="3"/>
    <path id="Caminho_1530" data-name="Caminho 1530" d="M177.257,114.84c-.011-.124-.011-.259-.011-.383,0-.3.011-.608.022-.9.18-6.295,2.894-11.294,6.227-11.294,2.647,0,4.921,3.175,5.822,7.668" transform="translate(-78.468 -45.272)" fill="none" stroke="#b84955" stroke-width="3"/>
    <path id="Caminho_1531" data-name="Caminho 1531" d="M177.268,124.116c-.011.293-.022.6-.022.9q0,.541.033,1.048c.011.247.034.484.056.732.428,4,2.275,7.016,4.493,7.016,2.308,0,4.223-3.289,4.538-7.545" transform="translate(-78.468 -54.947)" fill="none" stroke="#b84955" stroke-width="3"/>
    <line id="Linha_27" data-name="Linha 27" x2="4.619" y2="2.865" transform="translate(106.236 61.802)" fill="none" stroke="#b84955" stroke-width="3"/>
    <line id="Linha_28" data-name="Linha 28" x1="1.516" y2="5.22" transform="translate(110.856 59.447)" fill="none" stroke="#b84955" stroke-width="3"/>
    <path id="Caminho_1532" data-name="Caminho 1532" d="M153.6,165.721c-.376-.681-.618-1.453-.892-1.948a.03.03,0,0,0-.008-.018c-2.12-3.745-7.959-10.91-9.51-9.788-2.239,1.623-2.793,8.841-1.487,12.708a32.725,32.725,0,0,0,3.318,6.547c.5,1.054,1.491,2.4,2.229,3.663" transform="translate(-62.424 -68.11)" fill="none" stroke="#b84955" stroke-width="3"/>
    <path id="Caminho_1533" data-name="Caminho 1533" d="M164.022,175.781a4.052,4.052,0,0,1-.421-.631" transform="translate(-72.427 -77.54)" fill="none" stroke="#b84955" stroke-width="3"/>
    <path id="Caminho_1534" data-name="Caminho 1534" d="M161.535,166.256a.027.027,0,0,0-.008-.017c-.127-.377-1.939-6.025,1.583-6.78.719.193.949,2.71,2.207,4.438.562.947.61,2.842,1.1,4.823a30.555,30.555,0,0,1,.694,4.808,19.031,19.031,0,0,1-.575,5.841" transform="translate(-71.253 -70.594)" fill="none" stroke="#b84955" stroke-width="3"/>
  </g>
</svg>
