<svg id="passo_1" data-name="passo 1" xmlns="http://www.w3.org/2000/svg" xmlns:xlink="http://www.w3.org/1999/xlink" width="136.704" height="136.704" viewBox="0 0 136.704 136.704">
  <defs>
    <clipPath id="clip-path">
      <rect id="Retângulo_701" data-name="Retângulo 701" width="136.704" height="136.704" fill="none"/>
    </clipPath>
  </defs>
  <g id="passo_1-2" data-name="passo 1" clip-path="url(#clip-path)">
    <path id="Caminho_1489" data-name="Caminho 1489" d="M68.352,0A68.352,68.352,0,1,0,136.7,68.352,68.352,68.352,0,0,0,68.352,0m0,133.891a65.539,65.539,0,1,1,65.539-65.539,65.539,65.539,0,0,1-65.539,65.539" fill="#b84955"/>
    <path id="Caminho_1490" data-name="Caminho 1490" d="M50.632,133.382a.3.3,0,0,1,0,.109,10.953,10.953,0,0,0,1.99,6.44,3.968,3.968,0,0,0,3.365,1.653,2.071,2.071,0,0,0,1.037-.325.043.043,0,0,0,.036-.012" transform="translate(-22.269 -58.665)" fill="none" stroke="#b84955" stroke-width="3"/>
    <path id="Caminho_1491" data-name="Caminho 1491" d="M153.494,133.425v.024a10.825,10.825,0,0,1-2,6.5,3.955,3.955,0,0,1-3.365,1.653,2.89,2.89,0,0,1-1.207-.446" transform="translate(-64.619 -58.683)" fill="none" stroke="#b84955" stroke-width="3"/>
    <path id="Caminho_1492" data-name="Caminho 1492" d="M100.348,156.276a4.494,4.494,0,0,0,4.591,0" transform="translate(-44.135 -68.734)" fill="none" stroke="#b84955" stroke-width="3"/>
    <path id="Caminho_1493" data-name="Caminho 1493" d="M95.312,171.511a9.5,9.5,0,0,0,10.234,0" transform="translate(-41.92 -75.435)" fill="none" stroke="#b84955" stroke-width="3"/>
    <path id="Caminho_1494" data-name="Caminho 1494" d="M148.778,121.346v.892a56.658,56.658,0,0,1-1.507,12.278c-.061.266-.133.531-.205.8-.049.181-.1.362-.145.531" transform="translate(-64.619 -53.371)" fill="none" stroke="#b84955" stroke-width="3"/>
    <path id="Caminho_1495" data-name="Caminho 1495" d="M58.641,117.686v1.291a57.348,57.348,0,0,0,1.52,13.931c.061.265.133.53.205.8a41.677,41.677,0,0,0,6.26,13.725c3.98,5.633,12.218,12.037,17.67,12.037,2.859,0,6.477-1.761,9.854-4.233" transform="translate(-25.791 -51.761)" fill="none" stroke="#b84955" stroke-width="3"/>
    <path id="Caminho_1496" data-name="Caminho 1496" d="M90.144,76.6c2.38,11.956,6.764,13.152,13.588,16.739v.013c3.351,1.757,5.3,5.452,6.4,8.644a.192.192,0,0,0,.024.078,32.381,32.381,0,0,0-9.105-32.846c-8.232-7.824-27.6-10.934-40.442-1.137C51.09,75.346,45.721,87.775,49.622,102.07a.3.3,0,0,0,0-.1C50.9,97.058,51.7,93.481,56,91.663c11.775-4.977,26.066.746,32.025-9.944a24.191,24.191,0,0,0,2.083-4.978.6.6,0,0,0,.038-.145" transform="translate(-21.26 -27.249)" fill="none" stroke="#b84955" stroke-width="3"/>
    <path id="Caminho_1497" data-name="Caminho 1497" d="M77.055,57.638a4.537,4.537,0,0,1-.779-2.708c0-5.942,7.25-10.536,15.794-10.536s16.141,4.517,15.79,10.536a9.045,9.045,0,0,1-.548,2.114" transform="translate(-33.548 -19.526)" fill="none" stroke="#b84955" stroke-width="3"/>
    <path id="Caminho_1498" data-name="Caminho 1498" d="M86.866,184.847a48.715,48.715,0,0,1,0,8.288" transform="translate(-38.206 -81.3)" fill="none" stroke="#b84955" stroke-width="3"/>
    <path id="Caminho_1499" data-name="Caminho 1499" d="M121.886,184.706a49.791,49.791,0,0,0,0,8.367" transform="translate(-53.529 -81.238)" fill="none" stroke="#b84955" stroke-width="3"/>
    <path id="Caminho_1500" data-name="Caminho 1500" d="M126.815,134c-2.028-2.19-7.251-3.08-10.879.836" transform="translate(-50.991 -58.113)" fill="none" stroke="#b84955" stroke-width="3"/>
    <path id="Caminho_1501" data-name="Caminho 1501" d="M123.851,135.889a1,1,0,1,0,1-1.027A1.012,1.012,0,0,0,123.851,135.889Z" transform="translate(-54.473 -59.316)" fill="none" stroke="#b84955" stroke-width="3"/>
    <path id="Caminho_1502" data-name="Caminho 1502" d="M73.535,134c2.028-2.19,7.251-3.08,10.879.836" transform="translate(-32.342 -58.113)" fill="none" stroke="#b84955" stroke-width="3"/>
    <path id="Caminho_1503" data-name="Caminho 1503" d="M83.476,135.889a1,1,0,1,1-1-1.027A1.012,1.012,0,0,1,83.476,135.889Z" transform="translate(-35.838 -59.316)" fill="none" stroke="#b84955" stroke-width="3"/>
    <path id="Caminho_1504" data-name="Caminho 1504" d="M118.08,122.665a18.9,18.9,0,0,1,7.575,0" transform="translate(-51.934 -53.78)" fill="none" stroke="#b84955" stroke-width="3"/>
    <path id="Caminho_1505" data-name="Caminho 1505" d="M85.028,122.665a18.9,18.9,0,0,0-7.575,0" transform="translate(-34.066 -53.78)" fill="none" stroke="#b84955" stroke-width="3"/>
    <path id="Caminho_1506" data-name="Caminho 1506" d="M141.842,164.174a15.414,15.414,0,0,1-1.538-2.842.031.031,0,0,0-.01-.02c-2.483-4.127-9.32-12.025-11.135-10.787-2.622,1.788-3.27,9.744-1.742,14.006a35.356,35.356,0,0,0,3.885,7.216c.916,1.821,3.247,4.432,3.632,6.236" transform="translate(-55.683 -66.147)" fill="none" stroke="#b84955" stroke-width="3"/>
    <path id="Caminho_1507" data-name="Caminho 1507" d="M150.522,164.036a.031.031,0,0,0-.009-.02c-.148-.416-2.269-6.64,1.853-7.472.843.212,1.112,2.987,2.585,4.891.658,1.044.713,3.132,1.288,5.317a31.858,31.858,0,0,1,.812,5.3,19.336,19.336,0,0,1-1.011,7.5" transform="translate(-65.902 -68.852)" fill="none" stroke="#b84955" stroke-width="3"/>
    <path id="Caminho_1508" data-name="Caminho 1508" d="M172.2,134.585a.285.285,0,0,0-.048-.095,3.823,3.823,0,0,0-6.078-.687,3.87,3.87,0,0,0-1.028,2.217" transform="translate(-72.592 -58.321)" fill="none" stroke="#b84955" stroke-width="3"/>
    <path id="Caminho_1509" data-name="Caminho 1509" d="M175.325,166.3a8.211,8.211,0,0,0,2.117-.318,8.365,8.365,0,0,0,5.943-9.513" transform="translate(-77.112 -68.821)" fill="none" stroke="#b84955" stroke-width="3"/>
    <path id="Caminho_1510" data-name="Caminho 1510" d="M175.171,137.754a6.356,6.356,0,1,1,6.429,9.961" transform="translate(-77.044 -59.438)" fill="none" stroke="#b84955" stroke-width="3"/>
    <path id="Caminho_1511" data-name="Caminho 1511" d="M191.446,182.074a2.6,2.6,0,1,1-2.6-2.6A2.6,2.6,0,0,1,191.446,182.074Z" transform="translate(-81.911 -78.935)" fill="none" stroke="#b84955" stroke-width="3"/>
    <path id="Caminho_1512" data-name="Caminho 1512" d="M177.259,112.58a3.377,3.377,0,1,1-3.377-3.377A3.377,3.377,0,0,1,177.259,112.58Z" transform="translate(-74.992 -48.03)" fill="none" stroke="#b84955" stroke-width="3"/>
    <path id="Caminho_1513" data-name="Caminho 1513" d="M189.241,99.478a.5.5,0,1,1-.5-.5A.5.5,0,0,1,189.241,99.478Z" transform="translate(-82.791 -43.532)" fill="none" stroke="#b84955" stroke-width="3"/>
  </g>
</svg>
