<svg xmlns="http://www.w3.org/2000/svg" xmlns:xlink="http://www.w3.org/1999/xlink" width="104" height="104" viewBox="0 0 104 104">
  <defs>
    <clipPath id="clip-path">
      <rect id="Retângulo_696" data-name="Retângulo 696" width="104" height="104" fill="#fff"/>
    </clipPath>
  </defs>
  <g id="Sem_parabenos" data-name="Sem parabenos" clip-path="url(#clip-path)">
    <path id="Caminho_1440" data-name="Caminho 1440" d="M52,0a52,52,0,1,0,52,52A52,52,0,0,0,52,0m0,101.86A49.86,49.86,0,1,1,101.86,52,49.86,49.86,0,0,1,52,101.86" fill="#fff"/>
    <path id="Caminho_1441" data-name="Caminho 1441" d="M143.857,157.252a16.133,16.133,0,0,1-7.794,11.105" transform="translate(-74.722 -90.973)" fill="#fff" stroke="#fff" stroke-width="2"/>
    <line id="Linha_21" data-name="Linha 21" x1="0.079" y1="1.637" transform="translate(69.128 59.332)" fill="none" stroke="#fff" stroke-width="2"/>
    <path id="Caminho_1442" data-name="Caminho 1442" d="M76.217,58.68A77.038,77.038,0,0,1,86.41,48.009s23.9,19.556,23.9,45a23.9,23.9,0,0,1-47.725,2" transform="translate(-33.719 -30.009)" fill="none" stroke="#fff" stroke-width="2"/>
    <path id="Caminho_1443" data-name="Caminho 1443" d="M64.063,84.2c20.111,17.412,23.225,34.656,23.784,43.74" transform="translate(-34.542 -50.208)" fill="none" stroke="#fff" stroke-width="2"/>
    <path id="Caminho_1444" data-name="Caminho 1444" d="M78.58,108.637a14.164,14.164,0,0,0,5.708-15.273c-1.5-6.16-6.195-10.973-11.477-14.178a53.017,53.017,0,0,0-22.688-7.03c1.4,4.221,1.355,8.842,1.758,13.227.48,5.22,1.369,10.472,3.833,15.161C60.058,108.816,69.911,114.52,78.58,108.637Z" transform="translate(-26.762 -43.485)" fill="none" stroke="#fff" stroke-width="2"/>
    <path id="Caminho_1445" data-name="Caminho 1445" d="M105.645,119.226a18.462,18.462,0,0,0,.8-13.468" transform="translate(-57.747 -62.236)" fill="none" stroke="#fff" stroke-width="2"/>
    <path id="Caminho_1446" data-name="Caminho 1446" d="M88.544,99.284c.236-1.732.6-5.815-.658-8.977" transform="translate(-47.836 -53.614)" fill="none" stroke="#fff" stroke-width="2"/>
    <path id="Caminho_1447" data-name="Caminho 1447" d="M81.764,119.6s-5.962,1.127-13.448-3.53" transform="translate(-36.915 -67.994)" fill="none" stroke="#fff" stroke-width="2"/>
    <path id="Caminho_1448" data-name="Caminho 1448" d="M74.258,98.77a14.958,14.958,0,0,1-4.807-1.014" transform="translate(-37.549 -57.771)" fill="none" stroke="#fff" stroke-width="2"/>
    <path id="Caminho_1449" data-name="Caminho 1449" d="M96.236,144.414a19.55,19.55,0,0,1-10.729-1.355" transform="translate(-46.509 -83.052)" fill="none" stroke="#fff" stroke-width="2"/>
  </g>
</svg>
