<svg xmlns="http://www.w3.org/2000/svg" xmlns:xlink="http://www.w3.org/1999/xlink" width="78" height="78" viewBox="0 0 78 78">
  <defs>
    <clipPath id="clip-path">
      <rect id="Retângulo_661" data-name="Retângulo 661" width="78" height="78" fill="none" stroke="#f38599" stroke-width="3"/>
    </clipPath>
  </defs>
  <g id="Acalma_" data-name="Acalma " clip-path="url(#clip-path)">
    <path id="Caminho_1371" data-name="Caminho 1371" d="M68.675,64.715V53.7c0-10.722,7.742-25.019,23.828-25.019S116.33,42.973,116.33,53.7V69.034" transform="translate(-52.311 -21.843)" fill="none" stroke="#f38599" stroke-linecap="round" stroke-linejoin="round" stroke-width="3"/>
    <line id="Linha_30" data-name="Linha 30" y1="7.148" transform="translate(16.364 60.445)" fill="none" stroke="#f38599" stroke-linecap="round" stroke-linejoin="round" stroke-width="3"/>
    <path id="Caminho_1372" data-name="Caminho 1372" d="M98.675,92.016a20.849,20.849,0,0,1,33.359,0" transform="translate(-75.163 -63.738)" fill="none" stroke="#f38599" stroke-linecap="round" stroke-linejoin="round" stroke-width="3"/>
    <path id="Caminho_1373" data-name="Caminho 1373" d="M119.417,84.652c0,3.2-4.914,15.488-15.488,15.488S88.442,87.854,88.442,84.652A7.877,7.877,0,0,1,83.676,77.5a3.265,3.265,0,0,1,3.574-3.574V67.085A10.1,10.1,0,0,1,89.3,60.977c3.423-4.529,7.461-7.3,14.633-7.3a18.359,18.359,0,0,1,14.633,7.3,10.1,10.1,0,0,1,2.047,6.108v6.844a3.265,3.265,0,0,1,3.574,3.574A7.877,7.877,0,0,1,119.417,84.652Z" transform="translate(-63.738 -40.886)" fill="none" stroke="#f38599" stroke-linecap="round" stroke-linejoin="round" stroke-width="3"/>
    <path id="Caminho_1374" data-name="Caminho 1374" d="M148.676,208.31a7.16,7.16,0,0,0,9.531-.05" transform="translate(-113.25 -158.637)" fill="none" stroke="#f38599" stroke-linecap="round" stroke-linejoin="round" stroke-width="3"/>
    <path id="Caminho_1375" data-name="Caminho 1375" d="M203.69,236.087c0,5.432,3.422,14.913,15.485,14.913" transform="translate(-155.155 -179.833)" fill="none" stroke="#f38599" stroke-linecap="round" stroke-linejoin="round" stroke-width="3"/>
    <path id="Caminho_1376" data-name="Caminho 1376" d="M84.16,236.087c0,5.432-3.422,14.913-15.484,14.913" transform="translate(-52.312 -179.833)" fill="none" stroke="#f38599" stroke-linecap="round" stroke-linejoin="round" stroke-width="3"/>
    <path id="Caminho_1377" data-name="Caminho 1377" d="M188.676,156.067a4.51,4.51,0,0,0,7.148-.1" transform="translate(-143.719 -118.805)" fill="none" stroke="#f38599" stroke-linecap="round" stroke-linejoin="round" stroke-width="3"/>
    <path id="Caminho_1378" data-name="Caminho 1378" d="M125.824,156.067a4.51,4.51,0,0,1-7.148-.1" transform="translate(-90.398 -118.805)" fill="none" stroke="#f38599" stroke-linecap="round" stroke-linejoin="round" stroke-width="3"/>
    <path id="Caminho_1379" data-name="Caminho 1379" d="M188.676,125.907c1.241-1.191,3.673-1.589,7.148-.447" transform="translate(-143.719 -95.048)" fill="none" stroke="#f38599" stroke-linecap="round" stroke-linejoin="round" stroke-width="3"/>
    <path id="Caminho_1380" data-name="Caminho 1380" d="M125.824,125.907c-1.242-1.191-3.673-1.589-7.148-.447" transform="translate(-90.398 -95.048)" fill="none" stroke="#f38599" stroke-linecap="round" stroke-linejoin="round" stroke-width="3"/>
    <path id="Caminho_1381" data-name="Caminho 1381" d="M243.207,208.442c-3.537,0-4.766-2.134-4.766-4.766,0,2.632-1.229,4.766-4.766,4.766,3.537,0,4.766,2.134,4.766,4.766,0-2.632,1.228-4.766,4.766-4.766" transform="translate(-177.997 -155.145)" fill="#f38599"/>
    <circle id="Elipse_13" data-name="Elipse 13" cx="4.766" cy="4.766" r="4.766" transform="translate(55.679 48.531)" fill="none"/>
    <path id="Caminho_1382" data-name="Caminho 1382" d="M263.207,248.442c-3.537,0-4.766-2.134-4.766-4.766,0,2.632-1.229,4.766-4.766,4.766,3.537,0,4.766,2.134,4.766,4.766,0-2.632,1.228-4.766,4.766-4.766" transform="translate(-193.231 -185.614)" fill="#f38599"/>
    <circle id="Elipse_14" data-name="Elipse 14" cx="4.766" cy="4.766" r="4.766" transform="translate(60.445 58.062)" fill="none"/>
    <path id="Caminho_1383" data-name="Caminho 1383" d="M43.206,188.442c-3.537,0-4.766-2.134-4.766-4.766,0,2.632-1.229,4.766-4.766,4.766,3.537,0,4.766,2.134,4.766,4.766,0-2.632,1.229-4.766,4.766-4.766" transform="translate(-25.651 -139.91)" fill="#f38599"/>
    <circle id="Elipse_15" data-name="Elipse 15" cx="4.766" cy="4.766" r="4.766" transform="translate(8.024 43.766)" fill="none"/>
    <path id="Caminho_1384" data-name="Caminho 1384" d="M78.206,218.442c-3.537,0-4.766-2.134-4.766-4.766,0,2.632-1.229,4.766-4.766,4.766,3.537,0,4.766,2.134,4.766,4.766,0-2.632,1.229-4.766,4.766-4.766" transform="translate(-52.311 -162.762)" fill="#f38599"/>
    <circle id="Elipse_16" data-name="Elipse 16" cx="4.766" cy="4.766" r="4.766" transform="translate(16.364 50.914)" fill="none"/>
    <path id="Caminho_1385" data-name="Caminho 1385" d="M183.619,55.145a3.807,3.807,0,0,1-.039,7.11" transform="translate(-139.837 -42.005)" fill="none" stroke="#f38599" stroke-linecap="round" stroke-linejoin="round" stroke-width="3"/>
  </g>
</svg>
