<svg xmlns="http://www.w3.org/2000/svg" viewBox="0 0 54.85 42.93"><defs><style>.cls-1{fill:#b34f5b;}</style></defs><g id="Camada_2" data-name="Camada 2"><g id="Layer_1" data-name="Layer 1"><path class="cls-1" d="M27.43,14.18A7.57,7.57,0,1,0,35,21.75,7.58,7.58,0,0,0,27.43,14.18Zm0,1.37a6.2,6.2,0,1,1-6.2,6.2A6.19,6.19,0,0,1,27.43,15.55Z"/><path class="cls-1" d="M27.43,29.69a7.94,7.94,0,1,1,7.93-7.94A8,8,0,0,1,27.43,29.69Zm0-15.13a7.19,7.19,0,1,0,7.18,7.19A7.19,7.19,0,0,0,27.43,14.56Zm0,13.76A6.57,6.57,0,1,1,34,21.75,6.58,6.58,0,0,1,27.43,28.32Zm0-12.39a5.82,5.82,0,1,0,5.81,5.82A5.83,5.83,0,0,0,27.43,15.93Z"/><path class="cls-1" d="M23.85,18.51H23a17.25,17.25,0,0,0-2.29.24h0l0,0A6.63,6.63,0,0,0,20.29,20l0,.13.14,0a15.82,15.82,0,0,1,2.69-.32,16.48,16.48,0,0,1,11.31,4l.11.09,0-.14a6.53,6.53,0,0,0,.22-1.17h-.09l.06-.07a17.66,17.66,0,0,0-10.87-3.87Z"/><path class="cls-1" d="M34.5,24.15a.38.38,0,0,1-.25-.09l-.1-.09a16.14,16.14,0,0,0-11.06-3.86,18.13,18.13,0,0,0-2.63.31l-.13,0a.38.38,0,0,1-.35-.11.37.37,0,0,1-.09-.35l0-.13a7.92,7.92,0,0,1,.4-1.19.48.48,0,0,1,.29-.27A18,18,0,0,1,23,18.15h.84A18,18,0,0,1,35,22.09a.4.4,0,0,1,.14.26h0a.25.25,0,0,1,0,.14,8.46,8.46,0,0,1-.22,1.24l0,.14a.38.38,0,0,1-.25.26Zm-10.84-4.8A16.91,16.91,0,0,1,34.28,23.1c0-.16.06-.33.08-.5v0a17.19,17.19,0,0,0-10.5-3.68H23a17,17,0,0,0-2.08.2c-.07.17-.13.34-.19.5a17.79,17.79,0,0,1,2.29-.24Z"/><path class="cls-1" d="M27.43,8.58,7.26,21.46l1,.66L27.43,34.34,47.59,21.46,27.43,8.58Zm0,1.86,17.26,11-17.26,11-17.27-11Z"/><path class="cls-1" d="M27.43,34.72a.36.36,0,0,1-.2-.06L7.06,21.78a.38.38,0,0,1-.18-.32.35.35,0,0,1,.18-.31L27.23,8.27a.36.36,0,0,1,.4,0L47.8,21.15a.37.37,0,0,1,.17.31.4.4,0,0,1-.17.32L27.63,34.66A.36.36,0,0,1,27.43,34.72ZM8,21.46,27.43,33.9,46.9,21.46,27.43,9Zm19.47,11.4a.36.36,0,0,1-.2-.06L10,21.78a.37.37,0,0,1-.17-.32.34.34,0,0,1,.17-.31l17.27-11a.36.36,0,0,1,.4,0l17.26,11a.34.34,0,0,1,.17.31.37.37,0,0,1-.17.32l-17.26,11A.36.36,0,0,1,27.43,32.86ZM10.86,21.46,27.43,32,44,21.46,27.43,10.88Z"/><path class="cls-1" d="M5.56,42.93A5.58,5.58,0,0,1,0,37.36V5.56A5.57,5.57,0,0,1,5.56,0H49.29a5.57,5.57,0,0,1,5.56,5.56v31.8a5.58,5.58,0,0,1-5.56,5.57H5.56Zm0-39.76A2.4,2.4,0,0,0,3.18,5.56v31.8a2.39,2.39,0,0,0,2.38,2.39H49.29a2.39,2.39,0,0,0,2.39-2.38V5.56a2.4,2.4,0,0,0-2.39-2.39Z"/></g></g></svg>