<svg xmlns="http://www.w3.org/2000/svg" viewBox="0 0 41.74 47.05"><defs><style>.cls-1{fill:#b34f5b;}</style></defs><g id="Camada_2" data-name="Camada 2"><g id="Layer_1" data-name="Layer 1"><path class="cls-1" d="M20.87,0C12.37,0,5.51,7,5.23,15.69H1.4A1.63,1.63,0,0,0,0,17.24V38.8c0,4.45,3.27,8.25,7.51,8.25H34.22c4.23,0,7.52-3.8,7.52-8.25V17.24a1.62,1.62,0,0,0-1.57-1.55H36.51C36.23,7,29.38,0,20.87,0Zm0,3.13a12.71,12.71,0,0,1,12.5,12.56h-25A12.73,12.73,0,0,1,20.87,3.13ZM3.12,18.82H38.6v20c0,3-2,5.12-4.38,5.12H7.51c-2.35,0-4.39-2.17-4.39-5.12Zm17.75,5.74a3.14,3.14,0,0,0-1.57,5.85V36.6a1.57,1.57,0,1,0,3.14,0V30.41a3.14,3.14,0,0,0-1.57-5.85Z"/></g></g></svg>