<svg xmlns="http://www.w3.org/2000/svg" xmlns:xlink="http://www.w3.org/1999/xlink" width="140" height="140" viewBox="0 0 140 140">
  <defs>
    <clipPath id="clip-path">
      <rect id="Retângulo_645" data-name="Retângulo 645" width="140" height="140" transform="translate(0 0)" fill="#f38599"/>
    </clipPath>
  </defs>
  <g id="celulite" transform="translate(-0.409 0)">
    <g id="Grupo_805" data-name="Grupo 805" transform="translate(0.409 0)" clip-path="url(#clip-path)">
      <path id="Caminho_1304" data-name="Caminho 1304" d="M144.553,158.3a55.45,55.45,0,0,1,6.316-24.968c2.706-5.239,5.223-10.534,6.507-16.331,1.994-9.006,1.429-17.713-3.1-25.934a32.411,32.411,0,0,0-2.133-3.206c-.522-.728-.989-1.476-.129-2.177s1.582-.294,2.207.514a32.878,32.878,0,0,1,6.481,15.674c1.492,10.287-1.03,19.845-5.636,28.937-2.779,5.485-5.4,11-6.645,17.073a47.959,47.959,0,0,0,5.284,34.465c.481.844.721,1.674-.246,2.273-1.044.646-1.59-.121-2.056-.919a48.778,48.778,0,0,1-6.362-19.326c-.229-2.018-.33-4.051-.49-6.077" transform="translate(-107.486 -63.097)" fill="#f38599"/>
      <path id="Caminho_1305" data-name="Caminho 1305" d="M352.257,84.2c.451.36,1.038.6,1.133.961a2.347,2.347,0,0,1-.265,1.567c-1.372,2.5-3.117,4.833-4.172,7.451-3.408,8.453-3.013,17.091-.156,25.559a113.552,113.552,0,0,0,5.726,13.061,55.669,55.669,0,0,1,5.991,24.537,49.76,49.76,0,0,1-6.252,24.545c-.241.434-.5.861-.782,1.271-.477.7-1.111,1.068-1.893.536a1.341,1.341,0,0,1-.377-1.962c.837-1.524,1.749-3.021,2.434-4.614,6.339-14.74,5.421-29.241-1.7-43.436C349.1,128,346.364,122.3,345.073,116.03c-1.969-9.573-1.275-18.806,3.618-27.469a31.751,31.751,0,0,1,2.326-3.378,6.573,6.573,0,0,1,1.24-.979" transform="translate(-255.784 -62.263)" fill="#f38599"/>
      <path id="Caminho_1306" data-name="Caminho 1306" d="M215.327,367.938c1.1.972,2.1,1.958,3.208,2.816a17.951,17.951,0,0,0,8.255,3.807,11.458,11.458,0,0,0,8.484-2.013c.241-.162.474-.339.726-.481a1.349,1.349,0,0,1,1.884.358,1.235,1.235,0,0,1-.316,1.855,13.8,13.8,0,0,1-9.478,3.069,19.466,19.466,0,0,1-9.793-3.6c-.4-.269-.805-.534-1.41-.935v1.516q0,9.092,0,18.184c0,.373.121.848-.06,1.1-.353.485-.841,1.119-1.345,1.19-.746.105-1.278-.474-1.278-1.339q0-2.74,0-5.48c0-4.852,0-9.7,0-14.815-.556.438-.952.758-1.357,1.067-5.115,3.908-10.685,4.575-16.658,2.323a7.038,7.038,0,0,1-1.009-.476c-.694-.4-1.061-.973-.66-1.752a1.293,1.293,0,0,1,1.879-.587,19.789,19.789,0,0,0,3.75,1.246c5.579,1.015,9.931-1.287,13.614-5.252.533-.574,1.03-1.182,1.565-1.8" transform="translate(-144.505 -273.18)" fill="#f38599"/>
      <path id="Caminho_1307" data-name="Caminho 1307" d="M273.624,94.783c0,2.7-.01,5.392.006,8.088.005.894-.226,1.6-1.25,1.641-1.08.041-1.434-.674-1.435-1.619q-.01-8.026,0-16.052c0-.954.4-1.7,1.418-1.666s1.289.81,1.276,1.769c-.036,2.613-.012,5.226-.012,7.839" transform="translate(-201.438 -62.984)" fill="#f38599"/>
    </g>
  </g>
</svg>
