<svg id="CHECK_6" data-name="CHECK 6" xmlns="http://www.w3.org/2000/svg" width="18.09" height="18.103" viewBox="0 0 18.09 18.103">
  <path id="Caminho_427" data-name="Caminho 427" d="M9.529,0c.426.059.852.1,1.273.181a8.822,8.822,0,0,1,3.359,1.414.7.7,0,0,1,.2.966.69.69,0,0,1-.962.216A8.147,8.147,0,0,0,11.4,1.793,7.453,7.453,0,0,0,4.612,2.845,7.324,7.324,0,0,0,1.638,7.178,7.361,7.361,0,0,0,2.7,13.287,7.421,7.421,0,0,0,7.921,16.6a7.455,7.455,0,0,0,4.78-.856c.1-.056.205-.116.311-.169a.7.7,0,0,1,.951.264.679.679,0,0,1-.267.96,15.273,15.273,0,0,1-1.691.791,8.3,8.3,0,0,1-3.243.5,8.879,8.879,0,0,1-6.53-3.084A8.481,8.481,0,0,1,.077,10.3,8.879,8.879,0,0,1,2.391,2.91,8.837,8.837,0,0,1,7.335.163C7.664.1,8,.075,8.332.032,8.39.024,8.447.011,8.5,0Z" transform="translate(0.002)" fill="#f38599"/>
  <path id="Caminho_428" data-name="Caminho 428" d="M115.445,51.791a1.929,1.929,0,0,1-1.408-.532q-1.815-1.719-3.628-3.443a.708.708,0,1,1,.979-1.018q1.772,1.675,3.539,3.355c.329.312.532.3.816-.051q3.587-4.461,7.176-8.92a1.5,1.5,0,0,1,.456-.4.658.658,0,0,1,.793.208.675.675,0,0,1,.02.852c-.29.386-.6.758-.9,1.136l-6.521,8.107A1.781,1.781,0,0,1,115.445,51.791Z" transform="translate(-106.238 -39.278)" fill="#f38599"/>
  <path id="Caminho_429" data-name="Caminho 429" d="M432.854,179.04a9.254,9.254,0,0,1-1.5,5.045.712.712,0,0,1-1.008.259.7.7,0,0,1-.2-.994,8.07,8.07,0,0,0,1.073-2.463,7.678,7.678,0,0,0-.013-3.62.711.711,0,0,1,.428-.894.7.7,0,0,1,.93.509A8.884,8.884,0,0,1,432.854,179.04Z" transform="translate(-414.766 -170.071)" fill="#f38599"/>
</svg>
