<svg id="copo" xmlns="http://www.w3.org/2000/svg" xmlns:xlink="http://www.w3.org/1999/xlink" width="45.337" height="57.698" viewBox="0 0 45.337 57.698">
  <defs>
    <clipPath id="clip-path">
      <rect id="Retângulo_655" data-name="Retângulo 655" width="45.337" height="57.698" fill="#f38599"/>
    </clipPath>
  </defs>
  <g id="Grupo_827" data-name="Grupo 827" clip-path="url(#clip-path)">
    <path id="Caminho_1318" data-name="Caminho 1318" d="M22.687.007H43.047a2.033,2.033,0,0,1,2.282,2.366c-.139,2.076-.363,4.146-.557,6.217q-.355,3.78-.72,7.559-.432,4.549-.86,9.1c-.232,2.478-.458,4.956-.69,7.433q-.421,4.485-.847,8.97-.352,3.748-.7,7.5c-.213,2.264-.419,4.529-.655,6.79a1.979,1.979,0,0,1-1.687,1.7,5.227,5.227,0,0,1-.77.054q-15.173,0-30.346,0c-1.435,0-2.332-.653-2.478-1.82-.109-.872-.18-1.75-.263-2.625q-.507-5.35-1.01-10.7c-.318-3.417-.62-6.836-.942-10.254s-.665-6.832-.987-10.249S1.194,15.213.871,11.8C.595,8.87.284,5.948.03,3.02A4.225,4.225,0,0,1,.185,1.2,1.947,1.947,0,0,1,2.2,0Q12.443.02,22.687.007M8.983,53.6H36.338q1.4-15.262,2.794-30.4c-2.514-.846-4.966-1.613-7.375-2.5-2.572-.944-5.084-2.053-7.659-2.992a19.124,19.124,0,0,0-8.216-1.172A27.952,27.952,0,0,0,6.1,19.716a.619.619,0,0,0-.277.468c0,.47.076.94.121,1.41q.428,4.486.854,8.972.348,3.685.69,7.371.427,4.518.859,9.036c.21,2.2.422,4.4.636,6.632M39.617,18.94,40.99,4.178H4.324L5.391,15.433l1.815-.778A26.246,26.246,0,0,1,16,12.4,24.839,24.839,0,0,1,26.32,14.1c3.422,1.291,6.837,2.6,10.265,3.88.974.363,1.984.631,3.032.96" transform="translate(0 0)" fill="#f38599"/>
    <path id="Caminho_1319" data-name="Caminho 1319" d="M65.937,157.167c.034,1.449-.692,2.4-1.786,2.484A2.064,2.064,0,0,1,61.8,157.59c-.313-3.179-.591-6.362-.887-9.543-.282-3.031-.573-6.062-.852-9.094-.114-1.238-.243-2.477-.3-3.718a2.065,2.065,0,0,1,4.12-.272c.352,3.736.686,7.473,1.034,11.209q.489,5.252.991,10.5c.02.214.026.429.03.493" transform="translate(-49.471 -110.142)" fill="#f38599"/>
  </g>
</svg>
