<svg xmlns="http://www.w3.org/2000/svg" xmlns:xlink="http://www.w3.org/1999/xlink" width="104.023" height="104.023" viewBox="0 0 104.023 104.023">
  <defs>
    <clipPath id="clip-path">
      <rect id="Retângulo_695" data-name="Retângulo 695" width="104.023" height="104.023" transform="translate(0 0)" fill="#b84955"/>
    </clipPath>
  </defs>
  <g id="Cruelty_free" data-name="Cruelty free" transform="translate(0 0)" clip-path="url(#clip-path)">
    <path id="Caminho_1436" data-name="Caminho 1436" d="M52.011,0a52.011,52.011,0,1,0,52.011,52.011A52.011,52.011,0,0,0,52.011,0m0,101.882a49.871,49.871,0,1,1,49.871-49.871,49.871,49.871,0,0,1-49.871,49.871" fill="#b84955"/>
    <path id="Caminho_1437" data-name="Caminho 1437" d="M59.439,20.667c.61.135,1.235.225,1.827.414,1.682.536,3.011,1.452,3.311,3.281,1.014.2,1.99.309,2.921.578,3.256.94,4.284,3.694,2.5,6.588a14.623,14.623,0,0,1-4.616,4.483,31.817,31.817,0,0,1-11.828,4.71c-.579.107-1.321-.012-1.7.311-.336.283-.272,1.04-.389,1.586-.025.119-.067.233-.125.428.77.124,1.522.229,2.268.367a26.308,26.308,0,0,1,16.211,9.9,30.673,30.673,0,0,1,4.994,8.354,16.754,16.754,0,0,1,1.136,5.658.791.791,0,0,0,.547.864,5.483,5.483,0,0,1,3.126,5.98,5.584,5.584,0,0,1-4.632,4.435,5.346,5.346,0,0,1-3.311-.552.581.581,0,0,0-.75.07,14.319,14.319,0,0,1-7.045,3.161,13.458,13.458,0,0,0-2.693.9,17.256,17.256,0,0,1-6.574,1.16,9.585,9.585,0,0,1-4.427-1.232,3.88,3.88,0,0,1-.942-5.964,7.7,7.7,0,0,1,.707-.761c.627-.606.636-.812.1-1.428-.969.917-1.929,1.855-2.921,2.758a21.8,21.8,0,0,1-8.452,5.109,8.686,8.686,0,0,1-5.168.213c-2.935-.92-4.007-3.475-2.614-6.229a12.315,12.315,0,0,1,3.453-3.994c.252-.2.508-.4.787-.619C30.9,65.6,29.829,59.63,32.884,53.161c-1.166-.391-2.32-.716-3.424-1.163a12.835,12.835,0,0,1-4.924-3.317,6.38,6.38,0,0,1-1.072-7.323A32,32,0,0,1,25.117,38.3a1.087,1.087,0,0,1,1.544-.518c.575.336.659.934.282,1.644-.571,1.075-1.171,2.14-1.655,3.254C24.454,44.6,25.1,46.209,26.5,47.6a12.308,12.308,0,0,0,4.931,2.845,16.121,16.121,0,0,0,9.326.437c4.662-1.214,7.438-4.306,8.621-8.9a6.549,6.549,0,0,0,.139-1.51c.019-1.24.294-1.489,1.5-1.674a45.7,45.7,0,0,0,5.386-1A24.68,24.68,0,0,0,65.8,32.99a12.564,12.564,0,0,0,2.444-2.781c.981-1.525.5-2.623-1.224-3.18a11.212,11.212,0,0,0-4.908-.3A28.593,28.593,0,0,0,49.272,31.74c-.673.467-1.016.426-1.823-.161A8.693,8.693,0,0,0,41.2,30,15.979,15.979,0,0,0,35,32.127a26.077,26.077,0,0,0-5.084,3.8,1.99,1.99,0,0,1-.745.505.971.971,0,0,1-1.193-.5,1.021,1.021,0,0,1,.234-1.331c.745-.7,1.484-1.4,2.286-2.032a21.7,21.7,0,0,1,9.063-4.472,1.364,1.364,0,0,0,.649-.289,26.354,26.354,0,0,1,9.937-5.7,26.507,26.507,0,0,1,6.06-1.339,2.869,2.869,0,0,0,.412-.1ZM52.032,76.652c-.071-.129-.142-.258-.214-.387-.286.4-.565.8-.862,1.191-.929,1.217-.687,2.42.715,3.03a7.841,7.841,0,0,0,2.4.639,13.624,13.624,0,0,0,7.56-1.517,3.521,3.521,0,0,1,.927-.282c.538-.106,1.094-.135,1.624-.268,4.2-1.061,7.388-3.388,9-7.516a12.155,12.155,0,0,0-.28-8.78A28.937,28.937,0,0,0,64.605,51,25.543,25.543,0,0,0,51.876,45.06c-1.038-.187-1.172-.1-1.654.843a13.28,13.28,0,0,1-8.49,6.953,18.992,18.992,0,0,1-6.053.631.8.8,0,0,0-.628.293,13.239,13.239,0,0,0-1.138,10.615,16.33,16.33,0,0,0,3.466,6.048c.7.782.629,1.382-.213,1.99-.3.214-.61.408-.9.63A10.042,10.042,0,0,0,32.7,77.086a1.973,1.973,0,0,0,1.41,2.926,5.711,5.711,0,0,0,1.083.163A9.292,9.292,0,0,0,40.12,79,28.844,28.844,0,0,0,48.837,71.8a.991.991,0,0,0,.126-.771,12.965,12.965,0,0,1-.025-6.471,25.175,25.175,0,0,1,1.232-3.369.99.99,0,0,1,1.389-.5,1.035,1.035,0,0,1,.532,1.377c-.088.249-.21.485-.317.726a11.747,11.747,0,0,0-.779,7.4,7.668,7.668,0,0,0,4.143,5.716c.915.444,1.835.881,2.719,1.381a1.7,1.7,0,0,1,.8.83,1.351,1.351,0,0,1-.306,1.029.915.915,0,0,1-1.181.164c-1.715-.881-3.424-1.775-5.134-2.663M43.564,27.64l.084.227a10.153,10.153,0,0,1,4.34,1.5.76.76,0,0,0,.974-.024,29.1,29.1,0,0,1,10.292-4.306c1.026-.21,2.063-.367,3.1-.549-.246-.693-.731-1.082-1.746-1.362a11.9,11.9,0,0,0-4.553-.193,25.208,25.208,0,0,0-7.938,2.273c-1.554.731-3.037,1.614-4.552,2.429M72.977,76.246a3.3,3.3,0,0,0,4.3-1.727,3.241,3.241,0,0,0-1.469-4.2,14.141,14.141,0,0,1-2.828,5.928" fill="#b84955"/>
    <path id="Caminho_1438" data-name="Caminho 1438" d="M37.408,39.964a1.838,1.838,0,0,1-1.79,1.865,1.9,1.9,0,0,1-1.877-1.862,1.826,1.826,0,0,1,1.843-1.806,1.783,1.783,0,0,1,1.824,1.8" fill="#b84955"/>
    <path id="Caminho_1439" data-name="Caminho 1439" d="M58.827,55.988a3.228,3.228,0,0,1-.686.72c-.881.544-1.8,1.018-2.713,1.516a1.088,1.088,0,0,1-1.474-.258,1.028,1.028,0,0,1,.279-1.5,29.447,29.447,0,0,1,3.092-1.707c.76-.353,1.505.187,1.5,1.233" fill="#b84955"/>
  </g>
</svg>
