<svg xmlns="http://www.w3.org/2000/svg" xmlns:xlink="http://www.w3.org/1999/xlink" width="104.079" height="104.079" viewBox="0 0 104.079 104.079">
  <defs>
    <clipPath id="clip-path">
      <rect id="Retângulo_694" data-name="Retângulo 694" width="104.079" height="104.079" transform="translate(0 0)" fill="#951837"/>
    </clipPath>
  </defs>
  <g id="formula_vegana" data-name="formula vegana" transform="translate(0 0)" clip-path="url(#clip-path)">
    <path id="Caminho_1434" data-name="Caminho 1434" d="M52.039,0A52.04,52.04,0,1,0,104.078,52.04,52.039,52.039,0,0,0,52.039,0m0,101.937a49.9,49.9,0,1,1,49.9-49.9,49.9,49.9,0,0,1-49.9,49.9" fill="#b84955"/>
    <path id="Caminho_1435" data-name="Caminho 1435" d="M36.418,85.676c-.749-.437-.866-.743-.711-1.644A74,74,0,0,1,38.893,71.96a.951.951,0,0,0-.088-.875,17.567,17.567,0,0,1-2.245-8.626,1.334,1.334,0,0,0-.628-1.2A22.809,22.809,0,0,1,28.432,52c-.139-.3-.286-.6-.4-.919a1.13,1.13,0,0,1,.578-1.433,1.07,1.07,0,0,1,1.43.582,35.867,35.867,0,0,0,1.63,3.206,21.869,21.869,0,0,0,4.705,5.423c.254.214.345.249.408-.153a31.538,31.538,0,0,1,5.654-13.933c.278-.382.561-.762.873-1.116a.483.483,0,0,0-.019-.755c-.923-1.051-1.837-2.11-2.729-3.188a1.1,1.1,0,1,1,1.644-1.441c.847.962,1.695,1.922,2.51,2.91.268.324.424.416.756.068a27.6,27.6,0,0,1,2.848-2.576c.283-.224.285-.337,0-.6A38.155,38.155,0,0,0,36.87,31.142a30.056,30.056,0,0,0-3.949-1.409c.543.445,1.073.907,1.63,1.333,1.473,1.128,2.817,2.4,4.186,3.651a1.135,1.135,0,0,1,.233,1.709c-.465.511-1.092.509-1.719-.066-1.875-1.718-3.78-3.4-5.807-4.936a44.053,44.053,0,0,0-3.886-2.716c.178,1.006.35,1.931.5,2.859a24.865,24.865,0,0,1,.241,5.878,32.843,32.843,0,0,0,.116,6.079c.067.583.175,1.162.259,1.744a1.146,1.146,0,0,1-.93,1.354,1.1,1.1,0,0,1-1.255-.977,30.244,30.244,0,0,1-.474-4.924,37.031,37.031,0,0,1,.1-3.9,27.642,27.642,0,0,0-1.112-9.012c-.108-.417-.224-.831-.329-1.248a1.108,1.108,0,0,1,1.459-1.4c3.484,1,6.942,2.065,10.315,3.4a51.768,51.768,0,0,1,9.358,4.715,26.875,26.875,0,0,1,4.244,3.386c.251.249.434.362.79.118C57.036,32.549,63.916,29.792,71,27.472c2.268-.743,4.565-1.388,6.851-2.071a1.175,1.175,0,0,1,1.527,1.533A55.559,55.559,0,0,0,77.5,35.869a26.793,26.793,0,0,0-.014,5.781,37.414,37.414,0,0,1,.075,5.021,39.624,39.624,0,0,1-.917,7.225q-.283,1.229-.616,2.445a1.1,1.1,0,1,1-2.119-.534c.339-1.565.743-3.113.988-4.7a44.5,44.5,0,0,0,.479-7.171c-.012-1.557-.172-3.108-.236-4.663a29.571,29.571,0,0,1,.624-6.672c.225-1.2.477-2.4.729-3.667a42.14,42.14,0,0,0-4.075,2.678c-1.755,1.24-3.415,2.6-5.1,3.937a1.085,1.085,0,0,1-1.727-.2,1.043,1.043,0,0,1,.346-1.5c1.33-1.082,2.645-2.183,4.037-3.186a3.549,3.549,0,0,0,.83-.79c-1.012.344-2.031.669-3.035,1.034a77.974,77.974,0,0,0-12.2,5.483A36.553,36.553,0,0,0,45,45.079,28.444,28.444,0,0,0,39.831,55.2a24.046,24.046,0,0,0-1.041,7.787,15.457,15.457,0,0,0,1.263,5.636,3.578,3.578,0,0,0,.512-1.015,76.676,76.676,0,0,1,4.676-9.4,2.424,2.424,0,0,0-.789-3.354c-.179-.122-.372-.225-.542-.358a1.082,1.082,0,0,1,1.106-1.851A4.65,4.65,0,0,1,47.045,54.4c.182.286.273.4.509.04a79.99,79.99,0,0,1,5.237-7.218.735.735,0,0,0,.138-.705,3.1,3.1,0,0,0-1.615-2.071,1.031,1.031,0,0,1-.567-1.083,1.107,1.107,0,0,1,.8-.933,1.151,1.151,0,0,1,.951.183,5.034,5.034,0,0,1,2.2,2.248c1.242-1.347,2.433-2.655,3.642-3.946,1.186-1.266,2.442-2.463,3.711-3.645a1.142,1.142,0,0,1,1.639-.073,1.119,1.119,0,0,1-.082,1.63c-.888.9-1.807,1.762-2.705,2.648-.131.129-.336.214-.349.491a25.4,25.4,0,0,1,2.924.18,6.7,6.7,0,0,1,.865.164,1.067,1.067,0,0,1-.315,2.08,10.258,10.258,0,0,1-1.759-.171,12.441,12.441,0,0,0-4.039.3,1,1,0,0,0-.543.326c-1.651,1.855-3.206,3.789-4.741,5.74-.02.024-.012.07-.026.172a29.537,29.537,0,0,1,3.153.255c.352.038.7.083,1.056.117.807.077,1.352.625,1.251,1.262a1.259,1.259,0,0,1-1.534.933,30.107,30.107,0,0,0-5-.325,1.266,1.266,0,0,0-1.1.621,92.494,92.494,0,0,0-4.98,8.164,1.3,1.3,0,0,0-.063.185c.857.216,1.731.11,2.576.274.539.1,1.09.148,1.631.245a1.093,1.093,0,1,1-.325,2.146,38.389,38.389,0,0,0-4.582-.4.678.678,0,0,0-.709.449c-.961,2.025-1.816,4.1-2.66,6.169a.539.539,0,0,0,.1.628,11.326,11.326,0,0,0,7.429,4.27,16.187,16.187,0,0,0,10.11-2,28.679,28.679,0,0,0,12.55-12.685c.245-.484.518-.955,1.137-1a1.014,1.014,0,0,1,.956.467,1.139,1.139,0,0,1,.043,1.222,31.071,31.071,0,0,1-13.975,14.1,19.167,19.167,0,0,1-9.71,2.228,13.72,13.72,0,0,1-9.147-3.968,1.208,1.208,0,0,0-.486-.395c-.529,1.489-.962,3-1.379,4.521-.572,2.077-1.006,4.185-1.4,6.3a1.913,1.913,0,0,1-.725,1.136Z" fill="#b84955"/>
  </g>
</svg>
