<svg xmlns="http://www.w3.org/2000/svg" viewBox="0 0 64.57 46.66"><defs><style>.cls-1{fill:#b34f5b;}</style></defs><g id="Camada_2" data-name="Camada 2"><g id="Layer_1" data-name="Layer 1"><path class="cls-1" d="M47.25,46.66a9.2,9.2,0,0,1-9-7.38L38.15,39H26.52l-.07.32a9.23,9.23,0,0,1-18.08,0L8.3,39H6.63A6.63,6.63,0,0,1,0,32.33V6.63A6.63,6.63,0,0,1,6.63,0h30.8a6.63,6.63,0,0,1,6.63,6.63V7l.4.09h8.38a1.53,1.53,0,0,1,1.06.46L64.2,17.89A1.49,1.49,0,0,1,64.57,19V37.43A1.53,1.53,0,0,1,63,39H56.36l-.07.32A9.18,9.18,0,0,1,47.25,46.66Zm-.09-15.4a6.18,6.18,0,1,0,6.17,6.17A6.18,6.18,0,0,0,47.16,31.26Zm-29.85,0a6.18,6.18,0,1,0,6.18,6.17A6.18,6.18,0,0,0,17.31,31.26Zm29.85-3.05a9.2,9.2,0,0,1,9,7.37l.06.33h5.35V20.47H44.06v8.28l.53-.18A7.93,7.93,0,0,1,47.16,28.21ZM6.44,3A3.63,3.63,0,0,0,2.86,6.53V32.24a3.55,3.55,0,0,0,3.51,3.58H8.21l.06-.32a9.23,9.23,0,0,1,18.09,0l.06.32H37.86l.06-.32a9,9,0,0,1,2.77-4.89l.13-.12V6.53A3.63,3.63,0,0,0,37.24,3ZM44.06,17.42H59.39l-7.25-7.25H44.06Z"/></g></g></svg>