<svg xmlns="http://www.w3.org/2000/svg" xmlns:xlink="http://www.w3.org/1999/xlink" width="140" height="140" viewBox="0 0 140 140">
  <defs>
    <clipPath id="clip-path">
      <rect id="Retângulo_646" data-name="Retângulo 646" width="140" height="140" fill="#f38599"/>
    </clipPath>
  </defs>
  <g id="Grupo_806" data-name="Grupo 806" clip-path="url(#clip-path)">
    <path id="Caminho_1308" data-name="Caminho 1308" d="M231.329,92.314c1.606.181,3.21.379,4.818.541,2.007.2,4.022.324,6.022.571a5.453,5.453,0,0,1,4.69,5.256c.039,4.94.019,9.881.01,14.822a1.376,1.376,0,0,1-1.407,1.521,1.329,1.329,0,0,1-1.316-1.5c-.013-4.581-.007-9.162-.008-13.744,0-2.633-.775-3.479-3.4-3.728q-5.3-.5-10.606-1.013a2.572,2.572,0,0,0-2.813,1.648c-.709,1.959-1.322,3.951-1.96,5.881l3.521.489c.411-.314.469-.774.094-1.354a10.988,10.988,0,0,1-.8-1.507,1.352,1.352,0,0,1,.579-1.851,1.4,1.4,0,0,1,1.857.605,2.115,2.115,0,0,1,.3.553c.4,1.532,1.569,1.759,2.949,2.037a3.868,3.868,0,0,0,4.025-1.4,1.357,1.357,0,0,1,2.074-.054,1.22,1.22,0,0,1-.1,1.908c-2.5,1.78-3.547,4.536-4.961,7.049-.1.183-.2.368-.3.55-.678,1.193-1.57,1.34-2.545.389-1.269-1.237-2.515-2.5-3.775-3.744a2.586,2.586,0,0,0-2.812-.688,2.619,2.619,0,0,0-1,4.382c1.134,1.2,2.335,2.337,3.507,3.5,1.257,1.25,2.5,2.511,3.778,3.741a2.017,2.017,0,0,1,.671,1.671A77.053,77.053,0,0,1,229.07,137.5a88.86,88.86,0,0,1-6.172,15.175,1.489,1.489,0,0,0,.388,2.171c1.168,1.034,2.234,2.182,3.339,3.287.853.852.967,1.621.344,2.251s-1.417.523-2.27-.308c-6.773-6.608-13.491-13.273-20.335-19.808-6.431-6.14-13-12.142-19.5-18.206a4.773,4.773,0,0,1-.632-.639,1.351,1.351,0,0,1,1.824-1.929,6.928,6.928,0,0,1,.956.819q16.3,15.425,32.594,30.853l.649.614c.15-.26.289-.476.4-.7a86.14,86.14,0,0,0,8.076-24.032c.431-2.53.629-5.1.882-7.657a1.359,1.359,0,0,0-.452-.887c-2.093-2.113-4.193-4.219-6.323-6.294a5.607,5.607,0,0,1-1.389-6.617c1.033-2.7,1.891-5.477,2.68-8.261.691-2.44,1.955-4.256,4.486-5.016Zm1.612,14.553,1.377-2.553a11.277,11.277,0,0,1-1.543-.218c-.9-.263-1.524-.082-1.763.917l1.929,1.853" transform="translate(-136.584 -68.292)" fill="#f38599"/>
    <path id="Caminho_1309" data-name="Caminho 1309" d="M268.309,207.008q0-4.939,0-9.877a7.655,7.655,0,0,1,.007-1.165,1.331,1.331,0,0,1,1.325-1.242,1.3,1.3,0,0,1,1.388,1.158,5.5,5.5,0,0,1,.076,1.071c-.046,6.106.045,12.217-.184,18.317a118.346,118.346,0,0,1-3.583,26.327,42.8,42.8,0,0,1-5.885,13.685,15.894,15.894,0,0,1-4.2,4.282,3.923,3.923,0,0,1-3.548.555,120.2,120.2,0,0,1-34.269-15.637c-.7-.47-1.386-.954-2.074-1.438-.987-.693-1.209-1.426-.664-2.166.524-.71,1.276-.752,2.218-.084a106.367,106.367,0,0,0,13.813,8.289,119.85,119.85,0,0,0,21.726,8.349,1.5,1.5,0,0,0,1.225-.191,28.944,28.944,0,0,0,3.7-3.879c2.776-3.911,4.241-8.412,5.434-13a94.5,94.5,0,0,0,2.722-16.6c.428-5.577.711-11.165,1.057-16.748l-.284-.01" transform="translate(-160.668 -144.419)" fill="#f38599"/>
    <path id="Caminho_1310" data-name="Caminho 1310" d="M104.247,201.412c-1.781-2.473-3.647-4.465-6.806-4.557-.181-.005-.362-.01-.542-.026a1.349,1.349,0,1,1,.065-2.7,9.038,9.038,0,0,1,6.876,2.631,22.457,22.457,0,0,1,2.987,3.582,59.25,59.25,0,0,0,10.277,11.4c.736.664,1.509,1.286,2.249,1.945a1.377,1.377,0,1,1-1.779,2.071,72.882,72.882,0,0,1-11.152-11.225,1.17,1.17,0,0,0-1.211-.506c-3.709.4-7.418.805-11.132,1.148a4.345,4.345,0,0,1-4.668-4.217c-.049-4.371-.023-8.742-.025-13.113q0-9.746,0-19.491a4.347,4.347,0,0,1,3.3-4.473,1.9,1.9,0,0,1,.616-.115c3.809.274,7.631.449,11.422.88,2.743.312,4.857,1.974,6.744,3.885a1.354,1.354,0,0,1-1.792,2.027,4.146,4.146,0,0,1-.615-.527,10.408,10.408,0,0,0-7.559-3.061c-2.315-.093-4.627-.292-6.936-.488-1.712-.145-2.457.5-2.457,2.226q0,15.764,0,31.527c0,1.646.6,2.283,2.238,2.144,3.233-.275,6.459-.63,9.893-.973" transform="translate(-66.451 -121.409)" fill="#f38599"/>
  </g>
</svg>
