<svg xmlns="http://www.w3.org/2000/svg" width="58" height="58" viewBox="0 0 58 58">
  <g id="ICONE-8x" transform="translate(-375 -807)">
    <g id="Elipse_6" data-name="Elipse 6" transform="translate(375 807)" fill="none" stroke="#f38599" stroke-width="2">
      <circle cx="29" cy="29" r="29" stroke="none"/>
      <circle cx="29" cy="29" r="28" fill="none"/>
    </g>
    <g id="Camada_1" data-name="Camada 1" transform="translate(385 820)">
      <g id="Grupo_339" data-name="Grupo 339" transform="translate(-0.001 0)">
        <path id="Caminho_1108" data-name="Caminho 1108" d="M36.281,167.692c1.07,0,2.14,0,3.21,0,.641,0,1.036.339,1.025.863-.01.509-.4.84-1.015.841q-3.29,0-6.582,0a.87.87,0,0,1-.913-.575.792.792,0,0,1,.3-.956,1.35,1.35,0,0,1,.64-.167c1.11-.016,2.22-.008,3.331-.008Z" transform="translate(-28.529 -149.702)" fill="#f38599"/>
        <path id="Caminho_1109" data-name="Caminho 1109" d="M34.516,129.359c-.535,0-1.07.008-1.606,0a.884.884,0,0,1-.971-.853.873.873,0,0,1,.954-.868q1.606-.016,3.213,0a.857.857,0,0,1,.96.852c0,.528-.366.86-.984.87C35.56,129.367,35.038,129.36,34.516,129.359Z" transform="translate(-28.513 -113.939)" fill="#f38599"/>
        <path id="Caminho_1113" data-name="Caminho 1113" d="M35.982,13.916c.005-2.882.018-7.11-.015-9.851A4.283,4.283,0,0,0,35.61,2.4,3.864,3.864,0,0,0,31.784,0Q17.99.01,4.2,0c-.12,0-.241,0-.361.006A3.955,3.955,0,0,0,.018,3.817C-.013,4.753,0,5.69,0,6.627q0,6.5,0,13.008a5.748,5.748,0,0,0,.057,1,3.946,3.946,0,0,0,4.013,3.335c3.91.011,7.82,0,11.728,0A11.389,11.389,0,1,0,35.981,13.916ZM1.947,3.008a2.252,2.252,0,0,1,2.174-1.3q7.91.006,15.82,0H31.787a2.286,2.286,0,0,1,2.469,2.442c0,.307,0,.614,0,.97H1.728a4.261,4.261,0,0,1,.22-2.113Zm2.3,19.259A2.311,2.311,0,0,1,1.71,19.724V6.869H34.257v.488c0,1.325,0,3.06,0,4.6A11.388,11.388,0,0,0,15.384,22.267H4.245ZM26.62,30.285A9.889,9.889,0,1,1,36.509,20.4a9.9,9.9,0,0,1-9.889,9.889Z" transform="translate(0.001 0)" fill="#f38599"/>
        <text id="_8x" data-name="8x" transform="translate(27 25)" fill="#f38599" font-size="13" font-family="OpenSans-Extrabold, Open Sans" font-weight="800" letter-spacing="-0.04em"><tspan x="-7" y="0">8x</tspan></text>
      </g>
    </g>
  </g>
</svg>
