<svg xmlns="http://www.w3.org/2000/svg" width="58" height="58" viewBox="0 0 58 58">
  <g id="ICONE-ENVIO" transform="translate(-975 -807)">
    <g id="Elipse_8" data-name="Elipse 8" transform="translate(975 807)" fill="none" stroke="#f38599" stroke-width="2">
      <circle cx="29" cy="29" r="29" stroke="none"/>
      <circle cx="29" cy="29" r="28" fill="none"/>
    </g>
    <g id="CAIXA_CHECK" data-name="CAIXA CHECK" transform="translate(983.26 815.693)">
      <path id="Caminho_1106" data-name="Caminho 1106" d="M-.009,25.948c.522-1.457,1.771-1.191,2.911-1.2.033-.153.058-.285.091-.416a1.381,1.381,0,0,1,1.285-1.079q1.181-.037,2.363,0a1.389,1.389,0,0,1,1.316,1.091c.028.107.054.215.084.338a1.5,1.5,0,0,0,.867-.75q.531-.991,1.021-2a1.213,1.213,0,0,0,.074-.51q.007-3.321,0-6.641c0-.922.342-1.262,1.268-1.262H22.791c-.114-.185-.191-.305-.263-.429a8.191,8.191,0,0,1,.015-8.982A8.161,8.161,0,0,1,30.653.037c.477.037.723.269.693.612-.031.359-.329.559-.815.51a6.835,6.835,0,0,0-3.451.5,7.234,7.234,0,0,0-4.66,6.317A7.448,7.448,0,1,0,32.942,1.794a1.308,1.308,0,0,1-.378-.234.5.5,0,0,1-.056-.684A.527.527,0,0,1,33.238.7a14.078,14.078,0,0,1,1.839,1.074,8.191,8.191,0,0,1,3.274,5.8,1.268,1.268,0,0,0,.062.21V9.364a1.261,1.261,0,0,0-.065.209,8.3,8.3,0,0,1-4.934,6.805.491.491,0,0,0-.333.529q.012,8.571.006,17.143c0,.985-.367,1.35-1.36,1.35l-11.4,0H7.924a1.378,1.378,0,0,1-1.159.9c-.86.039-1.725.037-2.585,0a1.328,1.328,0,0,1-1.186-1.043c-.034-.132-.058-.266-.093-.433-.331,0-.655-.02-.976,0A1.7,1.7,0,0,1-.01,33.6V29.027c.206-.225.417-.443.764-.3s.377.432.365.747c0,.1,0,.2,0,.3q0,1.689,0,3.376c0,.242.044.5.312.522.49.04.985.011,1.463.011v-7.8c-.444,0-.856,0-1.268,0a.452.452,0,0,0-.506.513c0,.125-.006.251,0,.375.017.323-.045.615-.386.734s-.566-.083-.744-.35v-1.2Zm31.951,8.3V17.005l-3.216.193v3.632a2.668,2.668,0,0,1-.005.3.561.561,0,0,1-.585.557.538.538,0,0,1-.534-.6q-.012-1.951,0-3.9a.362.362,0,0,0-.305-.418,7.241,7.241,0,0,1-3.042-1.708,1.781,1.781,0,0,0-1.6-.377v.433q0,2.251,0,4.5a.868.868,0,0,1-.448.879.828.828,0,0,1-.934-.171c-.541-.424-1.094-.835-1.621-1.275a.373.373,0,0,0-.57,0c-.591.48-1.189.956-1.814,1.391a.728.728,0,0,1-1.15-.49,2.417,2.417,0,0,1-.041-.483q0-2.2,0-4.389v-.4H11.167v5.776a4.942,4.942,0,0,1,1.044.362,2.3,2.3,0,0,1,.854,2.958c-.153.338-.327.667-.52,1.057H13c2.126,0,4.252,0,6.377,0a1.773,1.773,0,0,1,1.894,1.421,5.155,5.155,0,0,1,.009.949,1.823,1.823,0,0,1,2.174,1.334,1.649,1.649,0,0,1-1.087,2.075c.024.092.044.163.062.234a1.714,1.714,0,0,1-1.2,2.11,3.172,3.172,0,0,1-.78.072c-.558.01-1.115,0-1.658,0v1.218H27.6V23.765a3.964,3.964,0,0,1,.01-.412.55.55,0,0,1,1.084-.075,2.006,2.006,0,0,1,.035.446q0,5.047,0,10.092v.432h3.216ZM8.016,25.885V33.6c0,.587,0,.617.588.621,2.8.024,5.6.032,8.4.041a.816.816,0,0,0,.292-.058.561.561,0,0,0,.382-.621.529.529,0,0,0-.5-.516c-.186-.016-.374-.035-.561-.037-.675-.006-1.351,0-2.026-.01a.526.526,0,0,1-.574-.519.544.544,0,0,1,.542-.594,2.826,2.826,0,0,1,.374-.011q2.757,0,5.514,0a2.347,2.347,0,0,0,.411-.02.558.558,0,0,0,.5-.57.571.571,0,0,0-.461-.6,1.69,1.69,0,0,0-.41-.024q-2.551,0-5.1,0a1.612,1.612,0,0,1-.409-.029A.552.552,0,0,1,15,29.567a1.915,1.915,0,0,1,.411-.02q3.038,0,6.077,0a.926.926,0,0,0,.406-.027c.173-.092.412-.228.441-.38a.777.777,0,0,0-.189-.624,1.041,1.041,0,0,0-.654-.182c-2-.013-4-.006-6-.01a1.87,1.87,0,0,1-.519-.055.546.546,0,0,1,.06-1.047,2.287,2.287,0,0,1,.448-.028c1.25,0,2.5,0,3.752,0a2.784,2.784,0,0,0,.447-.032.547.547,0,0,0,.491-.534.558.558,0,0,0-.443-.613,1.746,1.746,0,0,0-.481-.053c-2.2,0-4.4,0-6.6,0a1.105,1.105,0,0,1-1.064-1.749,11.627,11.627,0,0,0,.509-1.082,1.137,1.137,0,0,0-.328-1.265c-.258-.257-.4-.227-.568.094-.3.588-.613,1.174-.9,1.771a3.324,3.324,0,0,1-2.278,2.158ZM6.886,29.814q0-2.456,0-4.913c0-.435-.095-.526-.528-.528-.6,0-1.2.008-1.8,0-.348-.008-.5.136-.5.486q.006,4.932,0,9.863c0,.35.146.5.5.492.6-.011,1.2,0,1.8,0,.465,0,.537-.077.537-.555q0-2.419,0-4.838ZM17.2,19.069c.161-.116.261-.182.356-.255.414-.322.823-.651,1.24-.967a.79.79,0,0,1,1.122,0c.33.246.649.507.976.758.191.147.384.289.6.455V14.688a1.288,1.288,0,0,0-.2-.032c-1.274,0-2.547,0-3.82-.007-.246,0-.285.112-.284.32.006,1.1,0,2.2,0,3.3v.8Z" transform="translate(0.01 -0.003)" fill="#f38599"/>
      <path id="Caminho_1107" data-name="Caminho 1107" d="M338.2,72.617l3.119-3.5q.974-1.092,1.946-2.185c.025-.028.049-.057.075-.083a.584.584,0,0,1,.86-.1.569.569,0,0,1-.011.838c-.465.54-.944,1.068-1.418,1.6q-1.784,2-3.568,4.005a1.162,1.162,0,0,1-2.013,0q-.956-1.083-1.914-2.164c-.05-.056-.1-.11-.148-.17a.569.569,0,0,1,.035-.835.56.56,0,0,1,.8.091c.656.722,1.3,1.456,1.947,2.185.083.093.169.182.29.314Z" transform="translate(-309.827 -61.607)" fill="#f38599"/>
    </g>
  </g>
</svg>
