<svg xmlns="http://www.w3.org/2000/svg" width="32" height="32" viewBox="0 0 32 32">
  <g id="Instagram-Logo" transform="translate(-49.434 -0.249)">
    <rect id="Ret창ngulo_626" data-name="Ret창ngulo 626" width="32" height="32" transform="translate(49.434 0.249)" fill="#fff"/>
    <g id="INSTAGRAM" transform="translate(49.434 0.249)">
      <g id="Instagram_1_" transform="translate(0 0)">
        <rect id="Ret창ngulo_10" data-name="Ret창ngulo 10" width="30.596" height="32" transform="translate(0.302 0)" fill="none"/>
        <path id="Instagram-2" data-name="Instagram" d="M26.461,7.366a1.92,1.92,0,1,1-1.92-1.9A1.908,1.908,0,0,1,26.461,7.366ZM16,21.066A5.267,5.267,0,1,1,21.333,15.8,5.3,5.3,0,0,1,16,21.066ZM16,7.686A8.114,8.114,0,1,0,24.216,15.8,8.165,8.165,0,0,0,16,7.686Zm0-4.839c4.272,0,4.778.016,6.465.092a8.949,8.949,0,0,1,2.971.544,4.965,4.965,0,0,1,1.84,1.182,4.886,4.886,0,0,1,1.2,1.817,8.65,8.65,0,0,1,.551,2.934c.077,1.666.093,2.166.093,6.384s-.016,4.718-.093,6.384a8.644,8.644,0,0,1-.551,2.934,4.89,4.89,0,0,1-1.2,1.817,4.961,4.961,0,0,1-1.84,1.182,8.955,8.955,0,0,1-2.971.544c-1.687.076-2.193.092-6.465.092s-4.779-.016-6.465-.092a8.949,8.949,0,0,1-2.971-.544,4.965,4.965,0,0,1-1.84-1.182,4.889,4.889,0,0,1-1.2-1.817,8.65,8.65,0,0,1-.551-2.934c-.077-1.666-.093-2.166-.093-6.384s.016-4.718.093-6.384a8.644,8.644,0,0,1,.551-2.934,4.89,4.89,0,0,1,1.2-1.817,4.961,4.961,0,0,1,1.84-1.182,8.955,8.955,0,0,1,2.971-.544C11.222,2.863,11.728,2.847,16,2.847ZM16,0c-4.345,0-4.89.018-6.6.1A11.874,11.874,0,0,0,5.519.829,7.851,7.851,0,0,0,2.685,2.652,7.733,7.733,0,0,0,.84,5.45,11.471,11.471,0,0,0,.1,9.285C.018,10.97,0,11.508,0,15.8s.018,4.829.1,6.514A11.471,11.471,0,0,0,.84,26.148a7.733,7.733,0,0,0,1.845,2.8,7.855,7.855,0,0,0,2.834,1.822A11.876,11.876,0,0,0,9.4,31.5c1.707.077,2.252.1,6.6.1s4.89-.018,6.6-.1a11.876,11.876,0,0,0,3.884-.734,7.855,7.855,0,0,0,2.834-1.822,7.736,7.736,0,0,0,1.846-2.8,11.471,11.471,0,0,0,.744-3.835c.078-1.685.1-2.223.1-6.514s-.019-4.829-.1-6.514A11.471,11.471,0,0,0,31.16,5.45a7.736,7.736,0,0,0-1.846-2.8A7.855,7.855,0,0,0,26.48.829,11.876,11.876,0,0,0,22.6.1C20.89.018,20.345,0,16,0Z" transform="translate(0 0.13)" fill="#333" fill-rule="evenodd"/>
      </g>
    </g>
  </g>
</svg>
