<svg width="1557" height="340" viewBox="0 0 1557 340" fill="none" xmlns="http://www.w3.org/2000/svg">
<path d="M230.201 45.2311L304.515 0L350.14 74.2342L313.944 65.4815L260.618 275.875H196.328L155.887 156.41H155.196L117.866 275.875H39.4039L0 122.918H59.4514L80.1901 204.058H80.8815L119.248 78.3776H186.304L224.671 188.175H225.362L259.993 52.4354L230.201 45.2311Z" fill="#E85128"/>
<path d="M517.705 275.487V81.9487H459.756V102.523H459.058C447.538 83.3436 423.799 75.3231 402.505 75.3231C344.206 75.3231 305.107 122.051 305.107 178.544C305.107 236.082 342.81 282.113 402.505 282.113C423.45 282.113 448.585 274.441 459.058 254.564H459.756V275.487H517.705ZM459.756 178.544C459.756 206.441 439.509 228.062 411.232 228.062C384.003 228.062 363.057 206.092 363.057 179.241C363.057 151.692 382.606 129.374 410.883 129.374C439.159 129.374 459.756 150.297 459.756 178.544Z" fill="#E85128"/>
<path d="M744.617 180.636C744.617 124.492 710.056 75.3231 650.012 75.3231C626.274 75.3231 604.63 84.3897 589.619 103.221H588.572V81.9487H534.113V340H592.063V258.051C607.772 275.138 627.321 282.113 650.361 282.113C706.915 282.113 744.617 234.687 744.617 180.636ZM686.667 178.892C686.667 206.092 665.722 228.062 638.143 228.062C610.565 228.062 589.619 206.092 589.619 178.892C589.619 151.344 610.216 129.374 638.143 129.374C666.071 129.374 686.667 151.344 686.667 178.892Z" fill="#E85128"/>
<path d="M817.926 275.487V216.205H757.533V275.487H817.926Z" fill="#E85128"/>
<path d="M920.155 279.114C904.422 279.114 891.11 276.455 880.218 271.136C869.569 265.817 861.46 259.772 855.894 253.002C850.569 246.233 847.906 240.793 847.906 236.682C847.906 234.506 848.753 232.814 850.448 231.605C852.142 230.154 853.957 229.429 855.894 229.429H861.339C863.034 229.429 864.365 229.792 865.333 230.517C866.543 231.001 867.874 232.21 869.327 234.144C874.652 241.639 881.066 247.562 888.569 251.914C896.314 256.025 906.843 258.08 920.155 258.08C935.161 258.08 947.263 255.299 956.461 249.738C965.658 243.936 970.257 235.715 970.257 225.077C970.257 218.549 968.32 213.23 964.448 209.12C960.817 205.01 954.766 201.504 946.295 198.602C938.066 195.459 925.722 191.953 909.263 188.085C887.722 183.249 872.957 176.601 864.97 168.138C857.225 159.676 853.352 148.917 853.352 135.861C853.352 126.915 855.773 118.453 860.613 110.474C865.696 102.496 873.078 95.9677 882.76 90.8904C892.683 85.8131 904.543 83.2744 918.339 83.2744C932.862 83.2744 945.085 85.8131 955.008 90.8904C965.174 95.7259 972.677 101.408 977.518 107.936C982.601 114.464 985.142 119.783 985.142 123.893C985.142 126.069 984.295 127.882 982.601 129.333C981.148 130.542 979.333 131.146 977.155 131.146H971.709C968.32 131.146 965.658 129.575 963.722 126.432C958.881 119.178 953.314 113.738 947.021 110.112C940.97 106.243 931.409 104.309 918.339 104.309C904.301 104.309 893.652 107.21 886.39 113.013C879.129 118.816 875.499 126.432 875.499 135.861C875.499 141.664 876.951 146.499 879.855 150.368C882.76 154.236 888.206 157.863 896.193 161.248C904.18 164.391 915.798 167.655 931.046 171.04C953.556 176.117 969.41 182.887 978.607 191.349C987.804 199.811 992.403 211.054 992.403 225.077C992.403 234.99 989.62 244.057 984.053 252.277C978.486 260.498 970.257 267.025 959.365 271.861C948.473 276.697 935.403 279.114 920.155 279.114Z" fill="#E85128"/>
<path d="M1080.69 275.488C1062.78 275.488 1050.08 270.169 1042.57 259.53C1035.07 248.65 1031.32 233.781 1031.32 214.922V107.936H1003C1000.58 107.936 998.643 107.21 997.191 105.76C995.739 104.309 995.013 102.375 995.013 99.9571V94.8797C995.013 92.4619 995.739 90.5277 997.191 89.0771C998.643 87.6264 1000.58 86.9011 1003 86.9011H1031.32V25.9731C1031.32 23.5553 1032.04 21.6211 1033.5 20.1704C1034.95 18.7197 1036.89 17.9944 1039.31 17.9944H1045.48C1047.9 17.9944 1049.83 18.7197 1051.29 20.1704C1052.74 21.6211 1053.46 23.5553 1053.46 25.9731V86.9011H1098.48C1100.9 86.9011 1102.84 87.6264 1104.29 89.0771C1105.75 90.5277 1106.47 92.4619 1106.47 94.8797V99.9571C1106.47 102.375 1105.75 104.309 1104.29 105.76C1102.84 107.21 1100.9 107.936 1098.48 107.936H1053.46V213.472C1053.46 227.011 1055.64 237.287 1060 244.298C1064.6 251.068 1072.1 254.453 1082.51 254.453H1102.11C1104.54 254.453 1106.47 255.178 1107.92 256.629C1109.38 258.08 1110.1 260.014 1110.1 262.432V267.509C1110.1 269.927 1109.38 271.861 1107.92 273.312C1106.47 274.762 1104.54 275.488 1102.11 275.488H1080.69Z" fill="#E85128"/>
<path d="M1197.73 279.114C1172.56 279.114 1152.96 271.498 1138.92 256.266C1125.12 240.793 1117.86 220.846 1117.14 196.426L1116.77 181.194L1117.14 165.962C1117.86 141.543 1125.12 121.717 1138.92 106.485C1152.96 91.0113 1172.56 83.2744 1197.73 83.2744C1222.91 83.2744 1242.39 91.0113 1256.19 106.485C1270.23 121.717 1277.61 141.543 1278.33 165.962C1278.58 168.38 1278.7 173.458 1278.7 181.194C1278.7 188.931 1278.58 194.009 1278.33 196.426C1277.61 220.846 1270.23 240.793 1256.19 256.266C1242.39 271.498 1222.91 279.114 1197.73 279.114ZM1197.73 258.08C1214.92 258.08 1228.72 252.64 1239.12 241.76C1249.77 230.638 1255.46 214.922 1256.19 194.613C1256.43 192.195 1256.55 187.722 1256.55 181.194C1256.55 174.666 1256.43 170.194 1256.19 167.776C1255.46 147.466 1249.77 131.872 1239.12 120.992C1228.72 109.87 1214.92 104.309 1197.73 104.309C1180.55 104.309 1166.63 109.87 1155.98 120.992C1145.58 131.872 1140.01 147.466 1139.28 167.776L1138.92 181.194L1139.28 194.613C1140.01 214.922 1145.58 230.638 1155.98 241.76C1166.63 252.64 1180.55 258.08 1197.73 258.08Z" fill="#E85128"/>
<path d="M1314.5 275.488C1312.08 275.488 1310.14 274.762 1308.69 273.312C1307.24 271.861 1306.51 269.927 1306.51 267.509V95.2424C1306.51 92.8246 1307.24 90.8904 1308.69 89.4397C1310.14 87.7473 1312.08 86.9011 1314.5 86.9011H1320.31C1322.73 86.9011 1324.67 87.7473 1326.12 89.4397C1327.81 90.8904 1328.66 92.8246 1328.66 95.2424V111.925C1337.37 95.2424 1353.83 86.9011 1378.04 86.9011H1391.47C1393.89 86.9011 1395.83 87.6264 1397.28 89.0771C1398.73 90.5277 1399.46 92.4619 1399.46 94.8797V99.9571C1399.46 102.375 1398.73 104.309 1397.28 105.76C1395.83 107.21 1393.89 107.936 1391.47 107.936H1375.86C1361.33 107.936 1349.84 112.167 1341.37 120.629C1332.9 129.091 1328.66 140.576 1328.66 155.082V267.509C1328.66 269.927 1327.81 271.861 1326.12 273.312C1324.67 274.762 1322.73 275.488 1320.31 275.488H1314.5Z" fill="#E85128"/>
<path d="M1476.76 279.114C1453.77 279.114 1435.25 271.619 1421.22 256.629C1407.18 241.397 1399.19 221.088 1397.25 195.701L1396.89 181.194L1397.25 166.688C1399.19 141.543 1407.06 121.354 1420.85 106.122C1434.89 90.8904 1453.53 83.2744 1476.76 83.2744C1501.94 83.2744 1521.54 91.6157 1535.58 108.298C1549.86 124.981 1557 147.829 1557 176.842V182.282C1557 184.7 1556.15 186.634 1554.46 188.085C1553.01 189.536 1551.07 190.261 1548.65 190.261H1419.4V193.888C1419.89 205.251 1422.43 215.89 1427.03 225.802C1431.87 235.473 1438.52 243.331 1446.99 249.376C1455.46 255.178 1465.39 258.08 1476.76 258.08C1490.08 258.08 1500.85 255.541 1509.08 250.464C1517.55 245.145 1523.6 239.826 1527.23 234.506C1529.41 231.605 1530.98 229.792 1531.95 229.066C1533.16 228.341 1535.22 227.978 1538.12 227.978H1543.93C1546.11 227.978 1547.92 228.583 1549.38 229.792C1550.83 231.001 1551.55 232.572 1551.55 234.506C1551.55 239.584 1548.29 245.749 1541.75 253.002C1535.46 260.014 1526.62 266.179 1515.25 271.498C1503.87 276.576 1491.04 279.114 1476.76 279.114ZM1534.85 169.952V168.501C1534.85 149.884 1529.53 134.531 1518.88 122.442C1508.47 110.354 1494.43 104.309 1476.76 104.309C1459.1 104.309 1445.06 110.354 1434.65 122.442C1424.48 134.531 1419.4 149.884 1419.4 168.501V169.952H1534.85Z" fill="#E85128"/>
</svg>
