<svg xmlns="http://www.w3.org/2000/svg" xmlns:xlink="http://www.w3.org/1999/xlink" width="126" height="126" viewBox="0 0 126 126">
  <defs>
    <clipPath id="clip-path">
      <rect id="Retângulo_707" data-name="Retângulo 707" width="126" height="126" fill="none"/>
    </clipPath>
  </defs>
  <g id="PASSO_1" data-name="PASSO 1" clip-path="url(#clip-path)">
    <path id="Caminho_1608" data-name="Caminho 1608" d="M168.37,138.68a1.993,1.993,0,0,0,1,.313,3.814,3.814,0,0,0,3.232-1.587,10.53,10.53,0,0,0,1.911-6.186.289.289,0,0,1,0-.1" transform="translate(-81.438 -63.418)" fill="none" stroke="#fef8f9" stroke-width="2"/>
    <path id="Caminho_1609" data-name="Caminho 1609" d="M74.007,138.586a2.77,2.77,0,0,1-1.159.429,3.8,3.8,0,0,1-3.232-1.587,10.394,10.394,0,0,1-1.923-6.244v-.023" transform="translate(-32.743 -63.44)" fill="none" stroke="#fef8f9" stroke-width="2"/>
    <path id="Caminho_1610" data-name="Caminho 1610" d="M124.323,154.973a4.317,4.317,0,0,1-4.41,0" transform="translate(-58 -74.958)" fill="none" stroke="#fef8f9" stroke-width="2"/>
    <path id="Caminho_1611" data-name="Caminho 1611" d="M124.473,171.46a10.169,10.169,0,0,1-9.115,0" transform="translate(-55.797 -82.933)" fill="none" stroke="#fef8f9" stroke-width="2"/>
    <path id="Caminho_1612" data-name="Caminho 1612" d="M78.251,132.5c-.046-.162-.092-.336-.139-.51-.07-.255-.139-.51-.2-.765a54.408,54.408,0,0,1-1.448-11.793v-.858" transform="translate(-36.986 -57.351)" fill="none" stroke="#fef8f9" stroke-width="2"/>
    <path id="Caminho_1613" data-name="Caminho 1613" d="M105.859,150.822c3.244,2.375,6.719,4.066,9.465,4.066,5.236,0,13.149-6.152,16.972-11.562a40.022,40.022,0,0,0,6.012-13.184c.07-.255.139-.51.2-.765a55.094,55.094,0,0,0,1.46-13.38v-1.24" transform="translate(-51.202 -55.507)" fill="none" stroke="#fef8f9" stroke-width="2"/>
    <path id="Caminho_1614" data-name="Caminho 1614" d="M85.728,70.745c-2.286,11.484-6.5,12.633-13.051,16.078v.012c-3.218,1.688-5.093,5.236-6.145,8.3a.184.184,0,0,1-.023.075,31.1,31.1,0,0,1,8.745-31.548c7.907-7.515,26.509-10.5,38.844-1.092,9.14,6.972,14.3,18.91,10.55,32.64a.283.283,0,0,1,0-.1c-1.223-4.714-2-8.151-6.125-9.9-11.31-4.781-25.036.717-30.759-9.551a23.256,23.256,0,0,1-2-4.781.6.6,0,0,1-.036-.139" transform="translate(-31.575 -27.416)" fill="none" stroke="#fef8f9" stroke-width="2"/>
    <path id="Caminho_1615" data-name="Caminho 1615" d="M124.361,51.1a4.354,4.354,0,0,0,.748-2.6c0-5.707-6.963-10.12-15.169-10.12S94.436,42.72,94.773,48.5a8.665,8.665,0,0,0,.526,2.03" transform="translate(-45.835 -18.565)" fill="none" stroke="#fef8f9" stroke-width="2"/>
    <path id="Caminho_1616" data-name="Caminho 1616" d="M142.34,184.746a46.774,46.774,0,0,0,0,7.961" transform="translate(-68.763 -89.359)" fill="none" stroke="#fef8f9" stroke-width="2"/>
    <path id="Caminho_1617" data-name="Caminho 1617" d="M105.86,184.6a47.8,47.8,0,0,1,0,8.037" transform="translate(-51.203 -89.288)" fill="none" stroke="#fef8f9" stroke-width="2"/>
    <path id="Caminho_1618" data-name="Caminho 1618" d="M91.972,131.608c1.948-2.1,6.965-2.958,10.449.8" transform="translate(-44.485 -62.787)" fill="none" stroke="#fef8f9" stroke-width="2"/>
    <path id="Caminho_1619" data-name="Caminho 1619" d="M102.168,133.643a.958.958,0,1,1-.957-.986A.972.972,0,0,1,102.168,133.643Z" transform="translate(-48.491 -64.164)" fill="none" stroke="#fef8f9" stroke-width="2"/>
    <path id="Caminho_1620" data-name="Caminho 1620" d="M146.606,131.608c-1.948-2.1-6.965-2.958-10.449.8" transform="translate(-65.857 -62.787)" fill="none" stroke="#fef8f9" stroke-width="2"/>
    <path id="Caminho_1621" data-name="Caminho 1621" d="M144.4,133.643a.958.958,0,1,0,.957-.986A.972.972,0,0,0,144.4,133.643Z" transform="translate(-69.847 -64.164)" fill="none" stroke="#fef8f9" stroke-width="2"/>
    <path id="Caminho_1622" data-name="Caminho 1622" d="M103.16,119.915a18.169,18.169,0,0,0-7.275,0" transform="translate(-46.378 -57.821)" fill="none" stroke="#fef8f9" stroke-width="2"/>
    <path id="Caminho_1623" data-name="Caminho 1623" d="M138.222,119.915a18.169,18.169,0,0,1,7.275,0" transform="translate(-66.856 -57.821)" fill="none" stroke="#fef8f9" stroke-width="2"/>
    <path id="Caminho_1624" data-name="Caminho 1624" d="M78.511,155.189a8.336,8.336,0,0,0-.591,1.245" transform="translate(-37.689 -75.063)" fill="none" stroke="#fef8f9" stroke-width="2"/>
    <path id="Caminho_1625" data-name="Caminho 1625" d="M91.111,162.479a8.438,8.438,0,1,0-12.048-11.216" transform="translate(-38.242 -71.137)" fill="none" stroke="#fef8f9" stroke-width="2"/>
    <path id="Caminho_1626" data-name="Caminho 1626" d="M71.7,169.42c.441-.621.763-1.346,1.084-1.8a.028.028,0,0,1,.009-.016c2.479-3.409,8.957-9.733,10.341-8.469,2,1.827,1.736,8.912.037,12.531a32.066,32.066,0,0,1-3.955,6c-.6.971-.925,1.271-1.735,2.45" transform="translate(-34.681 -76.893)" fill="none" stroke="#fef8f9" stroke-width="2"/>
    <path id="Caminho_1627" data-name="Caminho 1627" d="M70.772,179.772a3.956,3.956,0,0,0,.48-.567" transform="translate(-34.231 -86.679)" fill="none" stroke="#fef8f9" stroke-width="2"/>
    <path id="Caminho_1628" data-name="Caminho 1628" d="M67.795,169.367a.028.028,0,0,1,.01-.016c.165-.353,2.555-5.648-.787-6.773-.722.108-1.225,2.531-2.64,4.073-.652.859-.909,2.7-1.606,4.571a29.938,29.938,0,0,0-1.209,4.6,18.112,18.112,0,0,0,.177,6.041" transform="translate(-29.69 -78.637)" fill="none" stroke="#fef8f9" stroke-width="2"/>
    <path id="Caminho_1629" data-name="Caminho 1629" d="M63,0a63,63,0,1,0,63,63A63,63,0,0,0,63,0m0,123.408A60.407,60.407,0,1,1,123.407,63,60.407,60.407,0,0,1,63,123.408" fill="#fef8f9"/>
  </g>
</svg>
