<svg id="passo_3" data-name="passo 3" xmlns="http://www.w3.org/2000/svg" xmlns:xlink="http://www.w3.org/1999/xlink" width="135.963" height="135.963" viewBox="0 0 135.963 135.963">
  <defs>
    <clipPath id="clip-path">
      <rect id="Retângulo_703" data-name="Retângulo 703" width="135.963" height="135.963" fill="none"/>
    </clipPath>
  </defs>
  <g id="passo_3-2" data-name="passo 3" clip-path="url(#clip-path)">
    <path id="Caminho_1535" data-name="Caminho 1535" d="M67.981,0a67.981,67.981,0,1,0,67.981,67.982A67.981,67.981,0,0,0,67.981,0m0,133.165a65.184,65.184,0,1,1,65.184-65.184,65.184,65.184,0,0,1-65.184,65.184" fill="#b84955"/>
    <path id="Caminho_1536" data-name="Caminho 1536" d="M165.627,131.256a57.766,57.766,0,0,0,.859-9.088v-.877" transform="translate(-73.349 -53.715)" fill="none" stroke="#b84955" stroke-width="3"/>
    <path id="Caminho_1537" data-name="Caminho 1537" d="M76.849,117.681v1.272a59.934,59.934,0,0,0,.73,9.887" transform="translate(-34.033 -52.116)" fill="none" stroke="#b84955" stroke-width="3"/>
    <path id="Caminho_1538" data-name="Caminho 1538" d="M107.692,77.088c2.334,11.726,6.633,12.9,13.326,16.416v.013c3.286,1.723,5.2,5.347,6.274,8.477a.192.192,0,0,0,.023.076,31.757,31.757,0,0,0-8.929-32.213c-8.074-7.673-27.066-10.723-39.662-1.115-9.333,7.119-14.6,19.308-10.772,33.328a.288.288,0,0,0,0-.1c1.249-4.814,2.038-8.322,6.253-10.1,11.549-4.881,25.564.732,31.408-9.752a23.753,23.753,0,0,0,2.043-4.882.6.6,0,0,0,.037-.142" transform="translate(-29.536 -27.78)" fill="none" stroke="#b84955" stroke-width="3"/>
    <path id="Caminho_1539" data-name="Caminho 1539" d="M117.961,155.773a4.408,4.408,0,0,0,4.5,0" transform="translate(-52.24 -68.986)" fill="none" stroke="#b84955" stroke-width="3"/>
    <path id="Caminho_1540" data-name="Caminho 1540" d="M112.993,170.8a9.32,9.32,0,0,0,10.04,0" transform="translate(-50.04 -75.641)" fill="none" stroke="#b84955" stroke-width="3"/>
    <path id="Caminho_1541" data-name="Caminho 1541" d="M94.979,58.4a4.451,4.451,0,0,1-.764-2.657c0-5.83,7.113-10.337,15.5-10.337s15.837,4.431,15.492,10.337a8.873,8.873,0,0,1-.538,2.074" transform="translate(-41.724 -20.108)" fill="none" stroke="#b84955" stroke-width="3"/>
    <path id="Caminho_1542" data-name="Caminho 1542" d="M144.012,133.79c-1.99-2.149-7.115-3.022-10.674.82" transform="translate(-59.05 -58.437)" fill="none" stroke="#b84955" stroke-width="3"/>
    <path id="Caminho_1543" data-name="Caminho 1543" d="M91.511,133.79c1.99-2.149,7.115-3.022,10.674.82" transform="translate(-40.527 -58.437)" fill="none" stroke="#b84955" stroke-width="3"/>
    <path id="Caminho_1544" data-name="Caminho 1544" d="M135.452,122.615a18.551,18.551,0,0,1,7.432,0" transform="translate(-59.986 -54.133)" fill="none" stroke="#b84955" stroke-width="3"/>
    <path id="Caminho_1545" data-name="Caminho 1545" d="M102.807,122.615a18.551,18.551,0,0,0-7.432,0" transform="translate(-42.238 -54.133)" fill="none" stroke="#b84955" stroke-width="3"/>
    <path id="Caminho_1546" data-name="Caminho 1546" d="M57.5,146.3c-1.262-3-3.863-9.325-9.072-8.519-2.548.394-4.042,3.309-2.465,5.35a3.567,3.567,0,0,0,.324.363c1.846,1.8,3.91,1.651,6.166,1.293A5.44,5.44,0,0,1,57.5,146.3Z" transform="translate(-20.071 -60.986)" fill="none" stroke="#b84955" stroke-width="3"/>
    <path id="Caminho_1547" data-name="Caminho 1547" d="M58.305,165.786c-2.159-.175-6.687.246-7.809,3.57-.549,1.626,1.071,3.766,2.76,3.461C56.487,172.25,55.96,167.045,58.305,165.786Z" transform="translate(-22.315 -73.405)" fill="none" stroke="#b84955" stroke-width="3"/>
    <path id="Caminho_1548" data-name="Caminho 1548" d="M79.646,174.76a14.835,14.835,0,0,0-.864-4c-.586-1-5.149-5.31-5.457-6.492s-.6-6.219,1.69-12.247c2.107-5.541,3.661-6.941,5.3-7.267,2.295-.457,4.162,4.6,4.566,6.324.333,1.417-1.008,5.093-1.229,8.773a12.613,12.613,0,0,0,1.1,5.3,27.925,27.925,0,0,1,1.591,9.612" transform="translate(-32.381 -64.094)" fill="none" stroke="#b84955" stroke-width="3"/>
    <path id="Caminho_1549" data-name="Caminho 1549" d="M104.647,183.9a47.878,47.878,0,0,1,0,8.149" transform="translate(-46.344 -81.442)" fill="none" stroke="#b84955" stroke-width="3"/>
    <path id="Caminho_1550" data-name="Caminho 1550" d="M124.208,182.385c-3.586,2.836-7.589,4.932-10.681,4.932s-7.1-2.1-10.684-4.934" transform="translate(-45.545 -80.77)" fill="none" stroke="#b84955" stroke-width="3"/>
    <path id="Caminho_1551" data-name="Caminho 1551" d="M139.218,183.9a47.876,47.876,0,0,0,0,8.149" transform="translate(-61.575 -81.442)" fill="none" stroke="#b84955" stroke-width="3"/>
    <path id="Caminho_1552" data-name="Caminho 1552" d="M176.848,146.3c1.262-3,3.863-9.325,9.072-8.519,2.548.394,4.042,3.309,2.465,5.35a3.507,3.507,0,0,1-.324.363c-1.845,1.8-3.909,1.651-6.165,1.293A5.44,5.44,0,0,0,176.848,146.3Z" transform="translate(-78.319 -60.986)" fill="none" stroke="#b84955" stroke-width="3"/>
    <path id="Caminho_1553" data-name="Caminho 1553" d="M179.438,165.786c2.159-.175,6.687.246,7.808,3.57.549,1.626-1.071,3.766-2.76,3.461C181.255,172.25,181.783,167.045,179.438,165.786Z" transform="translate(-79.466 -73.405)" fill="none" stroke="#b84955" stroke-width="3"/>
    <path id="Caminho_1554" data-name="Caminho 1554" d="M153.85,174.76a14.835,14.835,0,0,1,.864-4c.586-1,5.149-5.31,5.457-6.492s.6-6.219-1.69-12.247c-2.107-5.541-3.661-6.941-5.3-7.267-2.295-.457-4.162,4.6-4.566,6.324-.333,1.417,1.007,5.093,1.228,8.773a12.613,12.613,0,0,1-1.1,5.3,27.925,27.925,0,0,0-1.591,9.612" transform="translate(-65.169 -64.094)" fill="none" stroke="#b84955" stroke-width="3"/>
  </g>
</svg>
