<svg xmlns="http://www.w3.org/2000/svg" xmlns:xlink="http://www.w3.org/1999/xlink" width="135" height="135" viewBox="0 0 135 135">
  <defs>
    <clipPath id="clip-path">
      <rect id="Retângulo_704" data-name="Retângulo 704" width="135" height="135" fill="none"/>
    </clipPath>
  </defs>
  <g id="PASSO_2" data-name="PASSO 2" clip-path="url(#clip-path)">
    <path id="Caminho_1556" data-name="Caminho 1556" d="M67.5,0A67.5,67.5,0,1,0,135,67.5,67.5,67.5,0,0,0,67.5,0m0,132.222A64.722,64.722,0,1,1,132.222,67.5,64.722,64.722,0,0,1,67.5,132.222" fill="#f38599"/>
    <path id="Caminho_1557" data-name="Caminho 1557" d="M60.6,133.414a.314.314,0,0,1,0,.106,10.567,10.567,0,0,0,1.946,6.26A3.836,3.836,0,0,0,65.8,141.4a2.373,2.373,0,0,0,1.02-.328" transform="translate(-27.075 -59.61)" fill="none" stroke="#f38599" stroke-width="3"/>
    <path id="Caminho_1558" data-name="Caminho 1558" d="M83.647,122.873a19.833,19.833,0,0,1,7.642-.7" transform="translate(-37.374 -54.531)" fill="none" stroke="#f38599" stroke-width="3"/>
    <path id="Caminho_1559" data-name="Caminho 1559" d="M109.537,155.954a4.369,4.369,0,0,0,4.463,0" transform="translate(-48.942 -69.681)" fill="none" stroke="#f38599" stroke-width="3"/>
    <path id="Caminho_1560" data-name="Caminho 1560" d="M104.58,170.949a9.235,9.235,0,0,0,9.948,0" transform="translate(-46.727 -76.381)" fill="none" stroke="#f38599" stroke-width="3"/>
    <path id="Caminho_1561" data-name="Caminho 1561" d="M68.479,117.964v1.266a56.318,56.318,0,0,0,1.477,13.529c.07.258.129.516.211.774a40.21,40.21,0,0,0,6.085,13.354c3.857,5.475,11.876,11.7,17.175,11.7s13.307-6.225,17.164-11.7a38.113,38.113,0,0,0,4.01-7.245" transform="translate(-30.597 -52.707)" fill="none" stroke="#f38599" stroke-width="3"/>
    <path id="Caminho_1562" data-name="Caminho 1562" d="M112.184,93.632V93.62c-6.624-3.494-10.891-4.655-13.2-16.273a.616.616,0,0,1-.035.141A24.419,24.419,0,0,1,96.92,82.33c-5.791,10.387-19.684,4.818-31.127,9.66-4.185,1.77-4.959,5.24-6.2,10.012a.311.311,0,0,1,0,.105c-3.787-13.892,1.43-25.98,10.68-33.037,12.486-9.52,31.3-6.5,39.31,1.114a32.2,32.2,0,0,1,9.532,17.093" transform="translate(-26.069 -28.199)" fill="none" stroke="#f38599" stroke-width="3"/>
    <path id="Caminho_1563" data-name="Caminho 1563" d="M86.6,58.7a4.411,4.411,0,0,1-.757-2.633c0-5.776,7.047-10.241,15.352-10.241s15.69,4.39,15.348,10.241a8.78,8.78,0,0,1-.533,2.055" transform="translate(-38.356 -20.478)" fill="none" stroke="#f38599" stroke-width="3"/>
    <path id="Caminho_1564" data-name="Caminho 1564" d="M96.267,184.076a47.326,47.326,0,0,1,0,8.057" transform="translate(-43.013 -82.246)" fill="none" stroke="#f38599" stroke-width="3"/>
    <path id="Caminho_1565" data-name="Caminho 1565" d="M130.734,184.076a47.326,47.326,0,0,0,0,8.057" transform="translate(-58.334 -82.246)" fill="none" stroke="#f38599" stroke-width="3"/>
    <path id="Caminho_1566" data-name="Caminho 1566" d="M135.454,134.006c-1.971-2.129-7.048-2.994-10.575.813" transform="translate(-55.797 -59.062)" fill="none" stroke="#f38599" stroke-width="3"/>
    <path id="Caminho_1567" data-name="Caminho 1567" d="M132.671,135.874a.969.969,0,1,0,.969-1A.984.984,0,0,0,132.671,135.874Z" transform="translate(-59.278 -60.263)" fill="none" stroke="#f38599" stroke-width="3"/>
    <path id="Caminho_1568" data-name="Caminho 1568" d="M83.146,134.006c1.971-2.129,7.048-2.994,10.575.813" transform="translate(-37.15 -59.062)" fill="none" stroke="#f38599" stroke-width="3"/>
    <path id="Caminho_1569" data-name="Caminho 1569" d="M137.322,122.873a19.833,19.833,0,0,0-7.642-.7" transform="translate(-57.942 -54.531)" fill="none" stroke="#f38599" stroke-width="3"/>
    <path id="Caminho_1570" data-name="Caminho 1570" d="M92.906,135.874a.969.969,0,1,1-.969-1A.984.984,0,0,1,92.906,135.874Z" transform="translate(-40.645 -60.263)" fill="none" stroke="#f38599" stroke-width="3"/>
    <path id="Caminho_1571" data-name="Caminho 1571" d="M167.988,106.795l-6.19,5.967v.012l-3.822,3.682-2.134,2.052-1.454,1.407a4.915,4.915,0,0,0-1.371,5.581,3.276,3.276,0,0,0,.539.75,3.2,3.2,0,0,0,.726.551,3.768,3.768,0,0,0,.376.188,4.989,4.989,0,0,0,5.1-1.219,1.561,1.561,0,0,0,.152-.129l13.6-13.107" transform="translate(-68.192 -47.717)" fill="none" stroke="#f38599" stroke-width="3"/>
    <path id="Caminho_1572" data-name="Caminho 1572" d="M188.962,95.556l6.324-6.1a2.929,2.929,0,0,1,4.162.07,2.94,2.94,0,0,1-.082,4.15l-6.324,6.115" transform="translate(-84.429 -39.596)" fill="none" stroke="#f38599" stroke-width="3"/>
    <path id="Caminho_1573" data-name="Caminho 1573" d="M187.646,103.155l1.888,1.958a1.289,1.289,0,0,1-.033,1.823l-2.155,2.078a1.29,1.29,0,0,1-1.823-.033l-8.264-8.571a1.29,1.29,0,0,1,.034-1.823l2.155-2.078a1.29,1.29,0,0,1,1.823.034l2.3,2.382" transform="translate(-79.039 -42.959)" fill="none" stroke="#f38599" stroke-width="3"/>
  </g>
</svg>
