<svg xmlns="http://www.w3.org/2000/svg" xmlns:xlink="http://www.w3.org/1999/xlink" width="78" height="78" viewBox="0 0 78 78">
  <defs>
    <clipPath id="clip-path">
      <rect id="Retângulo_660" data-name="Retângulo 660" width="78" height="78" fill="none" stroke="#f38599" stroke-width="3"/>
    </clipPath>
  </defs>
  <g id="Protege_e_nutre" data-name="Protege  e nutre" transform="translate(0 0.001)">
    <line id="Linha_17" data-name="Linha 17" x2="40.376" transform="translate(18.813 59.298)" fill="none" stroke="#f38599" stroke-linecap="round" stroke-linejoin="round" stroke-width="3"/>
    <line id="Linha_18" data-name="Linha 18" x2="40.376" transform="translate(18.813 46.793)" fill="none" stroke="#f38599" stroke-linecap="round" stroke-linejoin="round" stroke-width="3"/>
    <g id="Protege_e_nutre-2" data-name="Protege  e nutre" transform="translate(0 -0.001)">
      <g id="Grupo_917" data-name="Grupo 917" clip-path="url(#clip-path)">
        <circle id="Elipse_12" data-name="Elipse 12" cx="4.511" cy="4.511" r="4.511" transform="translate(15.319 19.829)" fill="none" stroke="#f38599" stroke-linecap="round" stroke-linejoin="round" stroke-width="3"/>
        <line id="Linha_19" data-name="Linha 19" y1="3.383" transform="translate(19.829 13.063)" fill="none" stroke="#f38599" stroke-linecap="round" stroke-linejoin="round" stroke-width="3"/>
        <line id="Linha_20" data-name="Linha 20" y1="3.383" transform="translate(19.829 32.234)" fill="none" stroke="#f38599" stroke-linecap="round" stroke-linejoin="round" stroke-width="3"/>
        <line id="Linha_21" data-name="Linha 21" y1="2.392" x2="2.392" transform="translate(25.411 16.367)" fill="none" stroke="#f38599" stroke-linecap="round" stroke-linejoin="round" stroke-width="3"/>
        <line id="Linha_22" data-name="Linha 22" y1="2.393" x2="2.393" transform="translate(11.855 29.922)" fill="none" stroke="#f38599" stroke-linecap="round" stroke-linejoin="round" stroke-width="3"/>
        <line id="Linha_23" data-name="Linha 23" x2="3.383" transform="translate(27.722 24.34)" fill="none" stroke="#f38599" stroke-linecap="round" stroke-linejoin="round" stroke-width="3"/>
        <line id="Linha_24" data-name="Linha 24" x2="3.384" transform="translate(8.551 24.342)" fill="none" stroke="#f38599" stroke-linecap="round" stroke-linejoin="round" stroke-width="3"/>
        <line id="Linha_25" data-name="Linha 25" x2="2.392" y2="2.392" transform="translate(25.411 29.921)" fill="none" stroke="#f38599" stroke-linecap="round" stroke-linejoin="round" stroke-width="3"/>
        <line id="Linha_26" data-name="Linha 26" x2="2.393" y2="2.394" transform="translate(11.853 16.367)" fill="none" stroke="#f38599" stroke-linecap="round" stroke-linejoin="round" stroke-width="3"/>
        <path id="Caminho_1364" data-name="Caminho 1364" d="M135.193,73.153a3.383,3.383,0,1,0,3.383-3.383,3.383,3.383,0,1,1,3.383-3.383" transform="translate(-95.065 -44.303)" fill="none" stroke="#f38599" stroke-linecap="round" stroke-linejoin="round" stroke-width="3"/>
        <path id="Caminho_1365" data-name="Caminho 1365" d="M179.952,66.391a3.383,3.383,0,0,1-3.383,3.383h-3.383V63.008h3.383A3.383,3.383,0,0,1,179.952,66.391Z" transform="translate(-121.781 -44.306)" fill="none" stroke="#f38599" stroke-linecap="round" stroke-linejoin="round" stroke-width="3"/>
        <line id="Linha_27" data-name="Linha 27" y2="6.765" transform="translate(51.405 25.469)" fill="none" stroke="#f38599" stroke-linecap="round" stroke-linejoin="round" stroke-width="3"/>
        <path id="Caminho_1366" data-name="Caminho 1366" d="M211.179,76.537V63.005h6.766" transform="translate(-148.497 -44.304)" fill="none" stroke="#f38599" stroke-linecap="round" stroke-linejoin="round" stroke-width="3"/>
        <line id="Linha_28" data-name="Linha 28" x2="5.638" transform="translate(62.682 25.468)" fill="none" stroke="#f38599" stroke-linecap="round" stroke-linejoin="round" stroke-width="3"/>
        <path id="Caminho_1367" data-name="Caminho 1367" d="M85.8,131.392l15.788,15.788,13.532-13.532" transform="translate(-60.335 -92.392)" fill="none" stroke="#f38599" stroke-linecap="round" stroke-linejoin="round" stroke-width="3"/>
        <path id="Caminho_1368" data-name="Caminho 1368" d="M165.588,138.99h5.638v5.638" transform="translate(-116.438 -97.735)" fill="none" stroke="#f38599" stroke-linecap="round" stroke-linejoin="round" stroke-width="3"/>
        <path id="Caminho_1369" data-name="Caminho 1369" d="M169.74,148.116l4.406,4.406,13.532-13.533" transform="translate(-119.357 -97.735)" fill="none" stroke="#f38599" stroke-linecap="round" stroke-linejoin="round" stroke-width="3"/>
        <line id="Linha_29" data-name="Linha 29" x2="6.764" y2="6.765" transform="translate(39 39)" fill="none" stroke="#f38599" stroke-linecap="round" stroke-linejoin="round" stroke-width="3"/>
        <path id="Caminho_1370" data-name="Caminho 1370" d="M211.179,138.99h5.638v5.638" transform="translate(-148.497 -97.735)" fill="none" stroke="#f38599" stroke-linecap="round" stroke-linejoin="round" stroke-width="3"/>
      </g>
    </g>
  </g>
</svg>
