<svg xmlns="http://www.w3.org/2000/svg" xmlns:xlink="http://www.w3.org/1999/xlink" width="104" height="104" viewBox="0 0 104 104">
  <defs>
    <clipPath id="clip-path">
      <rect id="Retângulo_697" data-name="Retângulo 697" width="104" height="104" fill="#fff"/>
    </clipPath>
  </defs>
  <g id="SEM_SULFATOS" data-name="SEM SULFATOS" clip-path="url(#clip-path)">
    <path id="Caminho_1450" data-name="Caminho 1450" d="M111.865,98.417,96.571,71.927a14.01,14.01,0,0,1-1.877-7V53.968h.286a2.061,2.061,0,0,0,0-4.121H79.234a2.061,2.061,0,0,0,0,4.121h.285V64.923a14.006,14.006,0,0,1-1.877,7L62.349,98.417a8.63,8.63,0,0,0,7.474,12.944h34.57A8.629,8.629,0,0,0,111.865,98.417Z" transform="translate(-35.107 -28.604)" fill="none" stroke="#fff" stroke-width="2"/>
    <line id="Linha_22" data-name="Linha 22" x2="4.568" y2="7.912" transform="translate(67.883 64.388)" fill="none" stroke="#fff" stroke-width="2"/>
    <path id="Caminho_1451" data-name="Caminho 1451" d="M76.519,169.246a3.656,3.656,0,0,1-3.166-5.484l2.526-4.375" transform="translate(-41.804 -91.462)" fill="none" stroke="#fff" stroke-width="2"/>
    <path id="Caminho_1452" data-name="Caminho 1452" d="M117.791,108.94l-.142-.058a5.311,5.311,0,0,0-2.371-.429c-5.873.472-8.04,5.1-14.513,3.114-2.064-.632-4.086-1.783-6.017-2.28" transform="translate(-54.37 -62.227)" fill="none" stroke="#fff" stroke-width="2"/>
    <line id="Linha_23" data-name="Linha 23" x1="3.151" transform="translate(56.436 25.364)" fill="none" stroke="#fff" stroke-width="2"/>
    <path id="Caminho_1453" data-name="Caminho 1453" d="M138.181,149.371a3.077,3.077,0,1,1-3.077-3.077A3.077,3.077,0,0,1,138.181,149.371Z" transform="translate(-75.762 -83.949)" fill="none" stroke="#fff" stroke-width="2"/>
    <path id="Caminho_1454" data-name="Caminho 1454" d="M104.192,163.1a4.58,4.58,0,1,1-4.58-4.58A4.58,4.58,0,0,1,104.192,163.1Z" transform="translate(-54.533 -90.964)" fill="none" stroke="#fff" stroke-width="2"/>
    <path id="Caminho_1455" data-name="Caminho 1455" d="M114.862,131.159a2.224,2.224,0,1,1-2.223-2.224A2.223,2.223,0,0,1,114.862,131.159Z" transform="translate(-63.36 -73.987)" fill="none" stroke="#fff" stroke-width="2"/>
    <path id="Caminho_1456" data-name="Caminho 1456" d="M52,0a52,52,0,1,0,52,52A52,52,0,0,0,52,0m0,101.86A49.86,49.86,0,1,1,101.86,52,49.86,49.86,0,0,1,52,101.86" fill="#fff"/>
  </g>
</svg>
