<svg xmlns="http://www.w3.org/2000/svg" xmlns:xlink="http://www.w3.org/1999/xlink" width="140" height="140" viewBox="0 0 140 140">
  <defs>
    <clipPath id="clip-path">
      <rect id="Retângulo_638" data-name="Retângulo 638" width="140" height="140" fill="#f38599"/>
    </clipPath>
  </defs>
  <g id="unhas" transform="translate(-0.014 0)">
    <g id="Grupo_802" data-name="Grupo 802" transform="translate(0.014 0)" clip-path="url(#clip-path)">
      <g id="Grupo_942" data-name="Grupo 942" transform="translate(10)">
        <path id="Caminho_1288" data-name="Caminho 1288" d="M207.4,167.691c0,3.2.057,6.394-.026,9.588a16.7,16.7,0,0,1-.58,4.261,11.469,11.469,0,0,1-10.994,8.094c-2.734.019-5.472.139-7.99-1.236-3.951-2.159-6.182-5.421-6.327-9.92-.105-3.272-.03-6.549-.035-9.824a3.555,3.555,0,0,0-.1-1.035,8.559,8.559,0,0,0-1.794,5.429q-.02,13.364-.006,26.728c0,7.959.013,15.917-.028,23.876a2.52,2.52,0,0,1-.642,1.663,1.527,1.527,0,0,1-2.479-1.033,4.876,4.876,0,0,1-.026-.843q0-25.091,0-50.182a13.052,13.052,0,0,1,3.274-8.7c.229-.268.445-.652.741-.741,1.326-.4,1.058-1.444,1.061-2.38.011-3.2-.027-6.41.025-9.613a11.484,11.484,0,0,1,10.8-11.148,23.52,23.52,0,0,1,6.032.3c5.5,1.169,9.025,5.786,9.089,11.6.034,3.063.021,6.128,0,9.191a2.2,2.2,0,0,0,.939,2.055,10.746,10.746,0,0,1,3.8,6.653,16.432,16.432,0,0,1,.243,3.04q.021,24.933.01,49.865c0,.247,0,.493-.007.739a1.464,1.464,0,0,1-1.438,1.543,1.511,1.511,0,0,1-1.666-1.318,5.735,5.735,0,0,1-.058-1.261q0-24.774.007-49.548a8.294,8.294,0,0,0-1.818-5.84m-22.78-2.481h.011c0,4.4-.039,8.8.012,13.2a8.1,8.1,0,0,0,6.134,7.818,20.239,20.239,0,0,0,4.848.407,8.559,8.559,0,0,0,8.817-8.549q.121-12.887,0-25.775a8.413,8.413,0,0,0-7.245-8.381,26.917,26.917,0,0,0-3.5-.16,8.637,8.637,0,0,0-9.111,8.972c.139,4.15.028,8.309.028,12.464" transform="translate(-131.057 -104.197)" fill="#f38599"/>
        <path id="Caminho_1289" data-name="Caminho 1289" d="M332.708,146.474h-4.329v4.179H325.3v-4.161h-4.281v-3.028h4.231c0-1.248.027-2.365-.01-3.48-.021-.629.179-.9.845-.862.7.044,1.4.01,2.225.01v4.284h4.393Z" transform="translate(-238.354 -103.084)" fill="#f38599"/>
        <path id="Caminho_1290" data-name="Caminho 1290" d="M218.589,386.724a13.946,13.946,0,0,1-8.8-2.258c-1.062-.734-1.339-1.564-.781-2.375s1.465-.909,2.512-.212c2.941,1.957,6.233,1.848,9.54,1.626a9.133,9.133,0,0,0,4.72-1.713,1.546,1.546,0,0,1,2.336.251c.576.824.37,1.657-.6,2.334a13.957,13.957,0,0,1-8.93,2.347" transform="translate(-155.062 -283.173)" fill="#f38599"/>
        <path id="Caminho_1291" data-name="Caminho 1291" d="M280.709,93.9V90.641h3.182v3.211h3.319v3.016h-3.295v3.368h-3.155v-3.3h-3.336V93.9Z" transform="translate(-206.017 -67.048)" fill="#f38599"/>
        <path id="Caminho_1292" data-name="Caminho 1292" d="M332.09,76.569v2.991H329V76.611h-2.962V73.57h2.917V70.533h3.077v2.978h3.058v3.057Z" transform="translate(-242.073 -52.101)" fill="#f38599"/>
        <path id="Caminho_1293" data-name="Caminho 1293" d="M216.409,210.337h3.1v1.309c0,5.457.016,10.913-.007,16.369a4.974,4.974,0,0,0,2.6,4.633,1.51,1.51,0,0,0,.284.142c.553.182,1.511.258,1.587.556a11.08,11.08,0,0,1,.076,2.688c-3.015.368-6.433-2.091-7.354-5.309a9.733,9.733,0,0,1-.34-2.6c-.03-5.632-.017-11.265-.013-16.9,0-.275.043-.55.071-.889" transform="translate(-160.704 -156.025)" fill="#f38599"/>
        <path id="Caminho_1294" data-name="Caminho 1294" d="M216.453,186.707a1.557,1.557,0,0,1,3.115-.044,1.558,1.558,0,1,1-3.115.044" transform="translate(-160.793 -137.295)" fill="#f38599"/>
      </g>
    </g>
  </g>
</svg>
