<svg id="VIVA_LOGO" data-name="VIVA LOGO" xmlns="http://www.w3.org/2000/svg" xmlns:xlink="http://www.w3.org/1999/xlink" width="127.999" height="56.318" viewBox="0 0 127.999 56.318">
  <defs>
    <clipPath id="clip-path">
      <rect id="Retângulo_1" data-name="Retângulo 1" width="127.999" height="56.318" fill="none"/>
    </clipPath>
  </defs>
  <g id="Grupo_1" data-name="Grupo 1" clip-path="url(#clip-path)">
    <path id="Caminho_1" data-name="Caminho 1" d="M0,0H6.518a5.318,5.318,0,0,1,4.8,2.971L21.207,23.5,30.019.018h2.868L19.33,34.181H17.142Z" fill="#db2b4e"/>
    <path id="Caminho_2" data-name="Caminho 2" d="M906.024,0h-2.189L890.278,34.163h2.868l4.461-11.887h9.934l4.3,8.933a5.318,5.318,0,0,0,4.8,2.971h6.518Zm-7.6,20.1,3.534-9.416,4.535,9.416Z" transform="translate(-802.919)" fill="#db2b4e"/>
    <path id="Caminho_3" data-name="Caminho 3" d="M573.333,0h6.518a5.318,5.318,0,0,1,4.8,2.971L594.54,23.5,603.352.018h2.868L592.663,34.181h-2.188Z" transform="translate(-517.074)" fill="#db2b4e"/>
    <path id="Caminho_4" data-name="Caminho 4" d="M437.243,34.447h-5.789a2.806,2.806,0,0,1-2.806-2.806V.332h5.764a2.831,2.831,0,0,1,2.831,2.831Z" transform="translate(-386.587 -0.299)" fill="#db2b4e"/>
    <path id="Caminho_5" data-name="Caminho 5" d="M422.261,185.4a7.7,7.7,0,0,1,1.058,3.784,7.787,7.787,0,0,1-.8,3.556,13.308,13.308,0,0,1-2.192,3.119,18.347,18.347,0,0,1-2.966,2.6,21.251,21.251,0,0,1-3.24,1.865,52.67,52.67,0,0,1-12.019,3.861,42.058,42.058,0,0,1-12.171.61c-.117-.014-.3-.028-.545-.043q-.83-.089-1.3-.142t-1.363-.174q-.9-.121-1.494-.262t-1.4-.382a7.962,7.962,0,0,1-1.341-.524,6.726,6.726,0,0,1-1.069-.7,3.5,3.5,0,0,1-.83-.916,2.935,2.935,0,0,1-.469-1.429,2.828,2.828,0,0,1,.262-1.352,5.582,5.582,0,0,1,.818-1.232,7.79,7.79,0,0,1,1.091-1.058,10.632,10.632,0,0,1,1.2-.819,60.628,60.628,0,0,1,13.176-5.845,49.231,49.231,0,0,1,1.593-5.78q1.852-11.276,2.769-16.9a.419.419,0,0,1,.284-.35.484.484,0,0,1,.447.044.354.354,0,0,1,.163.392q-.306,1.79-.687,4.091t-.763,4.613q-.382,2.312-.665,4.1a50.69,50.69,0,0,1,2.333-4.711q.087-.153.469-.851t.534-.949q.153-.251.534-.861a9.212,9.212,0,0,1,.643-.927q.261-.316.643-.764a5.4,5.4,0,0,1,.775-.752,6.241,6.241,0,0,1,.828-.545,5.008,5.008,0,0,1,1.985-.524,2.455,2.455,0,0,1,1.582.48,3.435,3.435,0,0,1,1.025,1.232,3.748,3.748,0,0,1,.348,1.712,4.448,4.448,0,0,1-.468,1.92,10.887,10.887,0,0,1-1.462,2.28,12.956,12.956,0,0,1-2.083,2q-1.189.917-2.3,1.626t-2.53,1.472a38.557,38.557,0,0,1,11.408-.763q6.065.567,8.18,4.21m-18.519,17.494q1.745-.414,3.294-.84t3.632-1.167a34.48,34.48,0,0,0,3.752-1.57,24.145,24.145,0,0,0,3.337-2.029,13.563,13.563,0,0,0,2.727-2.53,8.923,8.923,0,0,0,1.571-3.1,8.33,8.33,0,0,0,.185-3.73,6.714,6.714,0,0,0-1.014-2.584,6.3,6.3,0,0,0-1.811-1.811,9.279,9.279,0,0,0-2.486-1.1,15.876,15.876,0,0,0-2.913-.556,25.314,25.314,0,0,0-3.2-.088q-1.712.055-3.217.229t-3.119.469q-1.614.3-2.77.557t-2.268.566h-.088c-.073.218-.153.466-.241.742q-.108.7-.261,1.614t-.306,1.844q-.153.926-.283,1.625a79.863,79.863,0,0,1,10.056-2.225.376.376,0,0,1,.4.165.47.47,0,0,1,.065.436.4.4,0,0,1-.338.273,78.594,78.594,0,0,0-10.339,2.312q-.285,1.724-.851,5.17t-.851,5.169a.408.408,0,0,1-.262.36.444.444,0,0,1-.415-.055.439.439,0,0,1-.2-.392,53.907,53.907,0,0,1,.937-9.751,59.364,59.364,0,0,0-12.324,5.5q-.546.306-.917.557t-.85.632a4.063,4.063,0,0,0-.8.829,3,3,0,0,0-.448.905,2.92,2.92,0,0,0-.141.786,1.617,1.617,0,0,0,.109.665,3.269,3.269,0,0,0,.273.534,1.555,1.555,0,0,0,.436.436q.284.2.513.35a3.19,3.19,0,0,0,.589.294q.359.142.589.218c.152.051.345.113.577.186a31.064,31.064,0,0,0,6.7,1.2,42.742,42.742,0,0,0,12.956-1.09m-.872-26.983a47.5,47.5,0,0,0-3.076,6.566l1.767-.949q.633-.338,1.68-.927t1.744-1.079q.7-.491,1.538-1.123a15.416,15.416,0,0,0,1.538-1.32,14.394,14.394,0,0,0,1.287-1.45,5.9,5.9,0,0,0,1.375-2.879,2.3,2.3,0,0,0-.295-1.559,1.889,1.889,0,0,0-1.069-.819,3.327,3.327,0,0,0-1.45-.076,3.214,3.214,0,0,0-1.418.578,5.439,5.439,0,0,0-.774.687c-.255.269-.473.516-.654.742a9.819,9.819,0,0,0-.643.927c-.248.392-.425.684-.534.872s-.292.513-.546.97-.41.738-.468.84" transform="translate(-342.826 -150.473)" fill="#221f1c"/>
    <path id="Caminho_6" data-name="Caminho 6" d="M839.765,372.66a.349.349,0,0,1,.415-.1.463.463,0,0,1,.273.327.506.506,0,0,1-.12.448q-4.493,4.6-7.765,3.817a2.943,2.943,0,0,1-1.745-1.014,2.175,2.175,0,0,1-.469-1.679,3.357,3.357,0,0,1,.861-1.777,4.344,4.344,0,0,1,1.527-1.026q1.4-.567,1.375.7v.044a2.172,2.172,0,0,1-1.026,1.614,1.976,1.976,0,0,1-1.809.5,1.4,1.4,0,0,0,.828,1.461,3.049,3.049,0,0,0,2.007.284,7.378,7.378,0,0,0,2.89-1.211,18.84,18.84,0,0,0,2.759-2.389m-6.914-.13a1.135,1.135,0,0,0-.666.371,4.142,4.142,0,0,0-.621.763c.306.146.676-.028,1.113-.524.29-.334.371-.538.239-.61Z" transform="translate(-748.855 -335.03)" fill="#221f1c"/>
    <path id="Caminho_7" data-name="Caminho 7" d="M922.225,377.7a.324.324,0,0,1,.4-.1.426.426,0,0,1,.272.327.532.532,0,0,1-.13.447,12.653,12.653,0,0,1-1.058.927q-.643.514-1.484,1.081a10.2,10.2,0,0,1-1.679.927,7.2,7.2,0,0,1-1.593.491,1.768,1.768,0,0,1-1.308-.229,1.82,1.82,0,0,1-.731-1.255q-.174.132-.426.339c-.167.137-.316.262-.447.371s-.284.225-.459.348-.334.233-.48.327a3.652,3.652,0,0,1-.48.262,2.428,2.428,0,0,1-.513.174,2.973,2.973,0,0,1-.523.066,1.491,1.491,0,0,1-.534-.077,1.305,1.305,0,0,1-.775-.524,1.461,1.461,0,0,1-.273-.85,3.777,3.777,0,0,1,.132-.96,3.528,3.528,0,0,1,.96-1.615,4.032,4.032,0,0,1,1.57-.96,4.72,4.72,0,0,1,1.843-.206,4.059,4.059,0,0,1,1.779.556.329.329,0,0,1,.109.568.413.413,0,0,1-.611.13,3.132,3.132,0,0,0-3.381.065,4.887,4.887,0,0,0-.643.48,3.823,3.823,0,0,0-.556.622,1.125,1.125,0,0,0-.251.7,1.254,1.254,0,0,0,.294.709.934.934,0,0,0,.7.327,1.563,1.563,0,0,0,.808-.25,7.429,7.429,0,0,0,.8-.557q.382-.306.829-.675c.3-.248.535-.429.709-.546a.324.324,0,0,1,.415.044.542.542,0,0,1,.2.415q.043,2.442,3.293.524a17.671,17.671,0,0,0,3.141-2.334.245.245,0,0,1,.088-.088" transform="translate(-820.714 -340.009)" fill="#221f1c"/>
    <path id="Caminho_8" data-name="Caminho 8" d="M1040.384,380.077a.337.337,0,0,1,.382-.2.445.445,0,0,1,.349.25.509.509,0,0,1-.012.448,10.71,10.71,0,0,1-2.465,2.693,5.314,5.314,0,0,1-3.031,1.32,2.3,2.3,0,0,1-.786-.12,1.5,1.5,0,0,1-.513-.3,1.476,1.476,0,0,1-.327-.524,3.967,3.967,0,0,1-.2-.589q-.053-.24-.141-.675-1.68,3.185-3.076,2.987a1.027,1.027,0,0,1-.818-.686,3.287,3.287,0,0,1-.207-1.44,12.235,12.235,0,0,1,.163-1.5c.081-.444.163-.826.251-1.146a.38.38,0,0,1,.317-.273.445.445,0,0,1,.4.153.452.452,0,0,1,.109.447,5.757,5.757,0,0,0-.3,2.64q.151.741.851.436.871-.393,2.029-3.076a.442.442,0,0,1,.4-.262.37.37,0,0,1,.4.241,2.825,2.825,0,0,1,.141.5c.037.19.069.36.1.513s.062.32.1.5a2.187,2.187,0,0,0,.13.448,2.061,2.061,0,0,0,.218.371.7.7,0,0,0,.316.261,1.941,1.941,0,0,0,.459.1,1.463,1.463,0,0,0,.654-.1,5.382,5.382,0,0,0,2.257-1.3,9.769,9.769,0,0,0,1.844-2.127" transform="translate(-928.513 -342.599)" fill="#221f1c"/>
    <path id="Caminho_9" data-name="Caminho 9" d="M1101.594,291.391a.422.422,0,0,1,.4.174.45.45,0,0,1,.066.425.394.394,0,0,1-.339.272q-6.065.741-12.564,1.832a101.027,101.027,0,0,0-2.595,18.061.379.379,0,0,1-.251.35.468.468,0,0,1-.436-.044.434.434,0,0,1-.207-.393,103.947,103.947,0,0,1,2.552-17.821q-3.294.567-5.889,1.047a.433.433,0,0,1-.274-.044.343.343,0,0,1-.163-.186.736.736,0,0,1-.043-.25.353.353,0,0,1,.1-.241.535.535,0,0,1,.251-.153q2.705-.5,6.26-1.112.612-2.552,1.243-4.69a.364.364,0,0,1,.317-.283.471.471,0,0,1,.4.163.452.452,0,0,1,.109.447q-.546,1.832-1.134,4.21,6.3-1.047,12.193-1.767" transform="translate(-975.696 -260.041)" fill="#221f1c"/>
    <path id="Caminho_10" data-name="Caminho 10" d="M1171.944,380.845a.361.361,0,0,1,.425-.065.449.449,0,0,1,.272.327.465.465,0,0,1-.13.415q-1.026.85-4.036,3.054a19.133,19.133,0,0,1,.088,4.842,13.506,13.506,0,0,1-1.046,3.982,11.348,11.348,0,0,1-2.357,3.458,8.758,8.758,0,0,1-3.467,2.2,2.625,2.625,0,0,1-1.92.054,2.15,2.15,0,0,1-1.266-1.429q-.72-2.072,1.2-5.475a15.045,15.045,0,0,1,2.171-3.032q.643-.7,1.266-1.309t1.4-1.264q.773-.654,1.417-1.157t1.494-1.134a6.836,6.836,0,0,0-.981-2.552,1.8,1.8,0,0,0-.381-.392.975.975,0,0,0-.327-.163.5.5,0,0,0-.35.086,1.958,1.958,0,0,0-.338.241l-.415.382-.044.044a.311.311,0,0,1-.054.044.3.3,0,0,0-.055.044,18.126,18.126,0,0,0-1.222,1.341q-.763.9-1.112,1.254-.263.285-.459.459c-.13.116-.313.262-.545.436a2.547,2.547,0,0,1-.622.36,1.4,1.4,0,0,1-.61.065,1.115,1.115,0,0,1-.622-.272q-1.113-.96.131-4.363a.382.382,0,0,1,.327-.272.458.458,0,0,1,.413.153.385.385,0,0,1,.067.447,5.951,5.951,0,0,0-.5,2.2,1.767,1.767,0,0,0,.175.687.391.391,0,0,0,.348.23,1.024,1.024,0,0,0,.459-.121,4.022,4.022,0,0,0,.566-.359,8.939,8.939,0,0,0,1.375-1.44q.828-1.026,1.113-1.309c.262-.262.476-.461.643-.6a5.59,5.59,0,0,1,.643-.447,1.422,1.422,0,0,1,.786-.23,1.314,1.314,0,0,1,.763.3,5.009,5.009,0,0,1,1.679,3.1q2.508-1.877,3.643-2.814m-4.188,6.545q-.045-1.2-.153-2.16-1.242.917-2.138,1.658t-1.941,1.745a17.6,17.6,0,0,0-1.777,1.952,15.4,15.4,0,0,0-1.364,2.127,10.257,10.257,0,0,0-.937,2.421,3.824,3.824,0,0,0-.077,1.909,1.591,1.591,0,0,0,.872,1.145,2.231,2.231,0,0,0,1.844-.261,9.806,9.806,0,0,0,1.32-.808,10.774,10.774,0,0,0,1.232-1.036,10.241,10.241,0,0,0,1.025-1.167,11.738,11.738,0,0,0,2.094-7.525" transform="translate(-1044.651 -342.953)" fill="#221f1c"/>
  </g>
</svg>
