<svg xmlns="http://www.w3.org/2000/svg" width="32" height="32" viewBox="0 0 32 32">
  <g id="Youtube-Logo" transform="translate(-171.434 -0.249)">
    <rect id="Retângulo_628" data-name="Retângulo 628" width="32" height="32" transform="translate(171.434 0.249)" fill="#fff"/>
    <g id="YOUTUBE" transform="translate(171.389 4.963)">
      <path id="Subtração_1" data-name="Subtração 1" d="M16,22c-.1,0-10.035-.007-12.5-.656A3.97,3.97,0,0,1,.669,18.565,40.362,40.362,0,0,1,0,11,40.362,40.362,0,0,1,.669,3.435,3.973,3.973,0,0,1,3.5.656C5.965.007,15.9,0,16,0S26.034.007,28.5.656a3.975,3.975,0,0,1,2.829,2.779A40.368,40.368,0,0,1,32,11a40.368,40.368,0,0,1-.669,7.565A3.97,3.97,0,0,1,28.5,21.344C26.034,21.993,16.1,22,16,22ZM12.8,6.285h0v9.429L21.113,11,12.8,6.285Z" transform="translate(0.045 0.286)" fill="#333"/>
    </g>
  </g>
</svg>
