<svg id="PASSO_3" data-name="PASSO 3" xmlns="http://www.w3.org/2000/svg" xmlns:xlink="http://www.w3.org/1999/xlink" width="135" height="135" viewBox="0 0 135 135">
  <defs>
    <clipPath id="clip-path">
      <rect id="Retângulo_705" data-name="Retângulo 705" width="135" height="135" fill="none"/>
    </clipPath>
  </defs>
  <g id="PASSO_3-2" data-name="PASSO 3" clip-path="url(#clip-path)">
    <path id="Caminho_1574" data-name="Caminho 1574" d="M67.5,0A67.5,67.5,0,1,0,135,67.5,67.5,67.5,0,0,0,67.5,0m0,132.222A64.722,64.722,0,1,1,132.222,67.5,64.722,64.722,0,0,1,67.5,132.222" fill="#f38599"/>
    <path id="Caminho_1575" data-name="Caminho 1575" d="M76.016,139.67a2.15,2.15,0,0,1-1.034.335,3.824,3.824,0,0,1-3.248-1.6c-1.185-1.489-2.056-3.927-1.93-7.641" transform="translate(-31.183 -58.424)" fill="none" stroke="#f38599" stroke-width="3"/>
    <path id="Caminho_1576" data-name="Caminho 1576" d="M164.29,139.67a2.15,2.15,0,0,0,1.034.335,3.824,3.824,0,0,0,3.248-1.6c1.185-1.489,2.056-3.927,1.93-7.641" transform="translate(-73.406 -58.424)" fill="none" stroke="#f38599" stroke-width="3"/>
    <path id="Caminho_1577" data-name="Caminho 1577" d="M118.47,155.544a4.343,4.343,0,0,0,4.437,0" transform="translate(-52.933 -69.498)" fill="none" stroke="#f38599" stroke-width="3"/>
    <path id="Caminho_1578" data-name="Caminho 1578" d="M113.541,170.453a9.182,9.182,0,0,0,9.891,0" transform="translate(-50.731 -76.159)" fill="none" stroke="#f38599" stroke-width="3"/>
    <path id="Caminho_1579" data-name="Caminho 1579" d="M77.651,117.775v1.254a55.672,55.672,0,0,0,1.468,13.459c.064.257.127.514.2.771a40.242,40.242,0,0,0,6.05,13.267c3.842,5.445,11.807,11.635,17.078,11.635s13.236-6.19,17.065-11.635a40.263,40.263,0,0,0,6.062-13.267c.077-.257.141-.514.2-.771a54.792,54.792,0,0,0,1.455-11.867v-.864" transform="translate(-34.695 -52.622)" fill="none" stroke="#f38599" stroke-width="3"/>
    <circle id="Elipse_23" data-name="Elipse 23" cx="0.337" cy="0.337" r="0.337" transform="translate(29.49 80.919)" fill="none" stroke="#f38599" stroke-width="3"/>
    <circle id="Elipse_24" data-name="Elipse 24" cx="0.337" cy="0.337" r="0.337" transform="translate(46.492 102.325)" fill="none" stroke="#f38599" stroke-width="3"/>
    <line id="Linha_29" data-name="Linha 29" y2="2.183" transform="translate(36.484 92.855)" fill="none" stroke="#f38599" stroke-width="3"/>
    <line id="Linha_30" data-name="Linha 30" x2="1.091" transform="translate(33.004 97.426)" fill="none" stroke="#f38599" stroke-width="3"/>
    <line id="Linha_31" data-name="Linha 31" x2="1.091" transform="translate(38.872 97.426)" fill="none" stroke="#f38599" stroke-width="3"/>
    <line id="Linha_32" data-name="Linha 32" y2="2.183" transform="translate(36.484 99.814)" fill="none" stroke="#f38599" stroke-width="3"/>
    <path id="Caminho_1580" data-name="Caminho 1580" d="M107.974,77.388c2.3,11.555,6.537,12.711,13.132,16.177v.013c3.238,1.7,5.125,5.269,6.183,8.354a.186.186,0,0,0,.023.075,31.294,31.294,0,0,0-8.8-31.743c-7.955-7.562-26.672-10.567-39.084-1.1-9.2,7.015-14.385,19.026-10.615,32.842a.28.28,0,0,0,0-.1c1.23-4.744,2.008-8.2,6.162-9.957,11.38-4.811,25.191.721,30.95-9.611a23.387,23.387,0,0,0,2.014-4.811.632.632,0,0,0,.036-.141" transform="translate(-30.191 -28.255)" fill="none" stroke="#f38599" stroke-width="3"/>
    <path id="Caminho_1581" data-name="Caminho 1581" d="M186.61,82.964a.337.337,0,1,1-.337-.337A.337.337,0,0,1,186.61,82.964Z" transform="translate(-83.077 -36.918)" fill="none" stroke="#f38599" stroke-width="3"/>
    <path id="Caminho_1582" data-name="Caminho 1582" d="M162.248,56.942a.337.337,0,1,1-.337-.337A.337.337,0,0,1,162.248,56.942Z" transform="translate(-72.192 -25.291)" fill="none" stroke="#f38599" stroke-width="3"/>
    <line id="Linha_33" data-name="Linha 33" y2="2.183" transform="translate(102.03 29.41)" fill="none" stroke="#f38599" stroke-width="3"/>
    <line id="Linha_34" data-name="Linha 34" x2="1.091" transform="translate(98.55 33.982)" fill="none" stroke="#f38599" stroke-width="3"/>
    <line id="Linha_35" data-name="Linha 35" x2="1.091" transform="translate(104.418 33.982)" fill="none" stroke="#f38599" stroke-width="3"/>
    <line id="Linha_36" data-name="Linha 36" y2="2.183" transform="translate(102.03 36.37)" fill="none" stroke="#f38599" stroke-width="3"/>
    <line id="Linha_37" data-name="Linha 37" y2="2.183" transform="translate(100.807 87.334)" fill="none" stroke="#f38599" stroke-width="3"/>
    <line id="Linha_38" data-name="Linha 38" x2="1.091" transform="translate(97.328 91.906)" fill="none" stroke="#f38599" stroke-width="3"/>
    <line id="Linha_39" data-name="Linha 39" x2="1.091" transform="translate(103.196 91.906)" fill="none" stroke="#f38599" stroke-width="3"/>
    <line id="Linha_40" data-name="Linha 40" y2="2.183" transform="translate(100.807 94.294)" fill="none" stroke="#f38599" stroke-width="3"/>
    <path id="Caminho_1583" data-name="Caminho 1583" d="M95.665,58.852a4.385,4.385,0,0,1-.752-2.617c0-5.743,7.006-10.183,15.264-10.183s15.6,4.365,15.26,10.183a8.757,8.757,0,0,1-.529,2.043" transform="translate(-42.408 -20.576)" fill="none" stroke="#f38599" stroke-width="3"/>
    <path id="Caminho_1584" data-name="Caminho 1584" d="M105.276,183.5a47.044,47.044,0,0,1,0,8.01" transform="translate(-47.038 -81.991)" fill="none" stroke="#f38599" stroke-width="3"/>
    <path id="Caminho_1585" data-name="Caminho 1585" d="M139.545,183.5a47.043,47.043,0,0,0,0,8.01" transform="translate(-62.271 -81.991)" fill="none" stroke="#f38599" stroke-width="3"/>
    <path id="Caminho_1586" data-name="Caminho 1586" d="M144.238,133.723c-1.96-2.117-7.008-2.977-10.514.808" transform="translate(-59.749 -58.94)" fill="none" stroke="#f38599" stroke-width="3"/>
    <path id="Caminho_1587" data-name="Caminho 1587" d="M92.23,133.723c1.96-2.117,7.008-2.977,10.514.808" transform="translate(-41.209 -58.94)" fill="none" stroke="#f38599" stroke-width="3"/>
    <path id="Caminho_1588" data-name="Caminho 1588" d="M135.823,122.647a18.273,18.273,0,0,1,7.32,0" transform="translate(-60.686 -54.632)" fill="none" stroke="#f38599" stroke-width="3"/>
    <path id="Caminho_1589" data-name="Caminho 1589" d="M103.383,122.647a18.273,18.273,0,0,0-7.32,0" transform="translate(-42.921 -54.632)" fill="none" stroke="#f38599" stroke-width="3"/>
  </g>
</svg>
