<svg xmlns="http://www.w3.org/2000/svg" xmlns:xlink="http://www.w3.org/1999/xlink" width="17.717" height="17.717" viewBox="0 0 17.717 17.717">
  <defs>
    <clipPath id="clip-path">
      <rect id="Retângulo_561" data-name="Retângulo 561" width="17.717" height="17.717" fill="none"/>
    </clipPath>
  </defs>
  <g id="Grupo_703" data-name="Grupo 703" transform="translate(0 -2)">
    <g id="Grupo_701" data-name="Grupo 701" transform="translate(0 2)" clip-path="url(#clip-path)">
      <path id="Caminho_1240" data-name="Caminho 1240" d="M16.451,17.717H1.265A1.265,1.265,0,0,1,0,16.451V1.265A1.265,1.265,0,0,1,1.265,0H16.451a1.265,1.265,0,0,1,1.265,1.265V16.451a1.265,1.265,0,0,1-1.265,1.265" fill="#509f3c" fill-rule="evenodd"/>
      <path id="Caminho_1241" data-name="Caminho 1241" d="M85.054,73.1a.9.9,0,0,1,.262,1.251l-6.147,9.4a.9.9,0,0,1-1.365.174l-3.977-3.616a.9.9,0,0,1,1.216-1.338l3.193,2.9L83.8,73.365a.9.9,0,0,1,1.251-.262" transform="translate(-70.639 -70.086)" fill="#fff" fill-rule="evenodd"/>
    </g>
  </g>
</svg>
