<svg xmlns="http://www.w3.org/2000/svg" xmlns:xlink="http://www.w3.org/1999/xlink" width="140" height="140" viewBox="0 0 140 140">
  <defs>
    <clipPath id="clip-path">
      <rect id="Retângulo_637" data-name="Retângulo 637" width="140" height="140" transform="translate(0 0)" fill="#f38599"/>
    </clipPath>
  </defs>
  <g id="CABELO" transform="translate(0.45 0)">
    <g id="Grupo_801" data-name="Grupo 801" transform="translate(-0.45 0)" clip-path="url(#clip-path)">
      <path id="Caminho_1284" data-name="Caminho 1284" d="M139.319,173.33l.53,2.6-4.965,1.016c2.53,4.417,1.882,9.172,1.955,13.9h-2.717c0-1.794.088-3.6-.026-5.4a33.561,33.561,0,0,0-.684-4.849,11.1,11.1,0,0,0-1.1-2.647,1.024,1.024,0,0,0-.844-.412c-2.55.334-5.09.751-7.639,1.09-4.159.554-7.69-2.253-8.4-6.587-.431-2.62-.955-5.224-1.38-7.845-.127-.779-.646-.873-1.227-1a5.434,5.434,0,0,1-3.891-7.954c.986-1.938,1.943-3.89,2.924-5.862a15.3,15.3,0,0,1-4.592-7.989,21.723,21.723,0,0,1,.052-8.356,30.938,30.938,0,0,1,9.7-18.043,30.545,30.545,0,0,1,18.3-8.244,37.475,37.475,0,0,1,39.771,29.211,261.007,261.007,0,0,0,6.944,26.446,26.566,26.566,0,0,0,8.349,12.156c.276.232.637.5.709.806a2.168,2.168,0,0,1-.1,1.348c-.3.608-.939.661-1.561.565a23.963,23.963,0,0,1-6.867-2.08c-.811-.393-1.594-.843-2.487-1.19.21.217.411.443.631.65a41.392,41.392,0,0,0,8.955,6.4c.3.159.6.314.9.482a1.3,1.3,0,0,1,.655,1.593,1.219,1.219,0,0,1-1.412.961,54.921,54.921,0,0,1-6.025-.946c-3.606-.916-7.159-2.038-10.734-3.075l-.532-.156-.115.248c1.905.974,3.769,2.042,5.724,2.9,3.98,1.755,8.006,3.4,12.018,5.083.618.259,1.089.6,1.116,1.333a1.269,1.269,0,0,1-1.266,1.405c-3.934-.07-7.879-.031-11.8-.311a56.667,56.667,0,0,1-17-4.047,2.169,2.169,0,0,0-.433-.055c.192,1.416.376,2.778.573,4.232l-2.7.424c-.234-1.569-.53-3.061-.655-4.567a2.3,2.3,0,0,0-1.486-2.135c-15.774-7.822-26.526-20.1-32.375-36.69q-3-8.508-5.975-17.023c-.082-.232-.181-.458-.316-.8a10.208,10.208,0,0,0-2.057,3.735c-1.178,3.563-.707,7.12.282,10.6a4.619,4.619,0,0,1-.386,3.767c-1.474,2.738-2.812,5.549-4.2,8.335-.979,1.972-.217,3.6,1.918,4.127.11.027.216.066.326.092,2.9.688,2.524.452,3.072,3.4.506,2.722.975,5.451,1.517,8.165a4.564,4.564,0,0,0,5.339,3.686q7.735-1.272,15.466-2.568c.05-.008.107.025.223.055m-3.96-34.712c2.473,5.109,4.771,10.216,7.991,14.826a61.8,61.8,0,0,0,11.273,12.416c-4.549-8.213-6.24-17.29-8.213-26.342l2.615-.589c.081.239.16.42.2.609.579,2.561,1.185,5.117,1.722,7.687a63.572,63.572,0,0,0,9.483,22.875,3.739,3.739,0,0,0,1,1,62.156,62.156,0,0,0,14.739,7.2c2.164.725,4.38,1.3,6.572,1.936a.939.939,0,0,0-.392-.55,40.841,40.841,0,0,1-11.377-12.915c-2.161-3.995-3.943-8.194-5.874-12.312-.78-1.663-1.52-3.344-2.252-5.028a1.335,1.335,0,0,1,.585-1.883,1.374,1.374,0,0,1,1.874.634c.107.167.2.343.3.514q4.489,7.746,8.978,15.492a20.809,20.809,0,0,0,9.335,8.614c.266.125.546.219.82.327a1.4,1.4,0,0,0-.342-.725,28.1,28.1,0,0,1-4.843-8.706,221.279,221.279,0,0,1-6.832-25.773c-2.116-10.416-7.663-18.464-16.844-23.845-7.1-4.161-14.829-5.861-22.936-4.169-11.073,2.31-18.447,9.062-22,19.817a21.4,21.4,0,0,0-.952,11.2,11.76,11.76,0,0,0,3.3,5.98,5.846,5.846,0,0,0,.16-1.4c-.3-1.752-.765-3.481-.963-5.242-.932-8.314,2.766-12.939,8.59-16.978l1.693,2.028c-.773.648-1.458,1.286-2.21,1.832a.927.927,0,0,0-.342,1.273c2.211,6.226,4.376,12.469,6.591,18.694a60.416,60.416,0,0,0,28.371,33.6,58.82,58.82,0,0,0,20.129,6.774c2.386.355,4.8.5,7.208.742l.057-.241c-1.26-.538-2.5-1.121-3.784-1.606a33.046,33.046,0,0,1-14.48-10.174,2.558,2.558,0,0,0-.743-.546,68.36,68.36,0,0,1-20.787-18.266,80.422,80.422,0,0,1-8.648-14.955c-.4-.863-.822-1.717-1.257-2.625l2.481-1.193" transform="translate(-78.672 -78.907)" fill="#f38599"/>
      <path id="Caminho_1285" data-name="Caminho 1285" d="M352.372,122.91a1.333,1.333,0,0,1-1.361-1.148c-.18-.827-.346-1.657-.508-2.488a3.672,3.672,0,0,0-3.468-3.167q-1.491-.148-1.469-1.391c.013-.788.5-1.243,1.436-1.337a3.67,3.67,0,0,0,3.506-3.223c.155-.8.326-1.6.5-2.4a1.375,1.375,0,0,1,2.712-.031c.184.826.348,1.657.509,2.488a3.669,3.669,0,0,0,3.468,3.167q1.491.151,1.469,1.391c-.014.786-.507,1.244-1.438,1.336a3.665,3.665,0,0,0-3.5,3.223c-.161.831-.32,1.664-.514,2.488a1.326,1.326,0,0,1-1.335,1.1m0-9.743-1.409,1.581,1.411,1.563,1.379-1.57-1.382-1.574" transform="translate(-256.107 -78.902)" fill="#f38599"/>
      <path id="Caminho_1286" data-name="Caminho 1286" d="M396.266,220.7a1.332,1.332,0,0,1-1.21,1.388c-2.441.343-3.263,1.1-3.779,3.507-.154.717-.294,1.438-.456,2.154a1.375,1.375,0,0,1-2.713-.021c-.172-.8-.342-1.6-.5-2.4a3.67,3.67,0,0,0-3.5-3.228c-.936-.092-1.427-.544-1.443-1.33-.017-.836.465-1.3,1.462-1.4a3.673,3.673,0,0,0,3.474-3.162c.162-.831.327-1.661.509-2.488a1.375,1.375,0,0,1,2.713.019c.169.772.335,1.545.488,2.32a3.648,3.648,0,0,0,3.594,3.315,1.33,1.33,0,0,1,1.359,1.328m-6.8-1.548-1.4,1.59,1.409,1.56,1.379-1.57-1.388-1.58" transform="translate(-283.688 -157.694)" fill="#f38599"/>
      <path id="Caminho_1287" data-name="Caminho 1287" d="M205.454,141.235a1.328,1.328,0,0,1-1.241,1.358c-2.357.3-3.244,1.124-3.734,3.454-.157.746-.3,1.494-.476,2.236a1.373,1.373,0,0,1-2.7,0c-.192-.853-.352-1.714-.522-2.572a3.672,3.672,0,0,0-3.433-3.11c-1.009-.1-1.5-.546-1.5-1.364s.484-1.263,1.493-1.367a3.675,3.675,0,0,0,3.446-3.192c.161-.831.322-1.663.512-2.487a1.373,1.373,0,0,1,2.7,0c.189.825.351,1.657.512,2.488a3.658,3.658,0,0,0,3.527,3.2c.915.091,1.411.569,1.412,1.361m-6.812,1.573,1.415-1.577-1.417-1.565-1.375,1.57,1.377,1.572" transform="translate(-141.845 -98.596)" fill="#f38599"/>
    </g>
  </g>
</svg>
