<svg xmlns="http://www.w3.org/2000/svg" xmlns:xlink="http://www.w3.org/1999/xlink" width="140" height="140" viewBox="0 0 140 140">
  <defs>
    <clipPath id="clip-path">
      <rect id="Retângulo_635" data-name="Retângulo 635" width="140" height="140" transform="translate(0)" fill="#f38599"/>
    </clipPath>
  </defs>
  <g id="ICONE_PELE" data-name="ICONE PELE" transform="translate(-0.001 0)">
    <g id="Grupo_800" data-name="Grupo 800" transform="translate(0.001 0)" clip-path="url(#clip-path)">
      <path id="Caminho_1275" data-name="Caminho 1275" d="M149.07,80.7c1.49.217,2.994.366,4.468.662,13.539,2.72,22.279,10.8,26.623,23.7a45.753,45.753,0,0,1,2.15,16.635,14.377,14.377,0,0,1-1.69,5.757,10.176,10.176,0,0,0-1.025,6.476c.307,1.688,1.486,2.836,2.463,4.133a16.973,16.973,0,0,1,2.433,3.863c1.451,3.73.833,7.427-.6,11.061a27.723,27.723,0,0,0-1.418,4.434,6.157,6.157,0,0,0,1.807,5.868c.555.554,1.13,1.09,1.71,1.619a11.547,11.547,0,0,1,3.587,6.337,1.512,1.512,0,0,1-1.04,1.931,1.478,1.478,0,0,1-1.83-1.284,9.571,9.571,0,0,0-3.292-5.352c-2.118-1.8-3.757-3.937-3.961-6.849a13.5,13.5,0,0,1,1.35-7.091,14.137,14.137,0,0,0,1.536-6.61,8,8,0,0,0-2.439-5.94c-3.918-3.666-4.276-9.038-2.106-13.459a17.819,17.819,0,0,0,1.565-9.291,42.263,42.263,0,0,0-2.663-13.1c-4.479-11.254-12.642-18.1-24.732-20.094a35.083,35.083,0,0,0-20.161,2.357c-7.891,3.454-13.191,9.388-16.374,17.263a43.518,43.518,0,0,0-2.9,17.043,11.859,11.859,0,0,0,1.4,5.271,13.406,13.406,0,0,1,1.5,6.61,9.144,9.144,0,0,1-2.63,6.541c-3.926,3.788-3.86,8.114-1.95,12.7a17.347,17.347,0,0,1,1.68,6.761,8.935,8.935,0,0,1-2.3,6.19,16.365,16.365,0,0,1-1.786,1.8,9.149,9.149,0,0,0-3.189,5.212c-.254,1.106-.9,1.552-1.862,1.343-.816-.177-1.22-.986-1-2.025a11.433,11.433,0,0,1,3.775-6.423l.069-.059c3.464-2.913,4.434-5.694,2.225-10.79a19.214,19.214,0,0,1-1.787-7.928,11.173,11.173,0,0,1,3.136-7.843c1.667-1.769,2.983-3.7,2.67-6.252a11.1,11.1,0,0,0-.9-3.736,20.1,20.1,0,0,1-1.977-10.678,44.45,44.45,0,0,1,3.758-16.508q7.7-16.6,25.85-19.713c1.216-.209,2.442-.361,3.663-.539Z" transform="translate(-75.907 -59.656)" fill="#f38599"/>
      <path id="Caminho_1276" data-name="Caminho 1276" d="M198.948,213.577a23.808,23.808,0,0,1-14.266-.07,19.9,19.9,0,0,1-1.35,6.989,11.338,11.338,0,0,1-6.673,6.956,1.483,1.483,0,0,1-1.993-.524,1.378,1.378,0,0,1,.628-2.051c4.246-1.646,5.555-5.236,6.246-9.227a17.577,17.577,0,0,0,.177-2.877,1.037,1.037,0,0,0-.412-.779c-5.3-3.023-8.652-7.7-11.14-13.07a60.207,60.207,0,0,1-4.945-17.808c-.461-3.6-.666-7.24-.922-10.866-.1-1.384.308-1.783,1.671-1.923a66.839,66.839,0,0,0,17.622-3.962c4.324-1.689,8.331-3.887,11.339-7.537a16.286,16.286,0,0,0,1.345-1.924,1.624,1.624,0,0,1,1.663-1c.776.1,1.075.649,1.324,1.308a19.257,19.257,0,0,0,13.753,12.479,32.565,32.565,0,0,0,5.021.65c.974.1,1.54.558,1.516,1.531-.26,10.545-1.84,20.823-6.553,30.412a26.149,26.149,0,0,1-10.455,11.7.879.879,0,0,0-.421.6,15.645,15.645,0,0,0,2.5,9.333,7.757,7.757,0,0,0,3.588,2.8c1,.4,1.392,1.143,1.085,1.96a1.547,1.547,0,0,1-2.2.741c-3.746-1.455-5.862-4.356-6.955-8.036-.558-1.88-.805-3.851-1.2-5.812m-1.518-55.107a25.657,25.657,0,0,1-7.706,6.283c-6.731,3.683-14.052,5.387-21.6,6.291-.536.064-.881.059-.84.8a83.173,83.173,0,0,0,2.822,17.948,41.363,41.363,0,0,0,6.876,14.493,18.706,18.706,0,0,0,29.145.877,37.673,37.673,0,0,0,6.9-12.983,77.676,77.676,0,0,0,3.251-16.311c.157-1.514.211-3.039.315-4.592-8.749-.84-15.1-5.082-19.157-12.8" transform="translate(-121.851 -114.067)" fill="#f38599"/>
      <path id="Caminho_1277" data-name="Caminho 1277" d="M136.154,343.119a11.437,11.437,0,0,1,3.564-6.539c.221-.206.45-.4.679-.6,3.279-2.816,3.893-5.673,2.011-10.23a21.348,21.348,0,0,1-1.812-6,11.773,11.773,0,0,1,1.149-7.351,1.448,1.448,0,0,1,1.99-.69,1.4,1.4,0,0,1,.66,1.921c-1.7,3.471-1.05,6.855.412,10.168a15.815,15.815,0,0,1,1.54,6.6,8.847,8.847,0,0,1-2.272,6.013,14.2,14.2,0,0,1-1.649,1.675,9.358,9.358,0,0,0-3.381,5.494,1.42,1.42,0,0,1-1.719,1.206,1.5,1.5,0,0,1-1.172-1.67" transform="translate(-100.984 -231.254)" fill="#f38599"/>
      <path id="Caminho_1278" data-name="Caminho 1278" d="M372.771,317.5a17.522,17.522,0,0,1-1.824,8.047,8.888,8.888,0,0,0-.891,6.118,9.432,9.432,0,0,0,1.5,2.914,12.423,12.423,0,0,0,1.923,1.907,11.594,11.594,0,0,1,3.618,6.411,1.493,1.493,0,0,1-1.106,1.88,1.443,1.443,0,0,1-1.766-1.255,9.686,9.686,0,0,0-3.336-5.423c-2.065-1.758-3.682-3.844-3.909-6.679a13.719,13.719,0,0,1,1.346-7.265,13.265,13.265,0,0,0,1.361-8.215,10.112,10.112,0,0,0-.723-2.117,1.508,1.508,0,0,1,.552-2.108,1.493,1.493,0,0,1,2.1.8,9.792,9.792,0,0,1,1.159,4.985" transform="translate(-272.152 -231.246)" fill="#f38599"/>
      <path id="Caminho_1279" data-name="Caminho 1279" d="M336.166,375.857a6.34,6.34,0,0,0,2,5.13c.776.761,1.595,1.48,2.346,2.264a11.288,11.288,0,0,1,2.88,5.632,1.521,1.521,0,0,1-1.053,1.924,1.466,1.466,0,0,1-1.822-1.289,9.663,9.663,0,0,0-3.3-5.352c-1.91-1.633-3.511-3.53-3.843-6.14a17.875,17.875,0,0,1-.068-3.24,1.462,1.462,0,0,1,2.912.262c0,.27-.037.54-.057.81" transform="translate(-247.187 -277.286)" fill="#f38599"/>
      <path id="Caminho_1280" data-name="Caminho 1280" d="M180.1,376.442c.212,3.391-1.558,5.835-3.971,7.908a9.576,9.576,0,0,0-3.246,5.273,1.472,1.472,0,0,1-1.8,1.32,1.528,1.528,0,0,1-1.06-1.987,11.527,11.527,0,0,1,3.749-6.429c.476-.417.916-.875,1.375-1.312a6.5,6.5,0,0,0,2.072-5.451,6.2,6.2,0,0,1-.036-.63,1.454,1.454,0,0,1,1.382-1.5,1.489,1.489,0,0,1,1.524,1.272,11.384,11.384,0,0,1,.013,1.531" transform="translate(-126.066 -277.417)" fill="#f38599"/>
      <path id="Caminho_1281" data-name="Caminho 1281" d="M242.3,317.462a13.673,13.673,0,0,1-9.436-3.046,2.154,2.154,0,0,1-.7-1.511,1.436,1.436,0,0,1,.892-1.071,2.355,2.355,0,0,1,1.637.375,12.957,12.957,0,0,0,12.5,1.46,13.4,13.4,0,0,0,2.659-1.521c.95-.62,1.773-.608,2.314.131s.334,1.555-.572,2.241a13.97,13.97,0,0,1-9.3,2.941" transform="translate(-172.197 -231.378)" fill="#f38599"/>
      <path id="Caminho_1282" data-name="Caminho 1282" d="M215.126,255.434a6.787,6.787,0,0,1-5.667-3.68,1.411,1.411,0,0,1,.553-1.952,1.475,1.475,0,0,1,1.987.5c.035.048.06.1.093.155,1.755,2.628,4.292,2.645,6,.016a1.567,1.567,0,0,1,1.745-.826,1.421,1.421,0,0,1,.923,2.073,6.767,6.767,0,0,1-5.636,3.712" transform="translate(-155.217 -185.213)" fill="#f38599"/>
      <path id="Caminho_1283" data-name="Caminho 1283" d="M293.958,255.4a6.782,6.782,0,0,1-5.654-3.652,1.431,1.431,0,0,1,.522-1.967,1.481,1.481,0,0,1,2,.474c.071.1.123.207.189.308,1.607,2.445,4.267,2.439,5.872-.012.629-.96,1.412-1.235,2.189-.768.8.482.927,1.374.294,2.367a6.875,6.875,0,0,1-5.409,3.25" transform="translate(-213.692 -185.179)" fill="#f38599"/>
    </g>
  </g>
</svg>
