<svg xmlns="http://www.w3.org/2000/svg" xmlns:xlink="http://www.w3.org/1999/xlink" width="140" height="140" viewBox="0 0 140 140">
  <defs>
    <clipPath id="clip-path">
      <rect id="Retângulo_647" data-name="Retângulo 647" width="140" height="140" fill="#f38599"/>
    </clipPath>
  </defs>
  <g id="OSSOS" transform="translate(-0.311 0)">
    <g id="Grupo_808" data-name="Grupo 808" transform="translate(0.311 0)" clip-path="url(#clip-path)">
      <path id="Caminho_1311" data-name="Caminho 1311" d="M237.843,119.909c-.584,3.324-1.105,6.661-1.763,9.97q-3.36,16.892-6.8,33.768c-.546,2.7-1.091,5.408-1.658,8.108a1.666,1.666,0,0,1-1.972,1.511,1.686,1.686,0,0,1-1.224-2.162c3.066-15.209,6.089-30.426,9.217-45.621,2.2-10.684-1.961-20.5-11.344-26.226Q201.059,86.305,179.789,73.4c-.148-.09-.3-.179-.443-.272-1.056-.676-1.334-1.563-.765-2.435a1.656,1.656,0,0,1,2.47-.359q7.612,4.608,15.21,9.24Q210.128,88.013,224,96.45a27.058,27.058,0,0,1,13.367,20.106c.161,1.091.168,2.2.247,3.308l.231.046" transform="translate(-132.925 -51.669)" fill="#f38599"/>
      <path id="Caminho_1312" data-name="Caminho 1312" d="M185.183,154.272a7.112,7.112,0,0,1-7.061-5.749,10.776,10.776,0,0,0-5.233-7.358c-8.383-5.179-16.7-10.461-25.048-15.7-.147-.092-.3-.181-.443-.274-1.173-.749-1.5-1.579-.972-2.465.557-.934,1.521-1.056,2.7-.314q11.242,7.049,22.48,14.105c1.322.83,2.653,1.647,3.965,2.494a12.589,12.589,0,0,1,5.645,8.367c.458,2.218,1.774,3.5,3.795,3.619,2.06.121,3.554-1.028,4.209-3.255a9.739,9.739,0,0,1,3.108-4.686,3.98,3.98,0,0,0-2.252-6.975,4.984,4.984,0,0,0-2.123.351,8.961,8.961,0,0,1-8.451-.845q-13.736-8.661-27.5-17.272c-.206-.129-.417-.253-.611-.4a1.6,1.6,0,0,1-.518-2.189,1.629,1.629,0,0,1,2.271-.541c.789.436,1.539.941,2.3,1.421,8.522,5.347,17.055,10.675,25.555,16.057a6.234,6.234,0,0,0,5.927.647,7.226,7.226,0,0,1,10.042,6.126,6.624,6.624,0,0,1-2.26,5.87,8.327,8.327,0,0,0-2.5,3.958,7.153,7.153,0,0,1-7.028,5.006" transform="translate(-109.109 -85.113)" fill="#f38599"/>
      <path id="Caminho_1313" data-name="Caminho 1313" d="M278.1,278.675a6.644,6.644,0,0,1,.955.161c2.021.568,4.044,1.13,6.046,1.759a4.224,4.224,0,0,1,1.412.859c1.289,1.109,2.58,2.222,3.791,3.412a4.723,4.723,0,0,1-.04,7.029c-3.7,3.191-5.27,7.29-5.958,11.951-.81,5.493-1.825,10.956-2.753,16.432-.035.2-.09.4-.141.606a1.589,1.589,0,0,1-1.807,1.337,1.562,1.562,0,0,1-1.362-1.87c.267-1.913.593-3.818.92-5.722.811-4.725,1.6-9.455,2.468-14.171a18.177,18.177,0,0,1,5.833-10.394c1.427-1.295,1.44-2.106,0-3.4-.515-.465-1.059-.9-1.553-1.387a5.422,5.422,0,0,0-3.86-1.96,6.91,6.91,0,0,1-2.5-.941,3.723,3.723,0,0,0-4.524.956,3.5,3.5,0,0,0-.066,4.5c2.678,3.216,3.146,6.837,2.423,10.818-1.233,6.788-2.344,13.6-3.509,20.4a4.6,4.6,0,0,1-.189.8,1.528,1.528,0,0,1-1.876,1.092,1.428,1.428,0,0,1-1.263-1.646c.267-1.982.6-3.956.933-5.928.931-5.475,1.9-10.944,2.808-16.423a8.374,8.374,0,0,0-1.852-6.985,6.645,6.645,0,0,1-1.22-6.443,7.106,7.106,0,0,1,6.882-4.841" transform="translate(-201.344 -206.825)" fill="#f38599"/>
      <path id="Caminho_1314" data-name="Caminho 1314" d="M143.468,198.919c-2.277-1.053-4.589-2.075-6.859-3.179-9.66-4.7-18.749-10.262-26.63-17.617a35.809,35.809,0,0,1-2.51-2.633,1.612,1.612,0,0,1,.071-2.246,1.559,1.559,0,0,1,2.324.063c10.177,10.58,22.807,17.359,36.135,23.061.128.054.257.1.382.164a1.653,1.653,0,0,1,.836,2.685,37.675,37.675,0,0,0-3.894,9.113,20.406,20.406,0,0,0-.548,8.913,29.675,29.675,0,0,1-.277,11.031c-.987,4.891-2.287,9.72-3.459,14.574a5.628,5.628,0,0,1-.335.977,1.586,1.586,0,0,1-2.027.963,1.605,1.605,0,0,1-1.054-2.066c.829-3.023,1.755-6.024,2.479-9.072a46.564,46.564,0,0,0,1.591-14.554,57.4,57.4,0,0,1-.46-5.867c.106-4.639,1.683-8.91,3.7-13.038.167-.341.344-.677.509-1.019a.925.925,0,0,0,.029-.251" transform="translate(-80.084 -128.088)" fill="#f38599"/>
      <path id="Caminho_1315" data-name="Caminho 1315" d="M339.191,248.468c-2.564-.157-4.612-.236-6.652-.417a3.987,3.987,0,0,1-3.147-6.18q1.27-2.076,2.647-4.087a3.98,3.98,0,0,1,6.556-.312c1.228,1.5,2.4,3.04,3.554,4.6a3.741,3.741,0,0,1,.308,4.278,3.879,3.879,0,0,1-3.266,2.122m-.825-3.335.072.173c.372-.186.9-.285,1.067-.584.131-.23-.1-.772-.318-1.069-.982-1.335-2.019-2.629-3.031-3.942-.5-.649-.992-.721-1.469.01-.81,1.242-1.632,2.478-2.406,3.743-.475.775-.21,1.249.687,1.313,1.8.128,3.6.238,5.4.356" transform="translate(-244.514 -175.026)" fill="#f38599"/>
    </g>
  </g>
</svg>
