<svg xmlns="http://www.w3.org/2000/svg" xmlns:xlink="http://www.w3.org/1999/xlink" width="140" height="140" viewBox="0 0 140 140">
  <defs>
    <clipPath id="clip-path">
      <rect id="Retângulo_644" data-name="Retângulo 644" width="140" height="140" fill="#f38599"/>
    </clipPath>
  </defs>
  <g id="rugas" transform="translate(0.14 0)">
    <g id="Grupo_804" data-name="Grupo 804" transform="translate(-0.14 0)" clip-path="url(#clip-path)">
      <path id="Caminho_1295" data-name="Caminho 1295" d="M152.973,189.263c.01-2.787.033-5.573.011-8.359a1.238,1.238,0,0,0-.429-.819,35.683,35.683,0,0,1-13.026-23.309,1.214,1.214,0,0,0-.466-.719,11.8,11.8,0,0,1-5.155-10.185c.04-5.011-.008-10.022.014-15.033a28.1,28.1,0,0,1,2.615-12.779l-7.417-4.2c2.28-1.244,4.463-2.417,6.62-3.632a2.547,2.547,0,0,0,.92-.914c1.224-2.148,2.4-4.32,3.652-6.578l3.485,6.3c.852-.616,1.63-1.216,2.444-1.763a24.234,24.234,0,0,1,12.477-4.134,136.688,136.688,0,0,1,14-.133,25.96,25.96,0,0,1,16.111,6.944,25.665,25.665,0,0,1,6.024,7.882l-2.253,1.148c-.163-.268-.325-.519-.473-.778a23.9,23.9,0,0,0-18.413-12.49,88.213,88.213,0,0,0-10.352-.239,1.508,1.508,0,0,0-.826.353,4.35,4.35,0,0,0-.9,6.027,2.633,2.633,0,0,0,2.537,1.276,27.006,27.006,0,0,1,16.334,3.776,24.517,24.517,0,0,1,11,15.8,74.236,74.236,0,0,1,1.03,7.413c.033.246.033.5.052.788h2.414V125.875l2.368-.4a17.2,17.2,0,0,1,.27,2.107c.035,6.5.129,13.006.022,19.506a10.831,10.831,0,0,1-4.642,8.624A2.618,2.618,0,0,0,192,157.4c-.62,2.673-1.361,5.319-2.116,7.959a1.6,1.6,0,0,0,.839,2.151c2.056,1.124,4.117,2.238,6.176,3.359.139.075.268.169.509.322-1.6.875-3.052,1.8-4.614,2.49a7.535,7.535,0,0,0-4.048,4.028c-.684,1.532-1.6,2.96-2.5,4.586l-3.208-5.788c-1.407,1.249-2.805,2.471-4.171,3.728a1.123,1.123,0,0,0-.222.752c-.014,2.759-.006,5.517,0,8.276H176.1v-7.029c-.434.252-.7.4-.956.556a32.6,32.6,0,0,1-8.717,3.642,1.988,1.988,0,0,1-1.068.024c-2.153-.756-4.31-1.509-6.422-2.368a35.373,35.373,0,0,1-3.239-1.71v6.885ZM188.88,132.8c-.18-.614-.337-1.237-.544-1.842-1.8-5.258-4.677-9.669-9.831-12.267a28.369,28.369,0,0,0-19.806-2.138,19.7,19.7,0,0,0-10.892,6.281,25.705,25.705,0,0,0-5.556,11.955c-.162.82-.271,1.65-.4,2.476l.261.107c.157-.2.3-.406.472-.586a14.027,14.027,0,0,1,9.658-4.687,18.864,18.864,0,0,0,4.658-.784,26.442,26.442,0,0,0,3.9-1.944l1.554,1.771a11.794,11.794,0,0,1-6,3.026c-1.391.235-2.8.371-4.207.517a10.727,10.727,0,0,0-6.561,2.839q-1.866,1.788-3.673,3.636a1.377,1.377,0,0,0-.333.808,62.516,62.516,0,0,0,.689,15.3,36.967,36.967,0,0,0,4.857,13.384c4.174,6.727,10.3,10.829,17.832,13.007a3.376,3.376,0,0,0,1.8,0,31.5,31.5,0,0,0,13.967-8.62,6.858,6.858,0,0,0,.425-.546l-6.082-3.324c1.729-.944,3.264-1.908,4.9-2.642a6.953,6.953,0,0,0,3.639-3.637c.746-1.62,1.706-3.143,2.64-4.834l1.695,3.021c.117-.273.191-.421.246-.577a35.126,35.126,0,0,0,1.668-10.786c.092-3.714.037-7.432.02-11.148a2.848,2.848,0,0,0-.282-1.2,28.447,28.447,0,0,0-19.257-15.621c-1.1-.287-2.248-.422-3.4-.631a13.95,13.95,0,0,1-2.67,5.966l-2.049-1.541c2.244-2.8,2.4-6.073,2.323-9.387H167.1v2.389A32.514,32.514,0,0,1,188.88,132.8m-37.365-18.938c-2.25,1.224-4.369,2.344-6.447,3.533a3.455,3.455,0,0,0-1.211,1.205c-1.077,1.845-2.078,3.735-3.111,5.607-.124.226-.269.441-.451.736l-2.116-3.8a22.431,22.431,0,0,0-1.678,8.14c-.072,3.741-.021,7.484-.019,11.227a3.015,3.015,0,0,0,.055.407h2.433c.021-.317.052-.591.057-.866a30.483,30.483,0,0,1,1.917-10.3c3.124-8.3,8.771-13.884,17.655-15.893.341-.077.68-.162,1.084-.259a7.1,7.1,0,0,1-.494-7.943c-3.593-.219-11.209,2.769-13.221,5.184l5.549,3.026m-16.985,0c.728.4,1.344.8,2.01,1.086a4.8,4.8,0,0,1,2.666,2.64c.283.666.694,1.28,1.108,2.027.565-1.019,1.028-1.977,1.612-2.856a4.765,4.765,0,0,1,1.328-1.311c.878-.575,1.833-1.033,2.848-1.591-1.1-.595-2.088-1.081-3.02-1.659a3.546,3.546,0,0,1-1.1-1.092c-.591-.941-1.09-1.939-1.673-3-.584,1.062-1.071,2.047-1.657,2.969a3.823,3.823,0,0,1-1.157,1.143c-.923.581-1.909,1.065-2.969,1.644m45.944,57.312c1.066.587,2.044,1.071,2.96,1.652a3.853,3.853,0,0,1,1.15,1.143c.586.917,1.075,1.9,1.661,2.953.413-.743.828-1.379,1.134-2.063a4.564,4.564,0,0,1,2.541-2.533,19.4,19.4,0,0,0,2.1-1.163c-.99-.544-1.808-1.051-2.676-1.452a3.228,3.228,0,0,1-1.63-1.612c-.429-.885-.942-1.731-1.468-2.683-.609,1.105-1.1,2.088-1.684,3.013a3.577,3.577,0,0,1-1.1,1.08c-.923.577-1.9,1.066-2.989,1.664M192.641,152.7c2.646-2.636,2.651-5.813,2.483-9.075h-2.483Zm-56.126-9.081c-.156,3.29-.1,6.427,2.428,9.09v-9.09Z" transform="translate(-95.677 -76.042)" fill="#f38599"/>
      <path id="Caminho_1296" data-name="Caminho 1296" d="M102.979,175.607l2.575-.226V173h2.615v2.451h2.582c0,.8.034,1.522-.027,2.235-.013.15-.364.369-.573.386-.61.052-1.228.019-1.946.019,0,.554,0,1.022,0,1.49,0,.14-.005.281,0,.421.038.969-.733.658-1.139.591-.511-.085-1.419.6-1.5-.573-.041-.608-.007-1.221-.007-1.852l-2.585-.195Z" transform="translate(-76.288 -128.27)" fill="#f38599"/>
      <path id="Caminho_1297" data-name="Caminho 1297" d="M395.075,325.89v2.51h-2.563v-2.452h-2.528V323.4h2.474v-2.5h2.6v2.458h2.505v2.535Z" transform="translate(-289.161 -238.212)" fill="#f38599"/>
      <rect id="Retângulo_639" data-name="Retângulo 639" width="2.517" height="2.453" transform="translate(111.133 77.602)" fill="#f38599"/>
      <rect id="Retângulo_640" data-name="Retângulo 640" width="2.525" height="2.431" transform="translate(111.114 92.821)" fill="#f38599"/>
      <path id="Caminho_1298" data-name="Caminho 1298" d="M378.587,171.978l2.412-.923.847,2.564-2.484.678-.774-2.318" transform="translate(-280.708 -126.825)" fill="#f38599"/>
      <rect id="Retângulo_641" data-name="Retângulo 641" width="2.479" height="2.455" transform="translate(68.697 32.037)" fill="#f38599"/>
      <path id="Caminho_1299" data-name="Caminho 1299" d="M190.542,246.679l-1.758-1.849a9.755,9.755,0,0,1,5.837-2.877c2.468-.229,4.964-.163,7.449-.206,1.354-.023,2.709,0,4.136,0v2.567h-.871c-2.8,0-5.6.01-8.4,0a9.093,9.093,0,0,0-6.393,2.371" transform="translate(-139.93 -179.367)" fill="#f38599"/>
      <path id="Caminho_1300" data-name="Caminho 1300" d="M254.22,346.269l1.418,2.018c-4.309,3.845-12.749,3.656-16.722-.018l1.378-1.968a12.866,12.866,0,0,0,13.926-.032" transform="translate(-177.113 -257.072)" fill="#f38599"/>
      <path id="Caminho_1301" data-name="Caminho 1301" d="M303.925,244.8l-1.546,1.612c-1.519-.665-2.893-1.352-4.332-1.861a7.389,7.389,0,0,0-2.348-.253c-2.719-.028-5.439-.011-8.158-.011h-.971v-2.518c.259-.018.478-.047.7-.047,3.116,0,6.233-.053,9.347.024a10.876,10.876,0,0,1,7.308,3.054" transform="translate(-212.459 -179.343)" fill="#f38599"/>
      <path id="Caminho_1302" data-name="Caminho 1302" d="M201.889,278.77a5.247,5.247,0,0,0,9.553-.149l2.244.875c-.5,2.22-3.013,4.518-6.3,4.837a7.524,7.524,0,0,1-7.756-4.582l2.264-.981" transform="translate(-147.97 -206.785)" fill="#f38599"/>
      <path id="Caminho_1303" data-name="Caminho 1303" d="M288.045,280.119l2.292-.982a5.164,5.164,0,0,0,9.425,0l2.261.973c-.731,2.488-3.626,4.517-6.53,4.624a7.456,7.456,0,0,1-7.448-4.61" transform="translate(-213.552 -207.165)" fill="#f38599"/>
      <rect id="Retângulo_642" data-name="Retângulo 642" width="2.475" height="2.481" transform="translate(53.573 49.765)" fill="#f38599"/>
      <rect id="Retângulo_643" data-name="Retângulo 643" width="2.471" height="2.434" transform="translate(58.693 49.781)" fill="#f38599"/>
    </g>
  </g>
</svg>
